<mxfile host="app.diagrams.net" modified="2020-11-14T20:45:24.293Z" agent="5.0 (Windows NT 10.0; Win64; x64) AppleWebKit/537.36 (KHTML, like Gecko) Chrome/86.0.4240.193 Safari/537.36" etag="jMsF9ECEfWUn-G-jcJ-k" version="13.9.8" type="github">
  <diagram id="JIdPHKm6qXzqnSPddPsZ" name="Page-1">
    <mxGraphModel dx="1447" dy="708" grid="1" gridSize="10" guides="1" tooltips="1" connect="1" arrows="1" fold="1" page="1" pageScale="1" pageWidth="827" pageHeight="1169" math="0" shadow="0">
      <root>
        <mxCell id="0" />
        <mxCell id="1" parent="0" />
        <mxCell id="lHdcJobjWZD8BWbFsa10-21" style="edgeStyle=orthogonalEdgeStyle;rounded=0;orthogonalLoop=1;jettySize=auto;html=1;entryX=0;entryY=0.5;entryDx=0;entryDy=0;entryPerimeter=0;" edge="1" parent="1" source="lHdcJobjWZD8BWbFsa10-1" target="lHdcJobjWZD8BWbFsa10-17">
          <mxGeometry relative="1" as="geometry">
            <Array as="points">
              <mxPoint x="145" y="115" />
            </Array>
          </mxGeometry>
        </mxCell>
        <mxCell id="lHdcJobjWZD8BWbFsa10-1" value="" style="shape=mxgraph.cisco.buildings.telecommuter_house_pc;html=1;pointerEvents=1;dashed=0;fillColor=#036897;strokeColor=#ffffff;strokeWidth=2;verticalLabelPosition=bottom;verticalAlign=top;align=center;outlineConnect=0;" vertex="1" parent="1">
          <mxGeometry x="240" y="71" width="104" height="88" as="geometry" />
        </mxCell>
        <mxCell id="lHdcJobjWZD8BWbFsa10-5" value="" style="shadow=0;dashed=0;html=1;strokeColor=none;fillColor=#4495D1;labelPosition=center;verticalLabelPosition=bottom;verticalAlign=top;align=center;outlineConnect=0;shape=mxgraph.veeam.building;" vertex="1" parent="1">
          <mxGeometry x="232" y="367" width="226" height="110" as="geometry" />
        </mxCell>
        <mxCell id="lHdcJobjWZD8BWbFsa10-76" style="edgeStyle=orthogonalEdgeStyle;rounded=0;orthogonalLoop=1;jettySize=auto;html=1;entryX=0.146;entryY=0.68;entryDx=0;entryDy=0;entryPerimeter=0;fontSize=14;" edge="1" parent="1">
          <mxGeometry relative="1" as="geometry">
            <mxPoint x="260" y="226" as="sourcePoint" />
            <mxPoint x="236.60000000000014" y="289.30000000000007" as="targetPoint" />
            <Array as="points">
              <mxPoint x="260" y="245" />
              <mxPoint x="237" y="245" />
            </Array>
          </mxGeometry>
        </mxCell>
        <mxCell id="lHdcJobjWZD8BWbFsa10-7" value="" style="shape=mxgraph.cisco.buildings.telecommuter_house_pc;html=1;pointerEvents=1;dashed=0;fillColor=#036897;strokeColor=#ffffff;strokeWidth=2;verticalLabelPosition=bottom;verticalAlign=top;align=center;outlineConnect=0;" vertex="1" parent="1">
          <mxGeometry x="247" y="185" width="104" height="88" as="geometry" />
        </mxCell>
        <mxCell id="lHdcJobjWZD8BWbFsa10-8" value="" style="points=[];aspect=fixed;html=1;align=center;shadow=0;dashed=0;image;image=img/lib/allied_telesis/security/POE_DVS_Camera.svg;" vertex="1" parent="1">
          <mxGeometry x="90" y="596.9" width="51" height="40.2" as="geometry" />
        </mxCell>
        <mxCell id="lHdcJobjWZD8BWbFsa10-14" value="" style="shape=image;verticalLabelPosition=bottom;labelBackgroundColor=#ffffff;verticalAlign=top;aspect=fixed;imageAspect=0;image=data:image/png,iVBORw0KGgoAAAANSUhEUgAAAWYAAAFDCAYAAAAJR6STAAAgAElEQVR4Aey9CXxc1Xn3P1pssxNIkxAIGC9avbKHhBDSpNA1adq3b5v2bd4m6dskXd7+u5diSxqN5AVC85Jms6Gs3rTaki1pNsnGljQa7buMd8AYA8Y2liXN/vt/fs85Z2asSOBFxhjd0efq3rn73HvO9z73d57nOTZYH+sKWFfAugLWFfhIXQHbh3M2MQAx/Tf+iGoZl5sPp6Lmy0UbJx1XH9rMUeeiZ16043PHPAZ/6ZnHSpzHRT34R37nietgpsx4/Kmb+Rx/2J/Esc2UOYP42ZgFE84w9SKxkplj9mONp98VuLhgNmUNUcQQ1X8sduqjCiDBFFFDLCaMCgMIGVyZfZzvOP5IiB9UHz8KxCJALBpnI89EPRB4PjwLc6bnWTDMOct+EtUtPluOwV/K46nrwmXqaiWu03ke/bLeTF0Hc2siiCGMGDjm1VF3Ro15ndQVM2tP2Q83BxpnUsRny4FMqYnK2ak7qc6PS7iuFCoukBmcwwlVxvi7onpQvy8C9cffJFtP2c+xdnT5XIEPEcwsbqrwmuLGgsdKpSAYAaITgPl8ryUPogd1HHNUVgvOYcUIaTirdXkmHNT5EJjq2/megjm+ORF1HuabOU4wfhxzyuY8Emd83mdw2W7I3564DrxjBsy8iolrqK4pl8fJl1h4ob/eHEiOl7gb8dkywTLLM1VnYB7nXMQzkq3iP4Trco6akTBWeP5qH2o/CtGy7YX+Bmv7y/IKfEhgVoVRFURVsXi1OFd90yU3SutVwVktYxHmVuc+yN7FAueejKWl9kMbJSIVnfBlVeIRTHVRVSOpWp3/jTU/YtI9mBprarC5Jmo86WbTZIG5fBxPdkUSYDZgixesqblK5iSS9qbORx/H3MJYovyYJwfXU2fFs+SUenhwPqdY8jiW9ZNnqCqQdERrcrpdgQ8JzKr0qUqk/qs55nLr0k/LQ6yPM4uzKfvnMpbSTsgL6NX+VfVQ1gitd2XjqMrC9fVZxMfm7KZiHIvFYAbZX/xguhaa7/pgiTNOvmrTbXqSK8+LE/+Yu5o0c9y1jK96DhPchZQMsy+9e/NVdpVcIJNuoylAXDdRkhV5WeY4RZPAiFhxSifsBNnFOZyuterH7ApcXDAnXSxToJPRIovNAjEcqEPTng2JTXvGcrPeuYxNxdHbJG/6K/smwFljzMBtp+hjDPc4mM0DSL8dKJPJnGxizEps9MfpNqZ0cebNGEe+WAQxthEI+njNeHf1x9xo8/0cx7xPfGzzDCigiPwQNTo356gl0kbBtzx9aHVYc3CWdL1IJniOqmwHEUJQAM0F+mdyl/pnmBKgl57j2VurfxyuwEUFsymYZqwumLJwogKnRL0ivMIiMIQQRkDgLOubjc9nzB0kbWcmZR5LfxzClFCiQCSm6loEiLBdkBtMwScBZp4PK3JYadvxGmhOxIzVAgVmpcxTfJlOQxx+AsEkKMevH69hGDEZeN3id/eC71gCzOpxqBqICWYaDEFEMQYgqO7jGWDmOZiCxbH+mPsszd9hhATM3I9u44hEgbB6u+OxVT3g8aaoAJrzsMaXzRW4aGBWRVQpa1K8+E8GvtIra0fApwstp1VrNN/nWOhVoTVW5rmOle0didveNE6Vtqy9MOIM5PkoS4bHDyKGgDoDZcBcAJ31I0hLGOYhRMiQ+mzs1JyORbX1py+SuVbmkk3DsapBvEnaIuVl46RIQrx+CszqWuoLqUGWdPnOqyLyGJGoKo18GIocFuXdZDkhUFlCAuqEWH55QPlwgjN43klWtT6hxFKWTm3xSznQhkFU/a4IArokcl/WZzpegQ8FzFJwNYCV5ktLJwIaChwMp1gZotEwENFDHOAG5Gc/pq1Dy4T2d1Tru2zw43xaxlJ35C2VlSQoVnoAIV0luJZ6nWUlPb+PwTLPmeBNah0SwkRNfdeWsHps/IqVpCu1eqhNI0LLRVdgFqDp5gLeLXV3CGbdWKzbEYy0YS7Z+d03DX+BJI2DkCov8jwnTnmf9KPb3NMkg16BWcPZvBklNXFLadJ1ISZvaDHEolFEpeyHEIlR6BiTkqjMmvP9FdZ2l/MVuKhgVr4Q44wIQjFKMIstIowMs/6xxEaiiAWpI+iWETUzSXPggrMdjBaoLFMxZMy2ut5w98oyCiKIMQxjDAGEEY6MADFa7TzW+X6UhcXXX0oSAmZDDOGJAj8fHHyEBOWRwJdYShZRROTY8aeZMben0TiCcJSSVgShWBRBPsgpIkRGEcaYyADkonmoxyKEG681ByrEgsBzvnm8T3KvIiEgPAJEA4gFw4hEeBf5Lkc0BxCJjmntWRnU5lmv7p6Y9rqoKpjz3S0cHdWWPhAKKJoHx4T4Uh8C0YCYCGMIi13Ou299pucV+HDBzJJN60aDORAighSTReKNqpbq0wCOAzgJ4MQFDu8B4P44cH8chvXAaR7nXQBvAXhTfycqYyFWogsBM+FgQEHrLmExc5IVNYRhjOIYAngXARlz+hhCOIEwTiCK44ji3Wk5RPAuwngXQRlOIoiTGMMxjOJtuTZj0ZMqYEmrQgRzLEohisOFgznGxr5IQB4KpwC8o8vHEQDHdJlhueHA71xuBn5PLr9HdfniPJZHljVOv520n+TpU4hhNEKzxvpM1ytwUcEcrx4sYYbAnJBXvCjkbZHtHqEYRoJhjOrC2g2gE0AXAE5fyNADoB9An94f98t5vXq/bQA4cD6PMwCAFTFCTZEEPe8PbTZWLiVlqAcSn0LEBrH8HkZxCO+iC8Pox2n04TR6cUq+d+M0ujGKHozKmNPTcejDSXTiFHpxGgNyjUYxiGHsRgBvIkLLWTfaytsWrVsB8/nay1rGiPGRqspB64lRbHsvhs1BYHNEDwGgchTYzHEgMa4IAhw4bwvnjwBbxoCyMcj2zjGgZhjYFgbKx4BK7i8MVAWAqmHAHQB2Hh/Bm6cpoZx3wbM2/BhcgQ8PzGIwEkokNOUF/QrHGhAFxmLAkWgUL/QP4qH/XofctRuwcG0JFq0pPb9hbalsv3hNKZb+ohxLflmOBU9vQu4zJVi4pgKL1lQi5xclWLK2DHc/XY67flmKJT8rwUP/70WUd+6WdvcLsZdZs/hrpYbFrWXV8MlX4QDeRuWuVfhp1XfxZMW3sLLsD7Cq/PexquwbeLzs9/FE+TexuvwbWF3x9ek5lH8DK0u/jscr/gBPbvkjrCr/Joo3/S6K138Tv6z6e7x6qhlhvCcPOdVmQNOZUZS0mC+Ma3wg00g4COBRVyPuW1OGjLVVyHimBjnP1iJnbQUWPbsZWU9vQdbT1ciWoQqZz2yWIfvpKuSs3YrcNVux4JlaZKzdhsw125DzX5W44+ltmP+LUuS+sAULnquU8nfvUxvw8H9twO89uRY/f9mPN4eDYrt8DPhi/YTzvAIXDcw8H6JJHvy6cUS92GvlWSQNIDJGFzXlCcHXuV/ufxVzXyjDtRvrcP16Lz6xbvt5Ddev345rNzTguvXbccO6HbKPazZ6cdUmL67ZsBPXrd+J69c34Mb1DfjMuh343IZG3LKhGQvWbMNz/W/IKyefGVPyIZ9l4PWgUBLAKF7Dhl3/gNWbfx3FW76E4m1fxGrnA3jc+QWsqrlPhuLae1FUNz2H4tr7sKr2fhkcW+9G0ba78SP3A1i55ctYVfJNHBr1IiQyTxiUMZR/o2qUmwowU+46AOAvXU245dktuGZjA67Z2IjrObzoxo0bPLh2Qz2u2bAdLGssS9ds9IBl7Pr1O3DDSztxw4sv4/oXWQ634xNlO3Edy+OG7bix0oerX3Ljcxs8mPuzTfje1kb8/boq+N86ITLbaJTvmtZnOl+BDwHMmspiy9D/wYDZwEpd/tOIicb71J7X8Onnq5Ba0YSUMh9SSv3nNdjK/DBDakmr7MNW0QRbRTNs5e2wlbUjpbwF6Rw2NCN9nQ/pG9rwuefq8fSet0UDZDW/4I+hhBjP/EIZg2A+hNL2v8WqmntRVHsHCmoXoKAuCwV1GSiszYDDmQW7Kwt29zQdXNkodOXA4cqG3TUfDk8GityZKK65EyvKH8H+sRoEcUyFaUjLGyWyqQXzPgDf8bbgkxucsFX6YCtrQ2p5B2aUNCG9ZBds5U2wlTcjtZQDp3fCVr4LqaUtSN/UiqsqO5Fe2gJbGZc1wrZpB2zrG3BtyS7cvL4BC1/YhpWvnhCpje0b4h0dDiMQDiPMRsgLLnzWDi7XK3DRwMxCpZ77iUYv5RmqQ5yoLYe1ISkOa6ph7pndb2H2f3sws6QNqaUJuBrInvO41I+0Eg4t8YpEKLOS2UoakVreLMvSyzpgq+jCZ9c34Bd7XpcGHb4YT8nHwFkqG8MKIhjF63jB910Ubl2EIvcSOOoXwV6fDXt9Jgpc81DoyYTdnQG7m+PpOeS7MmH3ZqKgfi7sDXOQ57wVRc4lWFX1W9gfrJVGUz7mpY2WcI6pwA9zuS/k3o0AeB3AX3t8uPGlWtgqW2Ar7UBaWQ9mlrQidWMjbOU+2MpbkFrq02AmrBuRUtqK1JI22F7agbRKP9Iq2pFa3iqA/szmZmSu2Yz/7+U+aUMhkKmWH8eoyDKRYAj0UgrzOXMhP8Da9rK+Ah8qmE1jmPFQMC5G4VgEI7GoyAfPDBzF7U97MWtTB2jpnjOIkyxlbkuLOw7msmbYymj5cL+tqmLRmllP61zB+lPrPPjZ7kPivTFlYGYRkVqmkEGYjOEwNnZ8H47aRbC7FiDPlYXlrnkoqM9Avmc+7F5CeToPmch3ZaCwIRvL3LORVz8b+Z7ZKHItRlHF17AvUIMAjosLm2q2IJh5xyiYXTjUiHh6YPy1qxnXP78Vts1+2Mq7kFLShRkl7Ujng76MD/sWpJSqwabLF6HMIa2yFbbSRtjW78RVG3fh5pIdyPhlGcqGFfTpKRSK0TWO7n8BIEIXTeXb/2GA2VynxJhWevLfRGxLrK2usvk+0bpnzjNrmiOcuZTfzBq/umS6zbloYDaXWS5o/HobsVXdA5GZtdLBikAXorW738DnnnMjzcgP40B7PqCOV5y4Ba4rlUglLUjd5FcPgfJW3PSSG2t2vyFgnjKNWQqcaBnx8hXEEaxr/T6KnHeg0LkAdlc2CtyEshkyUTBNLWW+IfC3c8j3cFAPK75FOOruwKotv4l9gW3iSke/YaPfi5tP4j0tfq3PZ4KNf7SY/8rdjBvW1ykpo7wDtk3tSNFvcymlPqTREt7UIhKHrcQvZWlGSSvSS1uRXtGGtNImXFv2Mm57qQZ/5xtCu3av4/4DsSjCdB3lq2MoDDGVI1GE6bc9JTqzqXhqfOY387ZqxjSb6C/EP+NPn0Alt1XfTB1m07j4v2pNUq0Rv9bjDsavakvlAEAnANkieT29hjpOfE/TcuKigtlcUXPtE7dZLYk782t9jT6hv9xzGDc/71Ka8BRAWYFcgZivmLSgldVM65mWjqpMokOX+3Hzi26s3f3mFIOZRZKFWIqijMI4inX+H6LIeRcczgUoFD05EwUCIcIoCwVua+A14LXId2eh0JODotq7BMz7BczHlJePecJzPEV2F63Z1whmlw+ffMkpWrJN5Ig2pFJr5psYdeVNjUgRWawNtg0+zKhoh23DLlyz2Y8rN+zADc87sXSTG6sOHQc1a/oxjxHEBGCMkX46ElUiuCnLRBGKsR2C71UX+jE1T43P/KZKozEXDG6JS0JTjQ1Mk2uu2Utii8RSs0yfN72RZEgci79KBeHQbk66WeKaakB/ob/78t/eArMF5o/8A+DDBjMNBqMx/9Dpx03PulQbBXVmNhaXtmLGJh/Sy3YhlZoyZbESP2yb22Er3YnUyl2Ysa4On3upBn9Q04wdp3SgFIMJtUMfwavAzBBsNvbpiNcI5Q22Q2hwXUzGGI4mjw1v9Zssv8ZtYzYX6fnJm6hpni9xrtCrfinfOVWbUvJS7pPbJD78Fj+KLDtzeWLN6TJlgdkCswXmcbXdgPkwNea6Vtz8rBvpJT7YKlpgq/AhndbyJrZLvIzUykZp5Evf0iXLbGU7cN0mJ257rgx/3/2KSBeU6SS9RgQIBMZ0frowQrGAhJ0HYyEEI2FEwzFJE0OJg6mSLhqcuOPxgwGyIbFufEyePX6TX/2ewK8CrbwGaOjy98Q9+5OuOPfC9ZIhPh7cSatPk0kLzBaYLTCPq+wGzNSYf1jHdgcP0sppLfthE/c3n2rUK9sOW+Uu8bZIrfAjpaIV129sQPYv1uGZN97BqzoVAPNyIahMTVqUzMgyBmbEGEMsGgJCUZUriVJzlLGLxq103Imdz1dyL/kj3/kvCbnxhCOkcdKQ1BBoEoEl7+p9p3kIcxg5ZtLaZpnIF3Jx9JOLcCa+LTBbYLbAbIE5mRk6iRGlDIL1+85WfHq9BykVLUhlm4d4Y9CzpxG2ykakblGuclds2IlfW9eABc9WY8tp5dEhjccEr9ZZo5Ewgsy/IZ7sxK9ud9CGJVfjpHmpH8+zpNM8+8nknZxBPH4x5rE+gbjlqq1XAXYSqHmCoucntfeZfX7Q2Jxx8nqSy5rXR2frExlEWdU8M646XT8WmC0wW2BOqv2mQZqRfwzJ/kt3Cz653qMDSXxIK/EhtaJVyRpV9MjYhatKW3HzCw342rpt2BkDmLSIqJO0AzpTHB35FHAZ+6msYn4X+nBCGi7V637S6UzNpIGh2VsS8dQi0+CX8MqQh0Y8Dwl9+CYYBNL0iuHANAsmRzbHEUm3q9CfUJ65G9lM2gXZyKhS8ap0qlzPXCd9Scw5T7OxBWYLzBaYkyq9ATMTWTEk+3ueFnziJZdIF/TCmEEXucpWkS1sJc24dlOzRIt+vapFkmAxc5wAl0anJNenLMGUAwl9NRgeZxUKqXSaPFqx40GadH7nNvn+OzJLjd3MZjtiUnXspi1lga6Bb/LYpPUjhHXeakmVS19s/mK1l4QLHlGvf7dAmZIFl6o85Go9c104jsXzqJ/bb/54rG2B2QKzBeYJ6jLd5fbSYva24rOlO5Ba4UPapkYZbKVNSCv14bpNrbh1rQt/vKFe1qWlfIqubpqtZDMHAvAM1UAsZMNfYlFZmHGZwBBzgvO60FnmwcOjMzk/8cjDCZRjyk3OAFqW0fKlr7VGNhP5cyC+2XjJPn8UygliNdDZT2WUNt1NELM6y6KEafL3qmCgcPC0yjZJYSdMqPNdw1w5Xpvp+bHAbIHZAvMEdZ9gppTx/foOfOK/azFrM0P4dyK1ZCeu2uLHdetfxuw1dcjrfxf7mVc5phwvlJ2opAyFniS5IlnKFeYQWIQQF9Aa1QAXkk9wUucxS+TtpP2xg4rEgTidtJDfdOQh5ypka6hq6zYUZW8/dPZTQShMyaX6CmLGxBEEcBohjErSgTCGEcFp6SMxEuM7A38rr0oAMQmfV789OMqOKfg0iyAWYgcEIUSDDME589zO4+dftptYYLbAbIF5XPWlVUkwU8r4gbcdn3rWDdvGJti2NCKtqhFXbdyBzBfcKGjdL/BmxOppadSLYSQcwliU9qXCnwKcZgw5qK1lgZD2vxBllStqZprVLhRLsssk32MFOr13Wq5hdpvFMWmsj8+xeVbIyfOX6DOhBEF+KgcThKJRhKIENB9H7G3mNCI4KR0cRHAMDKIK4y1EcEIDWgGbmWJC0VEEw0HJe87c5xHp/VjLJ4xH53lc6AUYd18vp68WmC0wW2BOqrHmVT9uMbta8LkXt0uASdo2P2aVeTHvpTr8S/t+iQw8oSFMq3E0PCY8CUSUVmpAGOeLgI7/CDvz6q9e9+UUyEzNyKngkhxuPN+EqhqAccpqM1k/GOQBIfYyLV72IvOODCHpXedt6aRgDG9gBIdwNNCDgyeb8eqpJrw+0oi977rQfrAE2/vXomnfM9i592ns3P08mvZsROdrm7HnXS9eH23G0XAnhnEIY3gTQRmOIoSjCEUZ/8sMZ+NPPOkmTYNJC8wWmKctmAnh8Z9kMNOP+btVO3DrSw24oqwVqZt24jMv1ODR1n6xpt8R7wrFkNMB1RtgMDKKUIAaqjGANW2Fdmzo4npGCjCGqpILjKTBszJbjT+/5O/mXN9vnLy+WKBn0JodwYYQlcY6asW0evlwGZGUqqPYh2Noxf6QE53H16Ph4JMo6fhH/Nz7LayuegTFmx+SXOIrqx/E6m0PYWU1v38ZK7Z8BY/X/gZWbHsQK2u/jJU1v46VNV/B6toHsar2C1ix7fOwb/48nnD+DhwVj2Dty/8bG/3/gO2vPCXQDuLUFOUKOePXX1ZfLDBbYLbAnFRlCTl2V0WL+RAj/9x+fPYFN2Y8X4/PvuDBN6qbRL6gnzNRJpilgwJt4IhKO2oAqBgoLgi6eY1AVgBX+SLUdmo9otgIIGdnLb4fkGWZ6bvN/D4DZbGGKUGwY9v3EMI7COAwAjiIUxjAnhNueAd/hrX1P8SPnX+ClVW/C8eWX4dj6xdRXHcvil1LUexdCIc3CwWuuch3zZFUtQWuTOTXZSG/LgcFzlwUuLOR78pCXl02ltdlIN81G3bPbbDX3wa7d57ML/LcicLaxVhd9wWsrnwYG3Y8ijHp15EPK57w9PxYYLbAbIE5qe4bMNNdjl4Zf7ejC59+0YPbyprxh2UvS9+R7MRX9FWODexEo+UX5Zcbln4tk01f8XE4EzZmWz1OWMmqIUxhO+nkxk2+H5hFCBY/ZHYqy45qtTgsYS1sqGMHt2/hFF7B69HtePnQT7Cm4dtYvfVhsWwdW+8Be45xbL0LRdvuQnHdnVjhWooi10KBb17dfBS4MmD3ZKKwPktyiRd4syXZVL47G3ZPjpQrjgs9i2F3L4Tdk4HCeqa0na/KnGsRCuoWwl43H6vqFuBH1fejouUfEcRh8eowgtC4nz0tvlpgtsBsgTmpqhsw02JmEvt/rt2J+16qxeefrcag7mVdAKp1ZE5HE9EjYLIL45sreoQWi8ne+McAWTZOwNt8VUIGredxSnN8J5yIgh4WCs66QS6uHxufaN3HZHRMemQP4yRCeBsjOIgT6MWOfWvxtPdvsGrz72F1zddQVHMPCmqyYXfPE+vW4cpEkSsnPhQ6M6WHHVrGhd4c2D1MVZuFPHemDEw2Za/PAQHNeVxGMBPK+c4c5DnnI989T6d0zUGBaxEK3QtR6J6HIsK5agnKfH+NAA6J650F5niJuTgTphwmXtzUccwTn9/4Emil/bTSfk6U6vTDzC5nwByIqV6y19R60B0GusZiOKHLKfNZ8BMv12ZCxuaLBq5QnGtzgqBNgq1ZlePx+5Pvyn+YBxL33/i+uA+mDFU56Hg67PZQzoiWOp8UUUomlFqYve4kRvGq9Dje/95GPLfz+3h862+huPoBOLbdg8LapbDXLVLyA7s0i+cBn7hbs4nu0UTzeN8Ezrp7NJXSlrm1OZ9dhuXE85AXurKxouYObGz5oVjMKlzd/GBzodR1mg7/LYvZspinrcU8UQU3YKZUMRIF3g2EJAXoaEx54IZiMckEp1mqdmG4MX6czBXBOIEqBE1sFz8Js3F8BiJxUzyJ2owmZP4N7dPGRPuhMPVYWs1RhCNUv4cRFW+KN/FOtB87X3kBza+twc+cf4aiyi9jRe19cNQtgt1JjXg+8uMDe8zRfU3q/iYnAu7ZzpMHaryLtEQHEOpBS8tcgZ/f7a5c6ftyvYD5DXkTUI8+Xi9zIRPX5uM+ZYHZArMF5qRabsDMzlCHwxHJ1sm3udFoDGPit0v4EbD6Y3iaPB6/zHw3419ZlzO4z3HyhWGSgImyBaPwdAQd1WpJW6dW4mt/IBJAmD7COIq3oz40v/Yk/qvm9/Bk9VdQXHkPiqqXoLhuIVZ4FiC/dp5YxoQsG+jMoGCZ6GPybCE80XoWmM0NP/exBWYLzBaYk+qNkdciMRUk8l6QueCUtWx8JohR+SQD1kybZfEVzpihvvzKuoQrwWwGfQQN5hi9K1T2CN14qHag5tO7YgQhnMAYjuIYBtDy2kv4ae2f4/FtD8C+JQOPuxeguG4+ilzzkF97G+zGi0J0YOrEbKjjwGlCeb4Mqnuv8+9FxwLzBPf+LGdZYLbAbIE5qbIYMDP/8GiIOR8g0XwcB8JhRJhPIqqGhMictIP4JOFpTF5DYg3cM9aZZJmZTfHYTGvPOz4yItEAwuEgQtERiawbwz60H30WP3X+MZaXfB5FNfdheVUOVjcsxfJt81DkydbubfNQVE83tgx93w2YOc5AgWceCjxz1MDvF9C9mQXm+I0+5wkLzBaYL6jyXUjFPdttpYJ/yH3+EcyBMKPzCGQ1Ho/VODAnrXbcwsCZY2X5Jkg76YZqAVv8JFRZacyhIEOXqSfzfEYQxgkE8Qb2HHdh3cv/hOKKh1BccxdW1S9FvjMTRQ2L8R81GSjavgjL6ubC0UB3NqUp00NCXf9kMKvGZwVnek9YYP6AO3TRFltgtsBsgXmS6kXP41DE9L6nzVa6qFHnleAN3Sg3bvskA1fYreBMKBsNWW+QvOK4faivPJaKIoxFYggFA4gywQ+CGMVRnEA7PK+sxONVj8C++W4UO++CvS4XdGejDJHnWYDHXLnI8+Rgubi0zccy5xzYvRkCaSVVGDDnIt+9QA+cVn7IZ/vwnGg9y2Ke8Kae1UwLzBaYLTBPWFWUD/CZFq8J/KD1qzP5EK5Jn2TWmmllISfpx2aB3o3anDPNOsrKFskiwlSYytKOxlSioBEcxmtjO7HW8z2s2vplFGxbgOIGRtplYXndfAn4yHNn4DFnNgoalmCZOwfLXJmwSyBIJvJcc8UbozDeE7uCc76bQDaDBeak2/qhT1pgtsBsgXnCakdQJssPCpYJUP8qmA1vx4/P2L3Zrdkdc2qoTgHFSzoaG5Xcx8w4Z9zlwlGVeJ69BY7idTQfWoPVFb+N4uovwl67FIy0y/NmIM+TKT7C+W6GP2eK9ZvnXog8gW2OrEd4Gzc144EhlrNsm4F873zkeecizyaj5qkAACAASURBVDsPdq8KEpFtPIzmI8C1b3LStJk3fnwuFnOBMweOmqXY4P9rhHDEcpc7o9BcpC+moI7X1kxDCw9rBZgox37lhK8q2PiCPl2/XwqNWZXVycCsSzRHSR9TzsePk1ZJ7JbGt3HzEL+PMdGN2ekUJZSwihiRBPPMazwi2dz2oNxXgMKSB/GE+/Ow1y0QUBLIywlmL32FNZxdBChhrAblcUHfYQZ2ZIMBHYXaV5kBJarczUO+QHmOwPlig7mQsCfovTwn5ce8sfVvLDADsCxmy2KOW0EfVfBfWjAb09aM464RZ/B2/JdkOJ9hkCQv4LR4WJxGKHJKW8pMhqT6u2OE9fDoKQRxBG9hB56q+R04tizG4w13I49Jgdxzke+Zp6xkTxbyPSaIg37JtHYZMELXN445ZMJOGMfBrCBNWPPeK6ibfbDhL2ExT1Q2aEEnW9FmHbHWabHLOdH9Th1fnZ+x6hWUCWauR4u5qPYOy2LWBckCswVmC8zjqRr/TnIaIHNsqBpf4X0maPfSg8Jsb7Y1+2QDInvyGJUePdigxyg+rs289eyeir2EMFik960SPF7xm3BUZ6DI+zkU7ZiH5e7ZYt0SdhLeTEtYQEpg01omEOeh0D1XclEkAG2CRxKShgIqgZkYDGQvZHw2YJaMdElgNpF/dEk84/VCN6O+zwX/WC2ywGyB2QLzpFXaQNRAgt/P9jPRtoJdATFAIKs0oeEIG/UUwo3vRginMYY9cA2uwONbHsLK2kUoFt33FvxbzSdRsJ3Wcg7yXQt1zolk0BprmWBWAyEtcPbMh90zLz7EXeM880XOUEAnvD84sCRuGYt1ntCejSX9QWA2UgbXK5QgmDsti1kXLwvMFpgtME/KWgNXjs8Fytxh8rZmc86jsEwgM6eFChIxa46FmHBoDEEcx2nsxpbu5Xii9mso3JqLYlrGrttQ4J2NgobbkO+dozwomDrTzQxuCTCrJERGvkhIGSqAhEEkhDDTb2o5xD1Xpgs9mSqVpzMDDrHAPxjO72dRvx+Y81xZIJiNxWzAbCxmtj8lrqF5ME56oz52CywwW2C2wDxptTZw4PgsP2YTWV1vx5FhiyynCxwHxZ7hU0pTDiMg3SwF0IuX6v9WegFZVr0YTCbvYHpMwoweF0yf6aIWrPRZA0A24FHPZbpODgmrl4ElbARUvsr00qBvc4E3BwQkLV+6zjkYxOPMkKGIunOSJWysYwNifjeWcbLObNaT8SQas6QJNUmSXCplKBv/mPOZYGbSfkoZZ3Ycq6/lWd6Gy301C8wWmC0wT1qLNTknXT7BgvGbmO8EcxzOOl8yM9YxQ2cMGAlRTz6GY/Bjw/a/waqKB5G/bTEKvIvgqL8Ly2sXoNCVixX1C7Fs23w4vAu0J8V85OlGvwLJ5EYoZ4nXBbXnZCDnMy+yDDqARKSQTIE8wczB7syUrHMOgvwMMNMFTzUIipbNaS5nhjonPTwWoNC5EA7XEjhcd8DhvBOFdWpw1N0BR90SFDqXwO5cjAJmtqtbhCLXYhTW5coDp8iVi1V1d2JDyw8EzKqHFwNncxEnuN4f01kWmC0wW2C+iJVb8g9prsSTwTGUJMJcy4rVoxF28nQKJ9GL5xv/FvaK+1HkvEO5u3kI14UocC3UjXz0qjBJh7KULiz5LQhNRv1Rc+ZYW8geApxApmsdg1C4La1phmTPxcqXs7Gs7jb8R82tKKxXXhh5su0C5HmykceGOW82CrxZkuh+ee0cFDjnoZgeGXUZKHLmSs8mxbV3wVF9L+yb74eDmnj1w1hR+QhWbf4trK76TRRv/iqKNn8ZxVUPYsXWB7Bi6xfweC3Hd+Jx1wKsqs1E8ZZcvNj4XTCAJkA/bukMgFdp+n0sMFtgtsB8keq96euVqTrDYRVaHWaqOlEwohgLn0YIp3A8eghvoxPP7PgBnnA9jMK6pchzUqqYrwaxfLPj2rDySSZg6eZGH2QmHqIFu0B6BYlniqNFLOsYkBstmpIHGwDnYHndrch3346i7TpPhjcbRdsXQ8GZ2+WiwLkQ+bVLUFh7D1bUfRHFW78Ee8UDeLLut/FT7//A803fQ0X3P8G1x4HGwz9B1/EXMHS6HK+GnDgwVou9p6uwb6wKr8ZqcDC6Bb0nn0PT4afQsO8JlPr/AWvd/wNPVf0Gntr8CMqb/h2n8Abo1R2hR7e5iBfpHn1Ud2uB2QKzBeaLVDspUSh7bwzRKHsRDEjjHx3pgtExhHEKp7EX63b8E9b5v4OVW+/HssosrPSyjzwFXAZ8KPDOVQ1/zPwmHhPG+jXApsVsAMy++ObB4Ul4ZVCbNj7MSnvOVH3v0UODjYBMlu/MwPLauVhWM1sy0BXUZMG+dTGKtn4Bq7b+Fp6q/XO81PgYml/bhNfDHRjGaxjBmwjgLT1w+giCOCpdWLEbqwiOS/a7IN7FGI4hgHcQlM5fjyGIYbBH7DDewSj24/DxXTj4ZhPCsTHIc0xcxi2L+SIVz3gbh25lTVxoK/Lvhyhy3gWHk/qhFflnGpbGj6Vx60POLjcVlYElnRBWXhjsRVD5LDO0mr1TE0brX/43cYdzVOXCUZeFFd5sONjJqUt5TjCARNJw0hvDe5tOx8mGOQNmyhlch9ngtBeFZ65Yww7XXMnB7HDNl8ZARvslZBCVaS7PNU+05fzaDBS5FuGJhnulEc5RdQ+erHkYz+z4Ntx7i7EvWC09aI/iDZzGcYyK94jyMTHSeeKa8TdHEY3n+VB9EkbYT6I8rNRVoTEcCQMhPq+4E9VXjJqOR0Um9jqdpiyL2bKYExXaVOyP2PjyBLMKMGHHrApfHEcQjY0hIiHWB1Db58ATW78Kx7ZFKKRuW5+BQvccFNTdpoNCDGhNjuTbNYCpIVMzNtayzp+s3eAKPLcLmAvrMlFUt0B6ti50LpDoOnaKSnnC7smV8OwiT45Au6g2B084P4+Vmx/Ef1b9EZx9P8KRYBOGsVdCpENi6dL6HZGOUrXQoFipOKyAaho5SWDz2yUJE7+reTGMIhIdRTjMRlANZQlRZ0toAMpcnk4Y/tXfaoHZArMF5l+tFxc8h65eUYTA4BHCh2k71bwRyaHcMPRzPFn9m1hZt1Qs5HzXbchz3Y7CelrLc+Ggh4VYxbSMTQJ7NtjR15haMsFMuYMSB4FNOFPO4Lq0mOeJdwWB7JAGQW7DBPkqJNvBxsCaHBTX3oEfOR/A6s0P4Rd1fwr/62twCl0I4TDYq7bpu4WZ7qLS16Amb7x3WBJVazaGvWYcz5YXky6xpFsssNFzTA9UkRWvFbu5b8ajRxBL7r7rgu/G5bcDC8wWmC0wT3G9VRKdylIUCYcQiyqXuGAsIN0/db9ZgicqvoGC8qUiXxR55yPfPQf2euaeyEWeU0XCiSeGAJiWMz0m2NiXi3zXIuWTzMZBBpp4b5ecGaIxC8zV+ib3RZ57HvLcSqumNwaljaK6XDzhvA/F5V/G2rrvo+uNCgTwOsJ4F7SOo3hPaeKxkOp1WzIu0cJlIyZbMM98E1Dh51qiSBItkwxiUSsUemMIxtg7DF0EGYZO+5uQ5sAYSMX6Kb4tl9XuLDBbYLbAPMVVVjwJmFA/EhJrmQ1ZRA4bvo5Em/GTrX+ClVVfxErnHSIjFLhmo7BeJyOSZPWLBL7KRY4Ws5Y0xB2Oyezp/pajPDa8DM0m2NnjNd3qFmn9OQv59RlY5pmDZe7ZyPPcjkJPBorduVhRuwQrq+7HU1u/ia63nsco9oGNc4HIKCJiqYYRCY3ozl6N+ZuMWP4aBWcFUwVUAlb96fByashMa5pQK+S7EnXENtZgJpzZd2EYwQiz6wERyZUxxTfmMtqdBWYLzEkV3wDgozW+XDVmZSrTGqQgMIx34Mca77exquZ+FNUuRLFzMRzObDjcs2H33CoSxHJ3Fpa5FmGZa7FYxUquUA2Bxk1OIvjoY0xfZC/vFTXnRSj03AG7ewny67JgZ9RdfQYedc5GQT0b+DKxyrsIK7fdg1UVvwHP0OMYxoB4UyjdOCj6tzRUxsbEKqZMbKBqUvirlP1qfgLZakrh2GzBeeZDcFPC4FjJykb9UMeglazgrixm9gZOfCfvw+xreowtMFtgtsB8kep6THy++MIewGm8ioqef0fR1vvAKLdC93wUMjm8i2CmNas8LphbeZlnEZZ5FiOfuSSoG1NHFq8LFQCiQrCzYK/Pgd27APnORSioW4z8uoXIr8uGgxF8EkCSiUIvNeZFWFF3N+xl92J98/dxJOZBEIcQxEmxcPnzRX6J9wdOa1g9UJKBbKYNegWqkuifGrLqoFaFUWt8c0VhK79zn0GlIcfpbJbLGSTdBXMEC8xJF2XqJ8190M/K+AEsdznLXS7xmj65lX55WswKOlEEcCJ2EH0nK1G45UtYXpOJ5c7b4WhQyYUKXcxtMR8OJhLyUC+eh2XebCzz5iowa39mBWfjQsfAk0zRou3uRVi+bYGEOq/YvlDSfNrdt0Fc5Wpz4ai+AyurHsDjlb+Dnfv+C6cxgDCOIRQbUdGHmqG0YAlaA181e2LNOFGf41V53IQ4ICfMbdlApzml1wVFd7MTMzYsNmOuM40/lsVsWcyWxTzFAKDBEY2pBq0xvIO34MOqim/AUXsXChuyUNAwH4+5ZkskX6FOOCS+yzrx/XJvJvIIZgmhNi5x2ldZEuNTjyaY6Ze8CIUu5qDIgd01R1nfzjlY5VyMlZu/gJ9s/SYGh1/A7hPVCErj3nsIiX+x6kpQvEUiytqlHkwBgbZtSNhKahpSGmTzO+czrJyWsnbKULP0leTGE8BXGg25d+4ryZMjedqAWh9jim/NZbM7C8wWmC0wn2d1TX7jM7sw89iQRQFjBAfw4s4fSFSfvW4hlrsI5bnIF21YBXww6RCzwVHeEHc3bzbymeNCGvOYI4NvE5Q0OBi9OQsO72Isr8lGsXchCp3zUVB3K1bVZ6GoZgmKKx/C+h3/hHfRhtM4hDF6W8RUwxqZGQ4quYJeFrFoCLGY0n+JXdM4Jya0kNd4Ygiy9RoJi9awNDGmpR2RfRLQwmhZnf8UlNV1MhKKSll05vZcl3Om58cCswVmC8znWfcNhCcahyU27ih8r7+AJ6q/ihW1C/HY1rlwbM/FMhc7TmXkHRvtmF0tR6X0lFSdKl0n3eYmBzP9lemFsQB5tdSoCfZ5WOGZD8e2hVi19RFUdhXiBPolHDqCIMZChK9mnUCSX+j+Rne+IGK6A8JojEhVsoaYw2yEMy5ykqqU6UqV1Us9Wflm0xeDjXvUkBnGx1zTdLd7F8BxAMN6OAGAwynEYlxHPQK4XSQWFE+MSDSGSJQd0RLsKlcGx9PtY4HZArMF5vOo9cnQmGg6jBN4Pbwd/+X8Foqr7sVK10Ks2J6NZc7Z4q/MXMh0eVMeFbkSKq1kDZNPmak0KU/Qd5lWspEyEhZzXm2WWMsr6rPgcM6DfWsmVm57CFWD/4njYiW/p7qnigalkY92bIB5RslnwzqxaOnWpwHMGGm6zDEfcpSwVQOFGWUFR0F4y0B4ClwJY8KXID4C4BCA3QB6AHQDGAQwgBi6EJN5+2S9WOyY3o7h6txHkhuIlqnNtT2PW3RZb2KB2QKzBeZJq7AxMQ3FFDvk1VwYor12STkZaEHSJ3cMY3gV1f15KKi4Dyvq7hT/4XznHDgamDUuU2V9k+xvOkRaW80myT3lDUJZerVmAiLpVJUNhqrRkG50yqqmtZyBlXXUlB9Eda8dJ3AAoxhRDmhR4jiKsIYzHdMCwdCZIgF/kGjJWrKQXKUEcEgsYUJZWcSM2KMl/DaAVwG8ouHbgnDUi+HRSrz97nN49fD/w95DRejb88/o2/uPGNj3r+jf+y/o3/uPGDzwKA4cfhxvvL1G1g+GPQB8APoAHARi7wCMMDSXdJpazRaYLTBbYJ4QzIQxX7VpMWq9k7M0w+jBEEIEY7GAQC7Krq0FcCMI4E3sHa7Diuqvosi9FPm11INzkFc3F46GbMlrfKY3iuqlWnUPRSkjIWcsr8uCw7MQBXVZKBbJgpBWnabmNWRhOdetzcbj1V+Gu/s/EcRrCOEkQtLJqzknWrZKojD6sVJ1+Y2BMECEvb/qxjlCmI8c8SmORcDoRWXRvqOtXydODP8Yrxz8Ltp6v4amjrvR0nUHfB2L0dy+AC0dufB1ZsPXNR++rjlo6Zqthzkyr7krC01dOWjszEJjxyK0dHwJr+z7Cxx/78c4PVoL4BhGR0dFyjBueBPeoo/xTAvMFpgtME9YwQ2YaV0meRFoMEeiRBVDioMI8/VfoB3BWIgpMPfhpV3/gKKa+1S3TYSyk6k4CWU1PhPM7+MqKBnhFsJel4uV9bniWqfAnIVHnfOQV7cQP3L9Orb1LkMIh8AEQfIwodUbb3UjltUzhb9ENGQBL/NfhJFI4E8rmb11B/nI0Xrwm8qSRSdOvFeCoT3/Dn/n19HYthRdu7PQ0nsDfD2z0NY/E+39M9DWNwMdA7NkaO3j9zS099n0kIq2vnT4+9PRMpCG1qFUtA7MQHPntWhqux2t3V/BwN5HEcV+9cBgvhHpYopnP70+FpgtMFtgnrTOK5yJtjoOzrSYVRBxQGAmlmeUzWxvo/etTVhR/jActXcKiB31uVheNx8cL6udh0Iv5YvJYayWsYFvrkTsSTIjRgjWZ0iiI0oh1KaLPXegqPpL2NTy7xjFEII4gkD0JMIR+gzrhj7+BM01FVVHa5j2staM5RVAuc5xvWg4gphYyCcRCncihjocPbECLT2/g5c7FqCp7zY09X4SrYM3wt9/LZq7Z6KlNxWt/SloHbDJ0DaQgtb+NCgwz0R77wy096ajvS8Vbf0p8A+koGUgBb5+G/xcr/8K+Lo/iaaubPTs+UtEMCCPD2lYtMA8aem84AWJspGY4k6ThX0+n9l08Ms9h3Hz8y6klPphK5uqoQW2shaklLbq/fpgK2vW8/xI3eRHakkrUsr9uPlFN9buflPyavEFbmo+rCXa6uIOpVIfxTq/FWDywYDSHY5ewnzMCmjKzpTyoIMxaC0Ho2y4oiZKyzokiYDWOL8Lx5b7UOhcJFYyfyOtZdOHnhm/329np6oF9EtmsnvJ1Z2F5ZL34naV7KhuMQor7seGpr+XHrWZfD6EE6Jv05pnGTuztvHMjdeEegvg7wqGOY9rRhENsxZSQz6I4eFtOHbyx2hq/200tOTA138LmgZnwr/HBv9uG5p7bWgbSEdrXzpa+1Ph77OhRQ9+ArfPhtZ+LieYFZzbBMw2+AdsaBmwCZh9XG+QUL8aLf2zsfu1vxC5JBINKI8PC8xTg6CJ9pIoIIkprmeB2QLz+8HJLLtkkX8srloCoOKqLGc1U1nMAQEhH7rMLxzAMfQeqcLqqq/BUUdPi2yxjilf0Eo247MFcyEzwjlvl9zM7I/vPwjmepUfI3/LnVhT+z0cGWnSkXyj8liQnvLYyWvIqMTGc8LoxPR+IIwjCEVMI2AUkQgfMDSNunHs5Aq0938Fzd1zsavrBrT0Xw9f/5Xw9aWhpd8GX48N7YNpSqYgfPvT0NJrk4FWs4C3n2BOFXBTvqCk0daXoizmfmUx+wdTZH+tQzb4+lKxs+tT6D/wp+LBwYZH5Y43PbuXsqQMS8o4i9fqD3rtvrjLLymYtQdXQpelOUqjgqhmwEZAcg2HooluolbU3it96jFxEB8uySCm5Tx+nnkAJY+pIxfXswfqOShwMefyfDzmnYfHPFlYXrMIT2z9bRwe2SHdMqlYPRFTEBQfYPXwUIIFPSsIYyYmUkBWarNaR/ke09f4IMLhBuzZ92/Y1bYY/oEbBZrNfQq0bYPpaBuYgY7BWWin/NBrg5+AFskiHX6Clxb0QFoczH7KG/3UlRODWNcE+UAq/IPKcm4bogSSDl/fzRg89OcAhkT7tsAsRe3i/WMRMMXATKnCnXgaWlKG1bVUMpiSpy8pmLXFTDArOCv3M5X2cgyhMAMluOwUDo3W4D+3/haWb82SNJt2rwKzkTGSx8m/b6JpemhI7yKiRWdiuXseHvPOxXLXQqyqfQSe3T/GKA4rz5FISDwn+MgIa9c3Qi1xzuoBoiL54j9EfJXpAQH04t3htWjt/bp4SnQM3YSmbiVPdO1OR2tvGlq609DePwv+nlT4um1oo0XcZ0PHYIqWNGaifeBKtPbPgq9X6cjUkgln6sqEc2tfmmjKLQNs/EtF625ayjb4em1o7p4BX8/tGDr4Xe2Gp4JXkt+qLx6hPnp7tixmy2K2LOZJ62XCnEhAjqaFspZVX360SDn1Jqq6/hWOqjuUrtzAREPKA4NANpaygfD472a+GUuHqXWZKPYuQIGHgSncXxYcdffjuZf/DsPYrTwwxONNnV1Ewqp5zmHpb49aMwcJEqFPHE80/kO44VEAbTj89uNo6nwYu7puQ3PflQLWjiFawKlo6bahtTcd3buvEkDTSu5+hdqxATO15jSxmNsHrpAGP4K5bSgdflrFtJjFamYjnwFzGnxsABxU1ng75Y/eq9HSOxcD+76jXfIsME9aLKdqgWUxmxqhKjpfH8KwGv8MhD5ofGksZt4r3jdCOME0zqHNrCzmECLS2/UYjmMAP9r6MPKqmbg+E3n1bLRUFvMH/b6JlotPsysLy2rmSnrPou1LYK9ZglVbHsHrYzsl1FpkCOmTifoxZQrCNjGoHBhRhMNRhCUrEf2VdasgjiKKGux77e/Q2HE3mrpvRWs/PS1mSsMdwdzSR7DSvS1V5AnjdSE6cr8NbYPKC4PfZVo3+rHhj9uY7elC194/UyxrWtD0yGiWBkBlWbfzAdBzFXw9szF0kI1/A9qnWteXqQLRZbQfy2K2LGbLYp6wwiZwrCxkg2klxjHCLxKmRDCGAN5G44FnUcxcy+w1xJWBfIZcey5Ee1eBJg6vSojvcC+FvfyL8Aytlv74orFReTiokGgDZo4JZmMWK1iHAvRpBsIMIhGAv4lguB79e7+L9oG70Nz9a/D3XaF8kQfT0T6Uglbqv/Q37p8hsgO9KNioZ4Y4jLWLnIG2QFk8Mgh1WshKCvH3pKgGwn6bWMo+0ZeVRd1Oi7v3ajT33IrBA9SY+8XThYmVpuvHArMFZgvME9b+BJjZuGbgbGw4argSlYZhnMYQ1nr/D+zb7kDxDgKZMFWNfBNZw2c3LxOOegakzBH/ZfvWO/Dz2u9KPuUIGIHH/BcMBKGUonySBcqEmQ4PZwhMNHRaQTlI32YlX4RRi/59f4md7Vnw9dyAtv4rdSOesnzZGKdAPBO+/pnwsWGuX/sdazgT3AJj8b6gB4bWko2eHLeYU0CpomPIhnY28nHfg8pVrqVPNQ52DBow34bBA99WFjMjLiVJkrniE96kj+1MC8wWmC0wT1K9KVgo65OWKOGnrGWuzkYpfmgtvxZ1YmXVw7A7l2KZcx4K6xcgz3n+MoYCN3vAVnkxVtUvQn7pfeh7u1LCvSV7W4xgDmgwqzOVcxUw6xONskmd2eAoNNN6PoEYWvHaO/+MHR1ZaB38NdF92/tT0TlALVjpxsrPOBVspPMNzBAwM1KPEoQ06Bk4J0F5IjDTQ4M+yvRrbpVgElrhGvqEMd3p+lMQB3P3bAweoJQxpK63BeZJSuYUzU4U6MQUd53c4mp5ZVheGZNZkpdCY2ZJNXpyQhpIVAiWXVqqY3gdDQdXwlF9HwrcS/AfdfNR3MBcyiqnxWS/6YPnZ+Kx2tlYvWMpCrfciRcbv49hvIKopNQMIhZVPtS0mJngXj0m+OpvwsP5A7TeHGavIfRRHsJrR1ajqWcpWgavh39gpvgksyGvczANHQPKN9nfOwMtfZQwFIwJZHFvE715Bvx9MyVwRAJIkiL+Eha0soSN7EH9uY2SB6P+aEmLVwbd6rieDe3cv2jMczF04HvKK4MNmRrM5iGYuPof/ynLYrYsZstinqCeGzATzoI9sZAV/mSOuKNRXz6ItTv+DPbaJchjcvuGBbCzq6gpALMkx9+2CE9UP4KON55DGG+JfBGO0C+ZFjyt5qTwa9GWKQHQDZXecPTEYO4M5kAewMlTz6C5nd4XvyZ5KuimRk2YIdSEIwEtgSD9V8Dfy0ZAWshKV26lRS2RfjMEyoQ3o/ricI5bzwbAKnhEdOa+K9HWdy1ae6+Gn14ffTPQTPc5WtT9PHYq/D1XK3e5A3SX2y0x4haYJyiYUzmLxVkV6cSUKtyWH3OR8y44nAt02C1fX3VayAtqOLqQRqeP3raX1mLWhVeKrrZI6ZUh6T1HcDTUhtVbHwH73mPwR8H2bBQ456LIRRniQuWMbBTX3o9n3D/AGIZUhF9kFBE5toKvdhwR856RiSoznModpwSO9zA80oIoStEx8Bto6f0c2gev0xLGDLQzaERc25Q/Ma3ejgGVjCg5Wo8yR2KgXzJ1YcKZLnJX6mGWBKEQ9AR66yCliqvR2nMLWjtno7XrFvh7PomW/ivEGpeGwb50SX7kF4v5Fgwd+DPlLieSDF3mEoyYSiZ91PdlWcyWxWxZzBPUUnJYSRlJYDauaCJjBMD8FG1vbMSK6odg9yzAY+75eJQdrbInEdd8FEoeZabo1Pk+xH1Op/TU+S+YVzkxMHGR7p3ErRLlF1c9iLbXNyCIoxLEQqmCIkqYDso8waSBIJaQbG1Nq7wXr2D3/tXY98Z3sLPjM/AxPLqfGeCYDW6m8k0+wzKmBa1CqRmNR99jBoe096WggwElJlMcPTb6ZqKl7xq09twIf9dnVGrP7vnwdWeiuSsbjR0L0NrzAPp3/zH27P8e9u7/Nvp2fx3+vs9jZ0cumjoXwteVibbez8HffROau2/HwH6CeSieGc8C8wSFc6pmJezkxBT3nXzRLY3Z0pgn010vhcUs5ZPcY5GVDye0G5r4oZ/GaezHhvZHkVd5t/QkYq/PxnLXXBTWMwHR3HiKzuWeHCzz5mC5V/XZ53Blw+HMgcPDLHMqt7L05eee8E5QbQAAIABJREFUA7t3vvgt5zuzUVSbI5GEJ7FXcj+HmECeftXsOSSi8ijzVZSyRTii7GOeZSjM82SPIntw/Piz2O77sgSP+AevUdJEbyo6GVpNa1VyWNCyTfgkUwdmo9+uwTTsYsPg7ivQ3GrD4NAs9PWno63Lhq7dV8O/+xrs6rkOrd23oq1zKZpbH0H/7v+LI2//FKFYnU6A36kb8/YCYM8lbNjrQBS78M7wJux91Y7O3q/D134XdrTmon+/jvzjhecDMKq8X8xdmC5jy2K2LGbLYp6ktifMCE7RNCXwVPKMEE7hHXTgJw1/jsKae+CQ/vtUh6n50mHqPOmHj1Yzofwf9TmSgIjLHISu9GrNPBpKuirwMkpwrqT6zKMVXbcQK6rvhGv3cpzGUem5OszXepNnmVnXaDWzuY+Q5tnRiOaEfHsDgBdtHX+E5u55aO67QrK5de5hRF8afF3MkUxLmHks0iRsOu6L3E9vjFlo3nMlXuY6A1egd+AKdHCbzhT07v4kXm67ES93ZqKl/0s4fPQvcfjIowC2AGgF8Bpi0WMAfa2jIYSYt5oNeTxduXyc8x4CUeZ6Zi8otTgx/AR69/4VBvbbEYu9JuvRcLPAPEnhnIrZZxZwKTmyW8titrLLTWYlJ8+/lBazKq38bzQDA+aTOAQv7JWPYKX787A7s5DPLHJiNbN/Pi1nuDJBi/kxbTGfAWZay+yYlSD28o1pHvKdc+W7w3k3VlU+jMNRF0ZxTEQU5otjUIt0OcL++KQLqJhozuIjIiky+fCga9wgjh5bjibmUO79BPxD6Wh/JU1yU3TunqnDpE1yISVXiNVMy7lvljTS7exKQ+eea+HvTEX3wCxpHGzpn4Wmnlvg63kQr7+1ElHs0H7HBxGIMcH9O4iEjgM8Nx3rQjQzRSplFjbo8fwlKlH8w4cRk34CDyCIbpwOsoupEYyNMe2nBeap4O+k+7DAnGRt8SpZIdnnZKVfajAr7wADZnX/gngXnSfWI7/yQaxw3x3PmUxpgr7M1IrpmcEOVpcz14U3W6QM5s8wUobkXPYQzFnIE82ZLnYZko2uqPYLWOP6PsawDyM4IWEk9MAIh5RHBl3h2PuICnyJICLdQvEcxxCNHEUM29HY/gA6dn8W2zts8NG7YtCGlztU3mTJ+qZzWJi0nAkws1FvFtoGZ6Gpw4aewSvQ1GZD2ys3oLHvdjT3PIwToz9HRDpafQ+RSAi05umjwj5douzRhadCMDNfh9jMY9IwKWYzO3uNUKKIIRSOSopSxYgQgpHTiWAeC8yTMnVKFlhgtsCcbAGf6/SlArMp/OrNjveQJVmNGFhSt2cliuu+hIJtuSjyZEPCp53zpU+/QiYccmUKmPM8WVjmzUIeNWZ3ptKXndkocM2D3ZuB5W4mKVKJjrhdgSsLjqoH0DD0NMbwDgLSsWpEdY4aocWsJI1kMIfEhY7nyET3u/HmsR+jqSsD7a/MAvMetw6pyL2uvTMl6IP5lE0vI+xphJnfEl4XygODmeM6h1LR3stERtdhe3sGeg98B6GYG8BhRPEeqHvzqCooPIrT0TFpeoxqWYX2OyMUmR5VeuIWS5rWtE6qRAM6DMiLgMgx1MqjCIXHxLq2pAxTCi/C2AKzBeZzhXHy+pcKzDq4L6mRWoNZ7NIjeK7pB1jluR/Lq+ehyJsFQpXJ8Jl/uZCgdmaJJc1kRsu9mcjznAnmvLrbQW2ZYF7uyoXdu0B6xWbnrSurvoojoXaMxYaVBMCHguSOiAvJiDAsnLnjoqpHEpEP8BaAnfB3/0/4em5CU4/qIUTSa9KjYne69D7C3kaUu9oMtPZzUJF/DASRgZF6vUzrmY6O/mvQ2H47evYyKq8BkGPQA0QBeSSkMnaMRdk9rU76xM5q+WYooeuUXUIq4IVgZuBLNIrIaFDtQD/zOAqEQ4iy9xLpwSRiacwXgcfxXVpgtsCcDNpznb5UYI4XYBrJtFK1zczp0ziIJ2u/gULnQtipLRO6lC6YvMiVhUJ3jrKMXcyZoaBMGYPTha4ckTPyXQTzfCx35yDPvRB270Lk1+Wg2LkEP/f+EQI4RPFCHdc8EwyfEz4iCFIa4EcaAw/h5MhPsL1lqeTB6BiaIb7FfrrI0buiR2V+Y+J7lTlOdQ1FGUMs5gFG4ul8y/2paOq8Ci1dczC091vay+ItxEInEIsGEYixj0OKJ8y1p7RjBAOiL9PSjURj4i1CZSMSpj8yoU2lmWvrCEWqGuGwdAAbBl0Qh6XRUELIYxaYk8vglE+bAq1eBU0J04VdmyWWu5zlLjcZsD9aYGZjWwjD2IMVW34dj22bg5U7cmF3z8fy2rlYsWMRltdlwE74OnMFzoQxoZwM5kL2fu1hitB5AuZ8zyLYvYuQX5OLJzz3Y6P/rxHE67rRUUdX64pEo5OTfNyHojGVc1lmUNQdwMD+b8PXO1si7VTvIUozloCQgZmqZ+o+HWZtgkE0jAnndg1p+im39c9Da+fvAKgG8CZiIVq+qo9DPjII5tORMYwFR5QmMTaqZApdzcMxYCwCBKK0nqk3R1VTYIwpU3WQDMWO6BiCGENYevkOAKFReUOwpIwpx3Fih7o8GXsjvkBpd+oOWmC2wPxRAzMbp/hhOeWH9p7K5BbEa8PNWFH9ZfGkKKrPFG8KI2XY6Z/MXq2duRAAM2jEoxLn8zcS2uwPkL1gGymjwLsYy+lCV7sEK7d+Af43n0IYb2gPDOUJIiSmYarVDIJZYMcJnmL0lMgYTZ33obnvKpEn2k2YteS3oLfFLNB6lh5Ehmxg11Edr6icFX5xnUtHJztd7Z0B/8An0Nx5D8ZGyoAoz4U6MRAJMMw7jNFIAEEKxLR/x0Z0Z65RhIPUwCFSy+koHQshw5g5b1rTkTDGIvTUSDxgCG/5LgK1ivojmM31l5swTf5ZfsyWH/M5eUhMBs+LOf9SW8yEAz/CPoQRxin0HN6M4uovIN89Bw5vBvKd82BnhB/1ZS8taEbuGTDP12DORH4SmGllm8Y/asx5hHntnVi95as4GNiMCN5WYKa2LLBSFFNgpiigdF5a0GLF4k0MD6+T7qF8tHopS3DMTlDZm3UfXd4IZvYuolNwSug0PTXYRZTKkdHGLqR6P4HmrgwcOPx/xdc4FtLSAy+CaN1KTRb3tyC1ihhCoTGMICY9zFPpPqRDSuoDMdS9F0bTMNATgDjH0YOZ65xkKExQ6dLhKBDSbwNyGO2VYYH5Ij2N5CLHiza/qY9lMVt+zGcD9EsNZpZWllqCkB4GURxH68GXJDF+vvt22ClTMGmRzm+iuo3KjlvGAmDPPCVnSB9+OQJuemXQks6jO52LUM9GUc09eHLz72MEnYjRzpTqohPgJyqSEDqeM4PPjQgj/YZw8NU8NHbOFvAmN+SpPvd0Q59OTET3OUmI35cCX2862geZSIhh1ulo6b4FHd1/iAhqEMERdlaFkQDfaylyGzmD2URJU7pOKw2ewO0B8NP3xvDQNi9mP1eOOevqMPsFF+Y950HG09twx3OV+Oee3fABItYM0woPUms2Dz8gGAkhaoHZoPLijBPlKTElhT0pQYklZVhSxmSQvlRgTjYcWHJD7IEadAc7ih2DP0XxtvtQ4JkbBzLPn4AWTdnFHBgMuc4W/dluwCzw5vwcFEiiowwJLmGQicObA0f1vVhb938QxD7pHUWBmUou3eT0E0ImwohIjmVqG5zPtJ5N6Oj9X2jqulmAy0g+42FB7biVVjNzINNKJpw5j0nre9Pg650F/8CVaO6dIdnfmjoz8cabT4rNG8BxjCIozZCUIJiFGrExBKgni54CBAIMLQGaAXzh+VLc+uIWfKK0HldUNiFl0y6kl7Xh6s29mLWxGVetq8PNL1ZiyTMv4an9h7FHB5DTi4Of0eCoyvmhOyOwLGZ1Xab8f7w8JUqWHCO54FtgtsD8UQOzLqRqpLXQCEbFW6Ks8TEU134eBdITNvViwpaZ+TITwE0GM6P6TOZAmU8wq3WpM+e556G4IQf2zfdgs78QIRyRZjJVGcdbzKQhLUoCW/dYIgJBFZrafgO+ns/qlJoqEb0JHJGGQPYwooGt4Mwun2aipf9K+PrT0UyZY/BaNHffh0CErnGnEMSINNixHkvwiAgWp8VjRLoQjChZYu3bUWQ+U41PP+fBdet24ZpNfqSua8TMyjbYNvlgW+/DrPI2zCrZgV+r3oXrN1Zj7rpK/Hv/IXRpOI+MDIvHBrV8OgNaGrMqARflvwVmedc05o5YOFZnrGefXvRSWcxiR5gGwDiYTyOI/Sht/FcU1XxeMsdRG2Z2OVrHbACkdEH3uXx3tgyM5mO4tWoApIdGDvLdSs6gNp3nnoM892zRqu2V96Jx77MI4pgAShmRLD+6AVBm8B99Ivjurwe8itHQM9jVdj98vZ8WzwvxU+5nIInqQUR5aLALKOUOxxzMfqbvpO48cAWa+mxoHuD0Tejb94fS9x7d2sISIEK3CnMatGhpQ4cknKV/DHDGgPnP1uLql3bgmvJ2pG9sxTWl3Uh9yYf0cj9s5S2wlbYhbXMX0kqbkbJpB2xlDbim3IvbX6zGsv5DeFX7RY9F6J1BycgC80UBstmpBWYLzJNZw2cz/5KBWTKcqVJMvZPBEmz4C2MvNvsfRVHN/ch35yKvLheFnkXKf5mpPZlhzksvDJXuU0CdBOY8AbNqIKTvc57nduS5b0Ohew5WVH8R3Yc3y3FUxJxCs3pI6KdDHM7aqZneEtiPt46vkh6vfb03ws8OTvtnqCAS9jIijYDpkrCInhrKWyNdeV+Il0YaWoZS0NR3FZp7MvHWCSYlGkI0zE5fIwgzUo+NjDTSxRtEdbV1EMBXS7Zg7pYG3FC6E1eUNcNWsh0p5U24oqwDM0toLe+EraIZtqou2Mo6kLKpDTM2tcJW2oK0TY245kUvFj+/FS8HgeMC5xiCPK4lZaiLfbH+W2C2wHw2AJ5snUsGZl1wKblFmH5S7NRhBDCADTv/TkkZnlwsFzAvFjDbPXSdmyNWcwLMzMFsMs8x2CRbBjs9NNyZ4plB7w67aw5W1zyI3je2iUWqwGw0ZA1lbTyruko/YEbRUQjcjUNv/guaexaiufc6+NkriPRSTUCrrp6oMdM7g7mVOagcGaqxj52ttu5JQ2Pf9djVfg+CkacBHJBfrOILtTlLODOqT7vA1Zwcw00vliF1yw7MqmyFbVMTUqqaMWObH7Z1OzGroh1pm5thK98F25ZO2Cq7YdvYgfRNHbBtakcareuSZnz62W34oadZjjgiP45ucpbFfLGYLPu1wGyBeTLons38SwpmcoiA0K5p9MoNYQA/2/onKKy9Q/Jf5LsXIN+9UMka7vmSwEiAK5ozJRvVY7b0aMKkRR7CWcOa3hwMx+bgno+i6i/iwPAOCbRQgc60ihUM42Ndq2jJis4cpcU8hKFDf4Fd3bfC13uVwFh1C8V+9ghnE+lHaYPh1yqzXDut5Z50lbCo34amvk+hueN3AbjEoY0PJQZ8axVDNfZFIGEgzK78RxUu3LTJiRSxljuRurENtgofbBWNsJU1I4UWNKFc0QRbRQds5d2wlXYipYRgbkNKWRtSKv24vsSLpc9thDMYFZ9nUWmYYzrJQeCiQuojtnPLj9nyY7b8mCerlCZZBruS0mAOYxhB9ONHZV+Ho24J8rzUiHMhcGauDAEzoWuGLNGTqTereQSzGgq9GSikN4ZrMeyuhWJVF297AAdO79RgpnmqP8lwllnqjIhN5cM8gIGD30Jjz2fQ0neV5FymfCFw7k9DC3scEXlDWdIKzrSaU0XOYCY53yADTm5BR+//BuCXvgKp5jCAmj4ZYd0gx1cHpkpqB5D11PO4caMHM8pbMKukCzNKu2Er8wucU8p9SC1vVlDmuIzyRbse2pBS2gZbidKfryzdjjkvbsYv3xkWOUOcUCwwm7t/ccamTCUe/eo4yU9DyyvD8sqYzHq+ZBazWMuq9CaDOYxB/KiEYF6qwKw1Yzl/yYehesg2VnOiEVBZycpipt8zu59i7gx24MoERhkoqv4SDgzvRAQB8ZrWNYVme6L68JTEiNZvYhJhMoiBA3+Cpt6b4O+/VvJjqF6pTc/U7PE6NS5xSJdR0kN1Khjxx26kfIMpaO6djf6hvwV0Sk8ellhmY59yFWSSe+UaVxsBljy/BTeWbhfLOHWTH7b1fqRt6YWtvF1gnU6rmQ1/5X6klDYjtdSH1FJOtyKtvEPATKv56pJm3PKCG4/2H2FYDaLhhIxBTky3j2UxWxazZTG/T61XUFAWc4gNgBhGGLvx4/I/hKOOUgbd4Ohlkatc5QjmM+BMi5neGfrBKwmNskTKYIAJezhhUiOGcNOvuaj6QRw41Qgm9GE4i/oQTFpcVs8JUTUiJtuccGs3Bg/+KXx9N6O17zr4e1V/fbSM2VWUX3JisJNUJW0QzPTKYMIi9pTdOpgG30AqGrtuxyt7/glALxA7oZM30UOC+ZTpw82k98o9rioAZP+yHNes8yKt3I8ZZa2YSdiWcqB23IIZJQrEtjLCuQm2siaklPqQVtaKVFrQdKMrbcOVm1rwqee8+N6uIQaiIxhiljmrM9b3KZoXvkiXpSShTBe3JP3Ispgti/mjaDGrcGwFZgoLEdBdbjd+UvktFNXeiXwBM8Gr+u8TKGswi08zg060d4b5nmj8y4TDkwmHyBy8/xko3voQDg436wxsKlRZmcoEs4azrklM+ynLBMx7MHTwf8HXewta+65Hq/RgbTLHqV6rkzVnBWaVSU6Bmf38paGpay52v0IwdwN4V+vrJuqRWjuDbCISTOIKA4vXbMEnXtwJ2zofrqpowxW0jtc34orKLqRvasWMTX7M2NSClDIfbJUtsG1uga3Cj7SyFtCaTi2lBt2GWWUt+NQLbvyVb7eAORyLSINr8lv1hZPo8tmDZTFbFrNlMU9SXwmFqMgEyWAeQRj78bz7hyiqvVuyw+V7lL+ygFcsZtUAqECsOltlTmZ+p/Wc58kFXeYYYEKLmXCmtcxBgdknXTERy8Jc+U8I89GgYM358Skuwl4MHvhzNPd8TsDcJkmLVJ7luNZsQrEZ/afzLxuLuW2QOvQMNHfPRd/AD7XGfEw6EaTOrB5KtOHV3wmmS4oC966pwk3rfUjb0IIZpU2wbdiOKyvbMLOsDellnUgv68AM1jFazJv9aihrQVqpT8CcXu5DyuY2XFHWhFtfcqLwwDsSKsPwEr4RWGCepHBOxWzLYjaVSlUz1jMrwOQyCDAhGMUqVZBQd5FgPoSypn+TvBZM26ksfZV3mUmJGEgiA6MAxQNDNfZxOg5m6bxVgbmQPs7OOZIIqaj6IewfbpIUmGeCmWikuhvHsUzJ+QmY92H3oe+guec2+HuvRZvulYQAlgg/A2UJxdZ+zaIxKymjfYjRfzPR3D0b7V3/E0A9EH1XDkk4qnSd9OOOSYevzBg3COCLPy3FTc/V47otnUgt34XUyiZcWdkO23pqy12wVXSKZJFKi5neGuW0kluQVtIC28YmpErgSSOuWu9B1nNV2DQKJWWwX3ALzFOB38n3YYHZAvNkMsXZzL90jX/KLqVcoOxEcmoEQbyGkp2Porj2PrGYjUTBsZ0h2klgpqWc550vA8FM17k89wIZpAspShmeeeLDbCxmemUwDPqDwCw9mEhvIDzPfdjz6g/E4m3puQatvcoqZgPgr4CZuTLi0X+cTkP70BXw9RHMN6PR/xAQKwdib6tnARPWi1cG/ytFhQ561IJ/PHQEtz+9FekveJFexei+neLLfMXmbtioN9NFrqxFN/o1I62MljI1Zq7rQ/rmdqSWNuGTL7rxwNOVWkChhc5cIJbFPDlVp2CJBWYLzGcD4MnWubRgVlazQTQ9E8J4E1W+IhRtvQ+OBnYnNR/MKMdxHjtiZe5lyY2hZIw4mGlBJ4G50JOL/Dp2SzUfdvdccadj41/z/vUI4ITO/cwKyKMbi1lF3Kk6RetVd9mEvXjrZD6aunLhp8Ys4FXh15OBuZW5mvtT0DEwC+0DV8LHHMz9n4a/+y6cPP0jyf0mMkZMeTJT95VTIZ3D7MsaaA0Dd60txw3Pu5BKi7jSj/TqTthKfLBRW2aACUOy1+/CrLIOpNE9rqxRQZwyBhsMN/lx29Nu/Pcr74mr3CgPKk2MHE/Pj6UxWxqzpTFPWvc1/nS3UurxStexY3B3/QTF276AwvpMATIfKo76XJX+U8sZtJaNxZzvIXzpLkc9mn7PuSjyLsT/z953wEd9ndkKieKWlzhZZ+MOQgWBKMa4JXYcxylOnN3kbXbzNtuz+3bfJtndt5uXZGNQHWlEsZ22SZzE9rrQVBAItZmRRkJCbVRBjWqDKabYgE1TmXbe73zfvTMjjB0bge0Yid+f6TP/cu+53z33fOfLcSUJMDuoh3YnIb/y09i08zcYwdEYrwzuIH99LJXBiJIJJiEpxLoHJ4d+jpbuRegY+NhYV7lYGsNWLDE0RkffJHQPXImO3mnoGJiGtr4PoW3rdOx5+dsIY7cMB/q7+tsh+jLzrp/8t1+kbU/sPoLMw0Fc95wH04oaRbucsIEa5VahMRIKuTDYg2klXYhb04y4okbEFTcifmMXpq5txo3PN+CPS1rEK4PWzsNnhqUaQDgUjZhJp1xOfxPAPAHME8D8pj1egdm+TGqBhZGCeB0tu56Ds+JeyfKj1SeLsDo3zZXbc6kMW1Yqqms2Jkae2chxcfGPJvuJ8tn8yntRscUpdEmI9pqRP+7L2MU/+jFTwMfCpXQ29geL0Nz+AHy914kEzpoVRSNmI5czVAblcqQ8CMy+LawJeCVaeqegtfdadAx8HkH0YCTIuJiRchDhILVTMabJYT8YRdPsnlmAS7p3I/nJUuGLE6i+KKY6owtTV7XjKkro1jZKFuDkqq2IIw9dSAqjFvf+Yg0GjLucnRwEzwZEyxwMat2/CWCONISLdyfavKP3+O2xK64TcrkJudz7jsqwcjTTFQjM1PEGcQpbD5Yhf+O9xk0uBZmuJKlcwgompDFkEVCoi6gqIwrMqm3OrEpGjjtVTI/o15zlSUVuxV14ruFf4McuWtMrdSDdhv8xao4u/pH55R6Fxf7zCIAG+Dq/gbYtN8LXpzSF+DBHImZNNlHvDErlNPOve+AKtPdORveOaWij29y2q9DUMxevnHweYWGSRxCk4TLpBfktBrQcJEYRHj0ju8X+ux/A49v3Yf7zVfiD59245vkqXFvYiI+ubMNHV7fjytV1uLK4HlcXN+Gq57y4cfUmfLGsWXhlmhdRuT3EslWG+WOSyQQwXzwcfsM3ReE4em8CmI9gVftEBZM3A+PY598zjtlm21lgpnxOEpOHsOf1BjjW34s8r7X61AokLCuVbUpGnSuXU2AmULMwawqyqlPgrEsHE02Ek/amIat8IX5a/nWcRTdCjEUJUuw2BpT5wEI03e64R0GW/xB2dgCDgz9A25Yk+PoT1KRozOKfNTYyPs10mRvg+xIkcu4cjEfHtnh07piG5p6bsbX/7wD4gPCrCErNJxbtYxkpgjJ1xoymR6T8CGWFZ8IhKRdV8zrwf9wduP2ZIiQ+XYLpT7lw429rMGNlPaY/W42kp9fj/tWVeGzgILabLMJTCEuy+7DMEkIIjIwg/BYJJh/0CHqCypigMiaojDeEEjFPCCjqY65JEQhZG/oE+pG/4dPIdTOlOhV5zP5zkWeeg2yPLv5ZtQYHFg401k1OFgcJzq5UFNTPQ7Y7CZksM1U3BzlVC/HYhofwSqgWIRwXHbHU+7NZfjHArPDIxUneY2mp/Th86An4ts4T8/sOVrkm6NqIWbIA1cyISoz2vjh0b0uALgLGSZQtSSjUNPd9DG0dt+PEa8vFUpTRsn+UlauJzWouFKQjc+iMRNLBEYJ0QJbsGP2y3l8dgN8cO4Wc7Ufwzw3b8IPOfVj+wjGsPjmKfkD4aZZ1ZSzOvELqXejxzCrkHIhUqhhzLWLuTgBzzMm40LvRODl6j981QWVMRMyxkfGb3X/PIuZzGry2XgKzH0N4AT/xfBk5rhQB51zW7HOlIpdKC+GcZ5rFPs3847ERwJlQkiNlppIkDdtB6ZwrCSwtleVl8dbb8ejGB9F35BmEmF/H0YC0ATezAMb9UFJDWWfdzVEgdALBETc6eu+Cr/9qdPRfoUVYI8BMlzkqL6ZImSkaGDHBRICZ74mUmiLlcTU6Bz+Olq5PAqhHOHRYSl2xKjfX/kYCrMvHSN2PcIAUh/Ro8azms4Rpel5QUsc6gAdNZMzEFBbB4jDC9434KUQERoKci2jdEgFd+b5zLsBl9HAiYp6ImCci5jfp8DTHj/3jIxIJjOioZX629VvIc9EZbpaAcbYUVCU463qB5ZTtgEPw5nO6OJgMyuVy3Gni45xTOwuZTM32LIBz412o7suQIqhSkVpAmVGx0hi6H4qF5GD1LwSIOqMfXf1fRsfADejou1rc41hKSqJmsf+caqplT0HXIP0y4tC1zVTU3h6Hru3xaO2ld8ZUtA3ES8LJ7r3/AaBToJa/PWLqr4ouI8AomtBqzo2pOsKi3gLgIQK4vo4AFR1+IDCCMPc1xMiY0bceC98lGX98/9hTb47x8rmZAOYJYJ4A5vP0d+ICY+NYKNRHihhBHEX9zqVYVvkpKSu12DMdzsY5yKhORLab7nJKXVhQ5m2EyjCLgnwu06WKDoeXSg0+ToGzZj5+5f1TjIptvB8BP2NLKtSoCWGEyX0gILO0NAFO9cW6Z/vx8vFstG6dg7YtV6N7IA4+Am0/qQrqmqfB1zsV3duuksQSArZsrJht1BrqSheP9m0JaO37MJp65uClQ983uX5DGDp7yiTcaEFYLkBysKJCxB/U6FmCfJIbBGh6+XN3RRTN6N+e8CACIcoPNWoWjQmrxAT1CO27LsfbCWCeAOYJYD5Pzx8DzBLS8RkL1Lx3HANHV2EfRA3xAAAgAElEQVRF2eeQ7Z6LJd5EZHsT4dyUKkoLRw2N79867VwUHJ4USU4hMGuSCqtsp2JF9YM4FupEMEzn45BgGoGLwEwTIZCHZUmp0DBCFri5Nofj8GMDWro+h57Bm9DRq0ZFPdtZ228SWrbEYcuOa+DrpY8GTY4MIFuAlvqAxiq0Px6+gSvQ3HstfL134tiJnwHolcg54GdSNgGZ4OqHPzgitqABSvf0VCkLQyaGATDBmHpwVoIhNoc48xg1R6TDDGkSeRu/mR+6jP8mgHkCmCeA+TwAMBaYBZMNMCt0hHECR/z1eLT0K8ipvl1SrjM8N6KgIUm4ZkfNXEkmiY2Yz71P7TOfIyDHvkbAdpTdg+6DazCKowpe5HbDZGEZTYYQJg0Q0og5FCBkAxROBMLqYrFt5w/R1p2ELmb1bSMAT0LPjslo3UoZ3VSJnDvopyHgzKommrqtlIeqNzoHpyiI938Irb03oH1gAY6+/iOEQjTRPw0EA8q0CIZyDyiaG0IwNAwCNBcHRV5I8A4GEeT7qSQRV0mG0CP6XkqjSWeYLUTlhywA8jsvz78JYJ4A5jGgEAsQ75f778XiXxSYDSgbjCAoMq4L4yROow+/qPxbOF2fksolufU3I7v2JrOoNw85YgX65lGzBWaeZxs923PuqLgTq5u+jxHswUiIKRxUqfm1xh9hmCFokJwteQJlCRhxBsMEx1cwPFyB1s670dJD0/yrQPe4TkNXdG0jz2w3XQgUs6NIxRMC82S0905CSzcj7mukXFXrwJVo60/D4VcLEAy0mqU9VWWEQ6MIy2/z96lIpnfziPhKMzIm1UHAFbc+QeAQAv6zCPiZ5Sen1Jxo8s66qKjx8wQwX7IzwPOu7Tp6jz82ocqYUGVYIHqr2/cCmKV92h5hmq3eEJjpV0Ff5v1Y35EPZ9WnkUXLzsZEZNXcJIDsqCUwj42Ezz1GC8bn3vJ9edULsaLsYRzBJvhFo8x5PqNkZuCZ1TIGnVxhM3QBMwG5b/4RguVO7Nrzj/BtTUJr34fQtDUOW17g4l4cWrfEoWfbleJARzndGzMENWLesn0qtmybCt+WyejZfjVa+uLQ0ncNmntS0dX/JxgeXYtwqFt1F4GThkPWM8dBhIunYrQkIjoCLvc9pMEwd1VOpeE5RBN9FAhTw3HaJLJIKG6vwmV1OxExT0TMExHzm3V5G0fwVvCPdyww08zoOHoOrUN+2f3IZmp1XSIcdYmqsmC69e8AZgIwQZm3pDO4WZBmHcC8srvR8vJPMYrDCJK2oF6ZsrIRI0/jrpjgmXsm/C75Z8GzIwiG1qC16wE0b7kBrSy6ui0ObX1x6NkxFR19rJgdBWXJEGTEPGCrnDBdO0446o7eyWjticOWXQlSQ7BtYBpatt4MX89D2Pnij3DqzCqcHaoFsMtE0UcRClEsR9HcWYRBkdwJgHx5mIMGo2pmDPI9B6SQLBNZXjlRiJ27n0Mo8DIgg4w58W92fT7Az08A8wQwTwDzm3Vw4oJgA/8TWYEBZiIfS5MO4XCgG49XfRm51WmSKOLwEmxVaXFuhPxWj88F5lxPGhzVc/F0y1/jFHYiEGZ6tgJzeJSRswFlRssmgKZmI+LKFmKaxyD2H1yKpp7b0Nz/EbQNsiAr/ZepX54SiZQjEbMkoBB8teIJn+/ZNkW00N2Dk8V/g1pn30Acund+CE09H0fzlplo65uHlq2fQv8Lf43Dx50IYaOR1w0C2AuIuoRuGnvMYwI45XdunPH/Gi8c+g5a+r6Auo570bvr3/Q9lnB+s2vzAX9+ApgngHkCmM/XyYnFBvwUlHUqrk/yBaoj6M68D083fAsFVbcjp5rlpVTHzOw/m/n3VoBsX7ORsn5eKRDqoh1l92LPkBcBvIZwYFj1Z+SXQ7rgZ1mNABfMhGKx+8l8uhMIh9rQvvVv0Ln9Lmzeei26dl2Nlq2T0EXANZ7M9rajn1mBUyLALLI5em6wWCvrAopiI064akbe5KHbBqaiZWAymvuvRnPvDWjdeht8Wx5Ge/ffYNeLWTh4+Kd49cSvcPTYL3H46C9x+MjPsHdfLvq2/TN8W/4YdW0L0LEzFZt6r8Om3hux6xDTwAfFvY7nX5JNznd9PuDPTQDzBDBPAPP5OvkYYKZGl0BniVG+qNI5Gl+2HfglnBvuRUHNQuR4qLSwm9IUFnzf6S259fzqT6GoLQvD2Icgnd4YuHOaH+YCm4rnVKmh+2T3SwYQJnPgOE6ccOPk0E/RsnUeOndcB9/AlWjewqSSSRF7UNp/ckGwvX+aFG9lVCxFXKUMlal4MqiJKArk8Sq5Y9r39kno2B6PtoEr0Nr3EbQJQM9A29ZZaN2ShuaeFNlat6ahrXcW2noT0dp7syg9Wno/hpbBq9E8eA2aBv8Q/Xv/XL3qyMiY1G97eWLXpOxzH9TbCWCeAOYJYD5f744BZgVAam7HAjPlX6M4juPw4dENX4Wz+nbkepjRlwrqkt8pEMe+nyZHGZ4k5LoWYWnpV/HS2TqEcUo4Zl094/6werWV0BnaxdAa3H2N+EMIB47S0h6Hjv0Q9e0p6Nx+Pbp2XIVWiXpNaanBeGzZcZVI6Zj51z5IDfMks6nWmRmEsjHS7o9H9+BUdA1MlsibFIfQHIysB+Ohyo9pBuhJoSTARzpkG93r4pRSGUgQNzspAjt4JZoFmL8ZAWYyN7ZS9vku0Qf5uQlgngDmcQFILJhcqvvviSojAszi3yZJHcxwi6UyGL4GcBJD2IvVm3+EZdX3ILt6BpzeOeIcN57zQWDO3TQL2e45cFZ8Gqub/h/8OIpgyC+Wm7TdZKSsqmYDUdGgWahxqulEHBykVRBtQVuxbfe/obE7CW3brkYzswG3xaFnpwIvNc5MQqHuWaNlemuQc6ZKg1GzbgRlRs1M55bouS8OXQLUcehmijeBmxRI71R09V2h4C3fEQ9fv/kOOtmROumbIkksrf0fRnP/Lejf89dSWFZojKCaJV1OkbIdbCaAeQKYJ4DZ9oYxt1buQC5ZY+VoejY5Zs2+o153CK9g6+ENcJbdh5yqFOR50pHrYebfW8vl3hK4a5ORWTNDlBoFNbfDUfwg9pxulIGAlArXxpTp1lvZ9XOAmQ/9fmbiBREYoTKCkXMzmru+gsaeW9G568NoHYxDSz8jZOWOlUcmeLKIqzrRRSkNJqIkaD1BlqUyKdydrILSPwU9gwnoGZyELr7GjMOtU9HdOw3dA2qW1M7fkXJWBO945a77qAyhD/T/QHMfgflvVd1hjoWgfL6o+YPOPU8A8wQwTwDzGEC2DwjMuqDG/8nWEgj1zwAzNcUh8rwjOBYexE+qv45lNXcht2oO8mrmjBuYc1luyjNdwHmZ+9NY0/KfGMYeDAepuFDBCPeEGCZ/5wCzpjyPwB+gl5smfiB8AEMjG9E98BfY1P0JtG2fDJ/QCyzIOhX0ZKYdqLjOWZWGRMpc/DOA3c9MwgQFZlF5xEkySkdfArr6J6N7gNsUdPdNQ1cfsww1IhdLURtlM+IWSkR/q31gKpr7bsDg3r+JRMwSNUuWoEbO9jB5OwHMsWfjAu/b9qJNKNKMJhJMJozy39ag8J5QGYIKhOOAMMvMRZN1N+kDVEWoXpg18NRt7jCqdxYgr+I+5LnmS8mo3+WV8ZYRc00yChpYHzARrBdYUHcn8ko+i96jqxDEYQSCQ+pFYbL+GEHHhtCS+iySvmHhonkcIeZsS6moAzh9thgdAw+hsecGtA1ci84d18iCYFsvvTRU3yw6ZnLGEUVGPDoHJ4Op2oymZYFQLEVNZZQ+RtPUR09G18AUAWlqpSVSHjS8so2yDTATnLvJOfcnoKXvExjc+1caMZvpwOVIY7CJTUTMExHz2wLHtwaRN087vhife2+A2UTMpAFMknAEmEWuFhYPIaI1C6JSnfFiyIu8soeR51qAfC8d5tQL40LOAe1Bs6oS4ayfg0dcycgk11y1EL/2/CnOYAuCOC4Vsun1wzTnsFQWoZUbn2DWnR9+pkCLhwaHlbBmDMqAwgh6D4ZHirB121+gsTMRnds/ho7BaWKWz4iXnHEXI2duRlZHbw3SDgTljm0E0ji0cdHPRNysfiIJKoaysAZJbf3xoqHmIh838tasNdjVp79DXtrXNwWtfZ/Atj1/KVmLOsi8MVK+wNjw9+5jlxSYo5GyPS/nPCNEmS4jU4xEA+0ndh3EDc+6Mam4HXHcSi7GxsKQPkwq7tDvLWlF3LpWxJXwuXbEF3YgoagDcevacf1KD36z47DkKjFeGtdfZHLALh3p1jJxCOAIVvu+C6drEfLc5CRpC5lkvHrHJ7O6ECB4/32G54DexbZmHvXBacirXoRlG76EPcOV8OOYqInHEK7mnEdO/QVfQEtlkGOOCuXk60w0Z0UaVG2cxas4hX1Y6VsCR9ki5IuOWUtIMQOQns1qlM9K2ebYIrcK4urfzNdmCQ2S605FZlUSCpoXIqs2Dc7aNBSULUKZbzGCeFGKwgr7LU5zjIYZNXO/VbERCLH8k5mnSkitvIdUuhar+t0IhSuwc+8/oKF9FjoHbkT3tg+jtTsB3f1ThRumbSi3zn7WB1QvZwKrKDao3BikTG6SbIygbRRtfTloiuQzemcFZk337uyfgq6+aeju4++wYso0tPb9IbbtpSpju1jS2dJSsZfwg05h2GO9ZMDMjhHhv/hANr1jH+pcTF/jmP4qgF/tOoAbn3UjoUhBc3zA3IG4Ym7tCsBFBpjXtSCutFnBmcC8ph0JhZ0CzH+40oNf7jwogwQHi3H9mQOVgpnSa+x5YEc/ijVt/4aCqrvgcKcjp5aVLWYgpzbRVL4Yx8LR77CbfP+B8Pki7hTkMIuuNlkMgljhI6d2DhzVd2L5+q9g37BLzqE6FKv44I0NbjxXj0t9XPaztkX8Ll5Qg3SmcTNS5TtGMYIhnMXO1xuxovTzWO6eiyxPInLqU5HrYcmoNOSz9JQrCU4v1RYzzTVPBgux5tbMhIO1AgWsmc49G1nVSVJTcHH1DGTVJEtGIWmSRysexLaTK+HHfoSZ9iwuczQ1ovaX+0xXN3LKkZ2MuLoJbku79CMkXPV+BEON2Ls/V6qVNHXdgK7Bj4k3BjMEWdRVlBqMogc0lbu9lxpmejuT1rCbOtRFeORtUdWGlLEi+ArtoVx1JyPmrVOxpf9KdPROMsB8HXbso4550Bg4c0cvz793D5iljShS6f9mdOfzpiKCAPPuA7jpWTcmXwxgFlA+DzATlM8B5skWmFe58cudBy46MGvcZfq2RGBHsbb137C06i7ketKFR8zxcqFnhgKzh1HT+QDrcnlOI+UcLwE6BVm1qchm6aXqO7GCwHy2GjSrJzDbQNHikETQ0SWxC+rZCsiUoykc65eY2Nm02TDd3kySx1CQ0MwltldQ1PJ/sbziTiyunIHcTSnIdqVhWe1tyKtKxYq6OciouAV5XjsTYASdBIcAM8GZEbMCM2sBEsCXNs6T0lO5dTprcFQuwM9cX8XRcBM48wqHWUWEkzIFMnpmcKgQlzaJprVKCEHZbhp5BhHy0++ZPa8Xx177CTq2PoxNvmT4Bm6Ab/BqtG+jnG0KWgWME4Q7Ft6Y5vtMSumLj25UWnDx0Hg7ayIKgZjPxYs0r327qj9YBJYLg9zkOwauREv/ddi+nxHzNjPSXtCl+0B86JIBM89OBIDtHZlORUVH0krYmAwwH5OI+aCJmDXKHVfE/GbALBFzC+LWtUk0nbDWUhk+fGKVC7/auV/8vC4KlcFVZVHBkqmM/rFDrW37FyytvkOkVVzgkWiZ0RNpDU/aZQ/MjBIZNXPLJOfKxA3XIqxY/zBeOltlgJmeFQo456Bo9GRf4D1eOdt09Sv4S7rop7/F16nKYKkp/mN+4Gt48fRGLC99UCkq70xkVCRiWd0C5LvSkVudihxPIrJrZiC7hot7KqsjILMeYJSXThGe2uGeibzaefj+hhnIooTOM1PkeEsr7kVh2//D6+gVCR0lZexxrHYSDhGIqXM+ixDLnLKLSXqz4p2Y1kvozGMZBkLknAnOezAaqMGeQ4+gseduNGz5GFoHp6F9x9XwDV4JX/8Urb49GI/u7ZqmLeArVba12rYALoGZsjg+P8BFQnLLk9C6LU42Rs5UeDDqbmfkvJ2Vua9GY+/H0bvnmwiTyiAjo+PMBV693++PXXJgltNjW3cMMMvzkeFbHVijwOxBQtFFAOaSDsTJpnz1eTnmdZ2IL2xHAkG8tA3Xr3ThNzsPXESOmRNdxstB6SC2uQRwGGvbvo2l1bdpzTgB5pmSzks+ksD8+0E5XLoIXugLTvtrU5HpSRJgynMvxGNljJgJzK/Yeh56bgVsLl5vts3WXjND4o6JOEJheg4PiSE8Ifpk8BhGsBslvh/AWbEI2VUz4KydjayqZOS4ZsFRk6YUB6tki1/zHNU8mxmSUBmktbjeUD0decwk9MwFbUSdm+cqrVOdgvzqRchf9xnU7nxU/DrIcnOQ4M5J0Wx6M8t+DUsgLcBMcJZon6gXQmiUXshM7w4ALKwaUEIxgCYcG/4ZurZ/BS29c9HQfQta+q5H+7aPwjd4BXyDk9BhvZ2ZUMJkEYmeyUOT4ogTyR15ZEkg6SeNMQltBGbhnJWLpnE/FRtt/dRST0Zj7/XYcfAfVC4nwDyx+BdtexfxXiTeiLRwnQNGH5q5VVhVlgTmJ3a9jBuf9SC+6CIv/slCHznmDkwqaUOcbO2IW9eJuKJ2xHORsbQV1z9fhd/uOAhO8MbGuBdwYgQjFJglcVYe6/cEcAhrff+IpS769qZKBQwudCkYE5QngJmAnFvH8zBLONacuiTku+fjsQ1fMsD8qg56phnF1DC6gIv1dj4isXkEmMX0HVQ/nBHqgKRKAH6hM/YP12Fp6f1Y7lmAPPccqQNITXJO3cxIpKzXOA05TEaRzVzzWnLNM1HgnQUnC7xW83EqMtyspp2KXO88ZLnSUeC5Dc7196P76FqcwQH4cRrDArZqRKfhgBSikoGLoCzALNVBaCMagsj9xFNDG6emeTN6fhFAN4699jR6Bv8em7vvQVPvzWgZuAZt26agYyfTqc1in0nHJiBT/0wnOknXpt5ZJHTUPE9BJw36KbWjBnqAIK5JKt07+D1T0bjlBmx/6VsA+hAOctAIfuD1ym/W6i5xxGwgWG74HxcmtNCiNANG0Ga+wqUKqjJ+vdMA80VTZfiUsiihMsMAsyg0fBpNE5j5eJ1Pgfm5Kjy54yBdCcYPzHLWdQnJArOdnikw/28sdaVLlJzlTZIOq52VHOMEMDNiJjhHzgX9jl1zsKL0i9h3hhHzMem4woZJG2M2HsFTWtebtfkLfJ7fqXSB/QKrFQ6Eh4TOMEWfQAcNPw7CM5iL5WWfRE7FbOTXpSKr7lYsrrkZjk1cGJxj/JpnIYf35bHxcBZgpk9GEvLo1+yaKZaiVKWQ+sj2zkE2K2x7UpBXfTtWlH9NwHkIByVKDjDyFeoiLGb1NKyXrmaAmYQLMxZjzxOPjgoOmcRKH2U9QYYnBwG04LWzv8L2fX+H1r57sJmmRFtvQfvAzWgf+EO091+LjoFr0DFwJdr7poq5ka+X4DwlykNLCasr0N5/hbyng+/bGo9OpmwPXovWLTehqWsRdu79ocrlJJK3ZaguxfW0V/H9efveAbNgMk+8AjWbCfOZfrOTHLMH8RcbmMknlygwMxqX7yfNQWAmaJe2Ia60BTc8V3kRgZkNygIzO0lkHEIsMJNXJMfMqS07ngLR5a7KSJUFryxGjIbWyebiaPVsPLbhYRwerUOItpZSTslwzCZT76J1Nb18BsAiDyK8sz7D9sthlwuBYQyPkGlmcaXXcQa9+FXVN7HcvQjZnluRWTcdGXWJWELunMDK6NcTBWalNiib5IJgsqg0nHWpyGNqt3sW8rzzkOFKwSOuW+FoSEOOdx5y3AuQXT4XS8sexEv+WjHV94dfA0s9aRIMeWRuLISq7Y+ZilRtcM/NHEDpDokauPcsmEpag3NGLmkyTKHXxk4Ew5vw6oknsPul76O184+x2XcfGn0L0dqTjvb+ZLT1X4+2/g+jYxvLWamFKLXOIqvrp1Z5Gnz916Bz8Dp0D9wCX1cyWjvuhK/zj9A/+D0cOVwEhF7TnzaDy+UikYttt+8qMCtE2VGQjWQsMLOyGaNVqjIuLjBb3TLpEV3oE90y6RICs0TLbZhU2owbnqvCb3Yeujgcs+nCnCeIqIrAbKIWcsyFvn8SKiMKzLORXcNISqfvlzfHbORyBCXPHNEw59TNQJ4rHT+v+BOcRAdC9Cg2NAYHPZtCHdvAx3VfkTcGmCMsRgScCW78p37IvMAatHNm6McR9BxcibzSu5HrTkFe4yz8oPom5G2eI9SMALBZ6KUSQxcDCcwGnGtnIsM1XcA73zsPSypSkF8/F45NyVjsvhWLq9Pg3HQ7cjxJyKuci59X/xleGnZJtB6W8kx+VWpoWWqJoll9WgqkMqoPBRBbmZr9UWYc9rh5bgNhBInNxGhOGET//BKAHgBeDI+uwvHXf4ojx3Px0qH/i96d34Cv97No6bkTLT3z0dw9B81b5ojlaHPPbfJ8R9+nsXX7w3hx39/j8NHFGBl9SkzzxTw/REP9UamipQPJ5ckzX3JgVp6ZF5T31BFLOgsvPokN8lwmk5/j8pPb9uOGp6sxeZ3K3MalypDkFFIZVGC0aGQcC8xrfUgo26JUR2EjJq1rwY0r3fjFziMg382YYfx/NmLmIBTt4wTm8q0/xNLK2+Eg+Hi54DMbmdVp0vkyXTRav3QLa+//706Bgwt/nMoLMM+Goz4RedXpeGzd1zCCASmISiCU6be0JwMs479o5htiLlj00kVAeeyrMR/RpRSQ4hjBXqxq+Rc4yu/Q2VBDMn5Q8Qnk1pM3Vt2yyiKp0NCN5kcE7Sx6ZXjZDtJEC+3wzIZDFgmp4NGoe0l1Cgoa5iGrIgmP1y7C4xs/h92nKiQTMURE1fVAHVHE1MiPILlbiZdZky/aQyMDm9l/NliJVmMPlCBPeR4YRrE01MumPBTBmrz0blMqqk+sRsPYDH+wDv5QgzwGtgqHLFplKUXFz5EuOYQwjgg9FcBpU8SVxVttICcX+KJd2ff7F72rwMyxWmHYtHJpHiEEwsp4sRrYyt1HcOPTVYgvppSNPPB4M/9igJmRcUm7ZPklFHViUkkX4opIcbQgfgN55hZ89OkKZHXsAktCkl4Z159pSzxqTnZjGzkVBQ0vrMDSik+CHY7AnO2ZLTaPXOxieaJ3UgHj/Q+073SQSUGWe6b4Gme5KB2cIxKznPK5eKLy7zCK3epPzCk6mxNHPTHw5eT8YvzxWy1C6ffJ70jT5W+a3+VL0ReUK5CPhiXZI4jXsW+0Ho9V/Akyy+cjvyENufUzkeulXp2JJVGJnFIZBGHSWCnI9CYhk+1CgDlNMgfJOTs8pDpI8aQKJbK4MhFLG+bA4boFy6rnY0Xp/8TWQ+slASeIMxIQBYJBATk5EhvVMyTlztv9l/sc6YCgn0/aWa0BaHs6Ird8r+SEm+O2oyRPHT/PBcYzCAVfRzh0xsxo+B5SK/ycmUHSQU4WTofhBwezIYyyynaYLnr623J9ZY8uj//eVWAWyRhZLelEctkFqEeDXMvW0o0bD5/Grc+6kCCLdeMFZsrlSFeYiNkAc3xRB+KLyC1z4a8N8aU+xJe2Iq64GdetrMF3N/VKpTKWkhzXn7ZtVQ5w4dMet0iZjmHgRCEKyh5ELvWtjJjNIlCWOwmOOgKZVWm8U1D7ILw/Rc5JXl2aJGhI9lxNEpa678baph9hFPsQ4rSaHdwCKIE5yPY1rqtmPswvsd8d/T4+q9Gmro3IT+mT5nc5MLBYqhZMZaLHWbwC38G1cG78DHKqUkHeOMt9q4mYCcyMinVmkCOWoQaYKRP0zkJWrT5mEkqe6JhT4aDOnRG0dw5y61Lwn+XXY1kDU9ZnI7t0IX5S9TV4tz2GEezEGbwiKmsbFPkZcVAl52ftQK28LeeMWEnlnElU0QMyHHrYjxC9oI1SQg5Z1ocYfVMoSNP+qHE/f0vNUjnv5A/q/FOpPFp5EnB5hjmjpJ6FskO/2C6Rpee4oGsyZlCIXoLL4t57B8wyovKyhDAa9Asw8/J5Xw9i+nME5vFGzKRCCLwEZ3LMJqGkhPpoAjNfV+CesqEdcYWbEVfUgk8UNuIbFS2UuAubNq5WIL2WjU/jASGYzbyb/OjLwSYUlP4RHNULBIQYFbKzkTPMlSkso+YPAsheyDGkiN6X2W/kV3PcnE0kw1n5KVT2PKbp2CxQSgMfWXgzACPtalxXzXyYF++NwMwXbbxs8TgSccr1JjDTA5mqhhCCQULOCE5jP9a2fw/LKj+J7HICq418Ofia60zKhptccybUEJTTkE1gruVi4Azk1cwwn02Dg7MIUht1KXDUpyCjajqWN8xDvmcO8itvw7KN92P9lh/gODpwEi9KtZWA7JtmcWuAFFA0todrAdEgdZhRq5zfUVCzrSDMfqvtWmfBTAHngiI3giyfZc/Wlk8JnnwHo18RzigoE6SlO8hn+B0q7eO4YJU2NmK+GFf09+k7LjEwmyBCGizFcnqhdKjUS8vxcjQ4KmsLZ8NAyxBw6zOVmFTYhEnjoTIk669LwHlSMQ2LDDAzahbFRwcmre+WiDq+uAXxRc2YUtqBDz/vxSefrcQAIFrmcV1MHqLMFHnkjKDsFI7n4RRewzY8VvbXcFQtks7p4AKQKwV5QmtMj3bYyxKcU+CoS5GUZA5W2a7ZyKtNh7PiM+jcXwy/KDKYtUYnNWNtaabHCp7junLmw6bhvulXne91Psf53yiCjEhFJBrC6fBRHEMn/qvyL7G04m4U1MxVCksUJ4yINalIkotEtUEKI9UkofB1emrMgKN2uom0OdjNgnPTPPyoYobovcnJL664GcsbyUUnitQuvx8n+k0AACAASURBVGouft30R3i64R+wd9iLsziEocCQSOOC1C8zYpYwlmOc0kAcjtSZjvQbIdaCM5UnIvyUSFfDKu3TJOuo4lZwVQWSQW+zoMgBgNwFOwRvx457IgSw4yB3w76V778M/94DYLbDJC8Ql3qD8IdMxBzWpYGk591IKG65CMDcjbjiLsQXt2JSiTEtEtmcoUhEkdGBKevaMLmoBVPXd+GqZ2ox97cb0GXkexfcJmIaHhstIwY5XuHX2NjPShS1sjkDjsq7NEr2zJJkAmddMrLct8Sk515IxPn7/hkF5vy6WcisSkGuaw4KvLdhafkXcGDUJ8kUYYlKOX1m6vGQ6fh6xd6d7hxzkQVpbGvRKF5ia4maCWZD8OMwth3fgGXrv4j8ykXIdTO5SOWRzPTUhT31zogsDMpiny4G5tLgyhhdqbxSgZscdKY7BZmumShonI1sz3SR5+XWTUf+pmTRQzs23oYVG76Ghl2/kcKu6sx3WnTP7IPc10DAL5udEYidqFAXpOHsFlJtdAyhw7NgPyNnRHhhDUrktMgbYrlsG6AYcObrfKN+kU5U5Dl7Pi+/23cZmHn5DDDLfEVHYDuFIUzvBJC2xoupJW3jA2bhj3sQV9wtC4kCzKV0leNinwHmYkrkOnBFqQ+TC5swuaQD16xswNxnKuE2CS8XvOjAhmUiAImWbcTMqERKzQ8L99hyYBXyKu5Bjkc9MnLIL7Pz1dwqz12uVEa2JwmLq26GQ6bws5HnmYesyjn4sedrOI7tsmovqgMx7DmDIFOSZdCL9u/xdmeLE/Y28n0R0OAdtlqr+dV38FmdzAekwglnSoEA9/EkhrEXmw/8Aksrv4Bc9wITKTPCJTDTL0Oz/gjMTMfOF8pDJXTkoQnIWd4ZyPImIrMmGRlcCKybDWfjXGTXJAk4s83k1aUjpy4d3984HQ7vbOTXzMVS1x1wrr8XK1v+EbvOrMMZ7IYfr2MUQwgIZaH7zyKzArUCxqomkkCX2Cnb2+F9lcqInDt7h7ckOiRSN+At55CzC3YYvoG/r/sQOeeX2Z1LCsyx55KnW8dlnnsSWQRoIZxktOUl4et7AMxd6caUNQ1QCsKCqGqQo9l7ZmGPICuLenyf+i4r8PJ1jZgnEYCFymhVYDaLgHHryUG3YnJJiwDzlGIfrlm1GcnP1eC/T6oYaCwwS6uSwzrfvejxmtHfALMugrDhEZTNApUY35zCXn8zCsofQK6bfr1MzU1FtutW5JNjpjJDfJoZMdnOGRsJk5+0HKWqOPR9OjV+70E9dj/svppbpp+L1zKjPp2Wc2quipQUUaVQwbDENUM1zNVz4HTfhfUDP8QQXoY/NIooMDPzbkQM4+1sOXotxneP1/nNNv1mtlqCiFl0NA2DMlBCU5CJHnw9RDEwMwKP4TVsRcW2XDgr70Weax4c7rlwuOeI6oIqDZHCMcHEkyx0hPhnmIVg2qBmexMFmHOYru5NQ6YnBZkeYwtax4iZfhzUSs/DEhrsb56PvPpZyKi8BQU1s5FfMQ8rKj4H17blOBzuwDBexunwEYzitFIVbKPSTRkdh2ShTrprhF4Ye07feH40AFPag7MHs5BncVefMV/C91qqhL/LjeeMGz9wef5dWmCW4VWXB3jqI9dF7rEhhxEYUR6OF4+XZB+Ar9dvxbVrNyG+pMl4JrchvqQT8SVdmFTYiYS1naDcTbhiUhNUVJS2CPiSthAfDIIvtdBiYmRAW57j81RqEOi5wNgmC43xazZjWmELPrS6CR9/vh6OwwEc4D5JT7e9M6QVivm8YC8blTY82zi1F7MFGx5NVp5VMMfpoAxIPNAwCQ4uCr2AX2/6Szgqb0OB93ZkVunCUD6zvygTc82Gw60RlZobEbxsAgrBjR2Z3r5WesVsMgK8TfmNBfJ38z73kwuZ6p4WARcCC7McGfnRa7k2VRa4skQOx/R0LoDp8WVQx7xpNhYTnF3pWFbxAPaMrscondCkMbENURFguU29FpF+z4synj9zUXnDn+O36xaN7fR6mzfwTdFGLnf5UICZtIvs62mM4GWcRS+ea/wnPFb5AAqqF8HhSkdWdRpyvelY4kpCNo/dOwtLXDPFuCh/0yxZIGZULHyzDNTqs6HtgVmjunHBMIvnvjYdGa5U+Y4Mt3p9O7wzZSaWVZGK5e778XjlV9F04L/wOnpwBi9JxiKPkfsdkBwDtnH+Y18Iy2aDFZHgmffy/RZWOUxRX8FFPx67We+OjnB8s2z8BN+tGMGhjL/sD1AnPRExj6fpvvlnpTUTvbTbaMKqvp3NWxsrbzS69AfovhYW/fA/t+8S2drk4s26aFfiQzzTqUs6MamoE5MLu0D/ZKlyQmBe34K49c2IL2kWbjoKzAaEz9VCW2AupaNcO+KKmoVjvqqoFdesbcb/WNmIP/ftwX7bz0wH5bGoMXoUmLW7RttcFJijERQbMpdIBJhlKVqBnoslZ3EQmw/8DI4N9yKrYp6A6tL6dOTQuEaAmVNcwz+a6DkKzATaWGA2CQsCzMZ34T1dOCTAqn2pZLmZ6F6iPpmSJyNLvJapPrBZjzprYLSfVT8bP3QlIrsuGUtr78BPyr8ugBYIn1QU4LmUJWULmIQUGQnHAOSbN9K3eMWiMX+C96Ut2N+J+XrbNuz7JBiRkTcCzNH2zjbBQeQM/GB2qQ9Pev4BS8s+A2fVIhl8uJiX7U3FkpokZNenyUbb0yyhKbSIQh7Tud1aFUUrcUdBWcHZJKt4ZiGvbg5yaunQl4zcOhNt106Ho45udylwum6Hs+x+/Hjjn6Fh9y9xHFtwBvvgx2vw4wyGQ6cxHCAXzR5slu+DpGYInDr5Zd9loopgrQFotneW3OKZsqdIbi0WyylSCOfCHz/LR3x64u9S1vzjVZDGystJCNJRl1cp2lAVlNmWR/36DhZYz9tzAjc958aVazeLExyj4HjhhZXWYLTMiiOUvYlOORIxt2piSgSITaTMx1RiRJ43EXNpByZt6ERcYROmlPowragFVxU24+o1m7GosF5oFdtYeDjabNj5TV+VO/pK5Dm+zT7PAzONV/qrWUDheVGwDmAYr+IofHh049eRX70QueSaRSLGVGRbcshmiWm09EaKIkpnaMICH7+b0fH5f0tq9YkJkU0zjtIx2UJjMGLWjcBBWob7T70uq3os9sxEplf1zJnr5qN+988xjAPieizn2MRoqgsgMETbmL4up//C/uOlE6Sx+jENMiIobS+zbQvygxZ1CEgaipgWEH2X+Tpqdgl+hwNdeHzdX+BnNV9GgXseMipvkgzHzNrpcm54DtUvhJahKqfLcUdnTDxvWRFKiJQXKTGV4rGUVTZTwevmIL8+HRlu+jkToJmYQposCfme2ShwLYCzfBFWlH8GP6v8IxT5voNdp6h8eQkBvCbceAjkyKnmGFEun5K2kaANeKMjVaTt6yFz7KQ5kpQi1BNq+gcvC8/TiGQi2jPHerE8lWKApyfvwq7f7/mnLjGVwZOswCxwJheNZ8xeBm2lqmXkgkJIkjyfPwMkP+vCh1Y3IqGoTRUawhGr5I2RMsFZkkQIzmJApBSGSOxEv2zMicTuU8tUSYQdC85MLimjpK4FCaWqzBBwLm5B8jNV6AypNJ7sIPuoBWYZb/hQOq68EAUFPowcp7kT4ea4sk1lvy6eEFACOIOzOICK3uVYVnmP1IrLqp4hmVw51qO5NlFM9JWyiAVny+Hy1kbPtm6gSVp4rwDaAK8Abq1mqlkqRqM87jMXs0htGCqmlhU8EkWrm1uTiCXu6VjaNB8ZG2fisaqH8Cq2YBgnEaC5e+Tk69WInPIx51+vzYX9b4BYhbeR9ZDoxbW/yFvlk9nSlVclKDMZg9c6Vs1gdLsEqzChm8z4a3jZ78MBbMRP3A8huywNzroUOBuSxebTUTcXubVzkFWtxROcTCiRzNBoBZQsrw5uOrClqEzOnYLsaprsM0EnFZn8vJcLhLOxpFqleA6W7nLTXjRNuGdHeSqcFXOxrPJ2PF7xefy2+juo6/8tDgw34yx2YQT7xCRJzKNE5c/rYGSglN5x0VAovBCCI+pwx77AK8Qer4QFz4ueW+b7UlETFO59WG5lPcb2K57ay/Tv0gOzsEY6BRLA4kk3wEwgpgCfzVmuRSggDnNeKjN+U4ZrVzZiSnE7pkjE3IS40s1aEorURhHNiBg1R02IhMKQ+n5dmFTMjckkbYgv9pntHPP9ojaNmEmHFLcIpUHp3NTiFiSu9KDk0GnRMpPxkgkZOynBVG4jOC1IHMuSjQVmyzUTjDkr0CkgzwLbHecSBJsjoU78uJwyqjQU1M1GVo36JIgdqOFkFagZWdro0hrqRyMovie7liXvCeZ83/mj2Uv+PCM58XrQ2nayKEnpV+wmPKmlYigFSzTATICeCWdDKjIqk+CsuAsVA1niczzMAqOkA8T9jK3mfL2Xz53v+bfXyy31xGGTFp66aVaatFahUHhdYzYzNLOdRGZZ8jof2aw4BWSbPBFk+xdQOi2D84HQJvzC803kVaQjx50ovss53gXIloxQVjRJQo77FmS7bhEbUaUtZos1Kgc4zjKo6sh3z0K+Ow35tbOQWZ2oznS1c5HlIuc/F466+chwzZJIfElVIrJcXJ9IAUGfySmOqtlCceRX3I2lFQ/g0aov4Ym6v8LG/kz0nViFo2jCaQzAL5QH/S1eQxg0VLBuR9pPtNdQk8SjZEtXrTOvDI+cwBzA6wjgOEbFJ4NGCPTfOANIeuKFX8O3d6Xfv++6tMAsx234VXYUOxIaYA4G/WAlXy4yELopoaGREW1O7vhNGT72/GZMLu7E5BJSGQTlBsStb5LFPQHmwi7EF3WZxbw247tM8O3CpKJYYLbgbOw+Y2iNSaUmsi5qwSTqmdfzPTQzqkFm66BYtDA1m91N+GVy5izAyVHf9kBpZtSqsrExGojFBRmJzBNssNz0TxqofA2ntS/D1Z+J3HW3ibSJizXkXzmV16mqRkhWhaGcrdpG6mIZwZmLgVw4SpTtvQRmUhUcVHRgsREzFzY51Y4BaA4cZmagRUmTIlPxHPcMOKrm4tGND+MomnE6dEKakDq5Rc+jnm+ed3vieRUuvFNbYFYoISBbSNF2KoyojaRNVKy/rZc+0ixkH/iIGXMEZw1A7J5RJ+z3M6MOGAoNYwiv4qXRevyy5usoqLwTOa6FyKhORyYrn9SmwllPjvkmZLtv1jRuyRLlIq+eQx3YknSx2D0HOa5k5NcxQzANpD/yaueCKd+Z7tmyyEjTpLxNsyX9P9OdCBpnif+GlLsy3+tORU41wXqhZF0uK/8cHi//Gn5e8VcobP4Rml74LQZf3YjBo1XYfbwer2EAo7KIuBfDkm24TxY7qaQ5gz04ixdxBi/gFHbhwNk27H6tFq0vPoeKjhV4pvx7KPOugD9AYyT6bHC2Yc+W7TWXx+27AsyR5miBWSKOIALM2mKTDQfgF28BFulRydyfrW8WYJ5U0q2qCQLzugaJmgmgmlbdLQCsfhhRYGZSSSwwi1xOzPE1YhZKw4KzKDfIP5OP1som9M649rkaPFzoYb1eTc0OjiAUpF8A5UMhhBn2sM9x9iaRAI+FwGwweEx7sgeukQRfsu+jrSJHLD9ewSvhzXjC803kVCwQW8hMRjy1achkaSJZHOMij9IWdjFNby2lodwhqQGlB967iFm4UVFcUA5n5X7U6ZL/tAOKJlcoF01KQ/eXihIH5V4ViXjUdR88g/R8eBkjoSEBMYXdGOiVE2qiV2lRGgPIOb6AfkwwCIs+TC6NfBnxwaoLCMwaF9sGoPSUXFR7qXkroELVUZRz1t3hi/zMCEIBboaHlWXBo9g/uhk/r/wb5NLgqna+6JAzXTMk6aigIQXO+lQsKb/VLArH6p+VvsquSUc2C/x6NHPSUUsvZ80qJeeca7036lKR6Z6BDHei1lasm43c+rnIrZuPR5jUw0VDd5JYlubXzkY+fTyq0pFbMQ95lbdjqetu5JXfBUf5J+GsvB/OygeQW3Y/HBs/g+VVX8CyDZ/Fr+v+DM+1fRtPNf9v/NjzFTjL7kX+hnuwdOO9WFH1OSyr/CxySu/Esor78GjZZ1DU8j1JxCEHL+fZ0H4XcBl/rz9yyYFZ+oy02JiI2QCzjT9GwhqVMJo8EwzjEIBHfC/gY883Im5dj1QXoXRuUkkj4tc16UIgawJKVNxljIosMGulEvHBkJRuBVsCr1IbMeBcyNd0UTBhPZ3mWhG3thlTN3bj6pVeJP+qCM3G4BD+IQPMpCRMh5XQiMOOTtZ4PPKnB22P2ryZrylUmJf1oTygIoWr4PvRsPsXKKj8jEw7CcZjgZnKBUtbcCGNkWjsQp/VBluQi33t3ac0rNeDpBsb2kIz2rioqT7L9J+mFwRnBVwIFJCuSUeuez4e9d6BH1c8jFPYjhGcQjCs/CQhmTMtPZsGAIU2EDSMTMwir7+DLiqgTDDgwMtLFrsZ7Kd6SK81GwCBl7d8MeZSm6YQ/QLum91XgjK5WfppMDJUDKfLIgHpLI7iJPrxZPPfwum+E1lVqUJdOOqSsMR1qwCus26e6N7zPGmSiJInTnWksSg/nKMDuWjFGQWrJp5RNzdtN1z8o8tdsqS+c0GQ0sUMT6oEAqxILqXOPKyekigFZOmG56hlAhS/LxHZHkrw1IKUhXPl2onpUioyXcnIrUqG05UOp/sOOFwLRaufV5sMZraSR8+smoE8L2cDSXDWpmG5ayEKO74jC7yRxO8JYH4HrfdtvlUwR+DI3GPblL6jLZjNm6wTYY0RM6mC0bCWmHpq/2lct7pRdcilBNsmTC5uwtSSVkwu9iFhnfpgiENcJNo1GuaIgiMaBWtErOoMC9AiwStmvb8OTC7tQgJTtMUG1IcPrWvBzc+7UbDnVXGetZyXrDD7bSfU46CrFlk0ieH0qUjIxofRHqsnTp8zTxPlg1zpPoURHMNJbMNTTX8v/hlc9MmQIqSpAl4E5VypfGF8ioU/JvjajXwtKQ++/90H4nN5a+VAOZBQMsdBhFwmp+OM7GYhozoNjvrbkMHFrPpUPOK+VaiP3Pp0ODwL4Sz7FHwv/wIjeFXxMcSKz6QFGLHqWdXTq4tJMmLGLDZFzrOe9t/5fwSUBQzUqI4/JIlwBFpedgO41PBysY8tWBb6IuAcE4CM2UfT9mP7gCRY8fOkOUbMxvuE51dwAk141vc3WOa5A3m1KVjivhk5m1Kw2J2GxdVcBCQ4U+ueCIebIMfiAqS/WMaKdSQtpWU17immArtVyfCaqLsdaSQuLmtmoVJQOlCyUjlBl/UGE5ElYDwTeZTbeQjY1EUTqA1dJbOjNOTVzEaei1z3LOQZ+orvyXGnItfo8rnwmENTJi99PVJRUHE71rR+FyNSIovxslrl2uvyOy/gB+gNlzRi1s5ju5DhXiPArFUfCMpsmmzi7Gr+UFiqhxS+fAqfWOXFpPItiBNgbsGVpR2YsrYFUwmkUhIqJvtPaAgCM53kTPQstyYz0Gb7GekcwTkCzMXt8n0EZqE5SnyYVtKKjxU14Pt7joMSPtEwc1JK3Q8PSXZXp7TqqqUlhSKv6eFY6jHSRe3ZkC8hAPg18cDykMeDL+Jp779jacWDyKzgAs0MOBvohZCocjJOLz2pYqavmXIEYJtootGLmt9YpcZ7B9Bq/G4jfE6NrdeD1jfM9c6XKhzZ9bORWTcTjsYkPOKiXGwOnJ574Cx6CIOvlkkajp5OlVep+uFcYDbtaxzALJfZRGgcL3mt/AyGyVoxMOZ3B4GhYaou2AQ4RPCfgnQkOhb+ma9pM5E32zZjI3B5kcDD2JDqBNI0wxpJi8f0WZzEIFZv+iEeq/giltfeJVK3zPpkLK5Jw2LPHGTKoiDTrVORb0pRZXkSkcmagZuiwGxpregCbFQbT1opNhXcJispHcYInIN9MnIJ+pzR1MyUCNzBaFwAWaNxAeYIRaVrCLqewCid32FVQrQrVa6bVAsXuflbHGBYVXxt278KbaXndQKYL8lYwwhSokhpmQabosgkz+rCn2YZcWQk5UoRTvMwcNMzFZi6kYtzVEwQmLsRv7IFU4s6MFk0zAZ06athNk0useAck+Vnk0qsXI6SuxLaf1J6p9vkkk4BaAJ2QnErphQ24O6NTeLfMRKCesTyMJhNzixb+ceOpbaGchLt8cXemrMb+5R2W/ZSEox+hPyMBBkpvYa+IxX48cY/R3717TLto90jV+JzGK14dIEmy00qQDlau+in00rbAd47QNbI2Ubxlk5h51TZn0jkatKQ4U5Hjnc+sutnYUnNLcisvQH5DTORUTkTjrJPobQ9G2exR8zTmcSgtMEo/AG2EJ5Ne2JjB30FQzMu2ne881u5yEwIYf27AEZGR+CnIoRXzLTTmD0w+0OoJkgrP2oxWH6cSM+dsk/KDmq0zDljQPyOma7PhkWA5pLzGQTwMtxbH4Nz3RfhrL1bEk4eqU1EVsMs5DTMQ3ZtusjhCK6kCUQDzhmJJPBo5MsoWmdQrB1oqqEwBdw9B3nu2chzawKTcP+GHotE0h4qPZKRR/8N0UinatQ7ZgGXbdHSagrkuvCs156/LVSVyPpSTIYiB5Z0ZHAxspb2pXORX7UIq32kMg5JsKZFZFVa+s4v4O/3Jy5xxGyB+ZyTZFo0bzTqAGiWLxfCtF16ZsxfVY0rChuExiD/O3VdD+JX+TCVCSZFhqZgVGwMj1TDHPu8SSqxoGxvDTgzOk6QUlPtiC/0CdhPWRelNOJLWnDDs5VoMk5zXJiUfWbnEgqS8KpTWbMKqG/gm2K3cx7qYMXIm2FYEGGCDr9PuPZTGMXLaNnzFFZUPCjevblVM7F8E1fXtepFnjdNC5R6mMJMcI4qG6KRyfsBmLmYZxcgGXHZ6TKnxkwbnossLlRR58zpbF0iMituxXLPXfgv9zdwHN2S4OAPD0lsOhpJ1WU1DhPK8sTZ8NagsW1XvB3XXzCEkGS4cXbHuZ2uJvhNppp8f8x11t9l/EyCTllo7pI2BqbjmxCa7Uf2lQBuPIzDQYnG1YjYcM9+rj3Qle5l9BwpxI/df4olZQuRWzcPGbXJeMRFrTNnJLRE5Zas4CyLfsr5kjcWasv4kAitZE32pVQVOeooMEsEbRJ9hHIy/DQ9XKjuoAJIU/6ZoWm32OxODgq8zryN0moyGNtFaWkTvP7zkOHhlo5s91w4qxdije+fJWLm8DYBzONqvW/+YYXlaPeI3ot+RhQOhCeqHUx7JX/HBcC/rO/GR5+txpW2Xl9RFyYX9QgwU98ct84WWVWPZWqaI9mAQllEzfAj/hgEZxs1F/kkaiY4E5gZOTNqZsSsXHMbbipuxJIte8XD4zSjJUrlZIqrsZHuNUEiJgXbdEV7lHy/bnagMs8IYanRHlf8AyFWcTglRjejeBGrmv8DKyo/j6VVdyKvKg0OllpiAoaX/CynlelSvFU6nnQERqSqSdUkjvcSnAnEjN4JzKoaUY8MTl0VNAgwWVJOi4s/s7DUMwcrXHdj2fqHsOvsBrAuIrWu/tBZ+IP0XOYwTsWEPd8c3Ey0bE+pnGu+y4ye9iK8w1t+HcfLM0OURyqODgdHJF+P15y/IH/md80FNjdmPyPtgPtiBpKY96uuXTXO0pr4mu0E9paJKCE/RvEa9pxtwMrW/0BBxX3Idy9Aft185DLhxMsBOk0UFFzcy6+lVI7m+to+siKez6nIlbUHzfrTqJhRtt2SRAdNLTSvXTYX6LwpyGD9QWPazwVp9TWZoz4oAs4E6yglwqid36EUCSPpJKNRV6P/fPGKThZNu1ZAZ9SejmVVC1DY9o+ij9YEHZ6Ey/PvXYmYY9qibc5ytmNJfQITm69sAT9tavDz/Scx478r8OF1zeppUUjQ7BWfDAVmUzKKi30E5SLK5+gop5VLqHVWoDZctI2YLTgz8URoC6U0hNYgvUFfDuGg2/GhZ2twx9Nl6DVRM93CeDwj9AeIdDwChN20b0VfU1DWzixxgLY0e1J4zNL5SJVQoM9oiVlQr+IstuPXNd/BivIvScqs08OkgZnIciXCuYlZXKyDR1UDoyJ2Jl1YU52wRjHnLsi9e48NMJNfFCUJK3EQkJVT5P0cdnLXLDhrZ6OgOh3ODQvx6PqH0PvqaozgJQRxCiMjjJY1MYGzKp42OcOGxzVIaG/M6zz7nI28ecdm2zvfn22TnB3tHAEqdx4S/5bjgEg5uQfiGEf9sujn3jA2RIZhszPSqnkMOrDYQZqfY3ugQoMb+dSYZsTmFAwjaLxkhkdHJH1/CNtRv3MFlpV+Ds7Ke5BVmQ6htbyzkMnolpRDLRNUmEyi7UPPv1ZB0UhWgdfetwAdvTUDal2alLbKqElFJrcIOKfJtbMDrnU+FClkBOTpjkeumQuNtBRIlLbrrEkCt3yPDgKk5vh5UirLKhegqO2fEMA+oYP0TJ3vKn3wn7ukwMwTq/8sOGlXGdMl+MAEPiYOkobMRJO6MHAbgXltnfLMxV2IK+1F/BpmA5KyoPl9s7H7pHZ5i27FTDzRzEDNDjQuc7HAzPtG22y55njJFIwqN64o7cZVz3iR9qwLz59kDV8uBg1JdQd2ffbLCCKIC508K7GRxEfmdYIyKQ9OhKUjsl2Z13hjLQcI9YGAliQKBYdwGsfwkr8Lv3L9Mx6vfgjLPLchs+IWcOFFMrZqrCxKgVkzv5KjCQYs1inKjffiltNYAjE5RTuA8LmZmgBTO1MSGggiy2rmYWnF7fhp+ZewefdPRS4VZFYYs79MQDzKZAxjlCOVN4hiMVElz6N9aLlofeaNndiC71vd8lqveOkE5j+xFkV+wH1iWHLSTgvtFAS4aBsYFU6Y2GlFc2wBIt2wOmjuWIQEkbzByH7KS7YtmJ3XwyKEs8WQECFgGw9vAjiNhbAPR/yb8WTtt7Cs6n7ketLhaGB9wJlY7J6OLEoTqXs3159RKahcBwAAIABJREFUMhfvJJtUFtuSRL2hfiWqM9eF2qgenjMuVtSR5CUqKUT5Y/njscCuAM/X7LoC2xvB2wQPQmkkw1Fr1Bo1qr1mIJHtnSGqD9IiBVW3Y03bd8ziX2RO8sYLeBk8c8mBmT2LDTC240QbZMw0VJqv7Uq0TFHT/AeeWo8PP1ulwFzWi0kb+hG3pg1ThI6wETPBlGDcjfgimuOrlE7Mjhg1x9T3i1Aals4wYMwIWRQZJvFEIua1rbi2xIfrn6vFw+s2CZ3BDsiYeTSsnUzaiD1AoSaUW5QOajqd7WYqqzKvmM/whs+Mhvgu8wE+IfkrXKt/DS8HOnAQFVix8UEsd98BZ81c9UuoSVPLTHEPY2eg9ImSKOUC7YKMStXs4kxs5/ldgK2fiX7eyqx4y6QRu8V+j/1+3hp+mZEbeUROt9lJvboIWNCQjsUbkrCs+h48Xv4lVG3NwxB2YJSGOTwZ5hzR4IoPRw3dJS9IwYHoe/hW/Qjv8Spx431zTmPaoUSmxHWec1YYYYo3t1BIFngZLe8CkPzfG3BDSQOSnynHZ58qQScgiiEZkFk2yj+KcMAvA4a6LatZoizgkZu2xyB7oiGKfcocWuzuRXbXthdJCJdZFLXOAYiWVNpGECOhwziDrXDvyMOyygeRuXE+clxz4fCmCwAyzTqLGmQqKmhaJMCchEx5jub6mqxkJY3RW1XzqIIjzfiEz9KFP/E8oQqDdJmuFwjlITYAZhC2vLJYkKbLGoJSIVpthUZM6pbINjNDgDmL0rvaOcirWohVbd8Wf+gYskjP0WX2/yUG5rFnc0xjHPuSPIq+rk6uzJrPbu3Hras9mCx+FtQZ0w2uDZNp2WnlcOSEizsw2fDEcdQ4czOUxBuc5Swo21uCsd3sc6RHCptwRUkr/qC0G9N/uRGbhrRjcr2cyzZ+llgXfwA9GO6/xjgq84keop032G4ZfYX3+DmZFVsxvT4QqKFul1N6Pw5iv9+Nn1V8Hcur7kGei168KXikivXe5iHHO09AenF1okRGtHWkrpUVmTlF5ZSRkTY5SNU9j42UbMRkbxlp69SWU00FfJVWMaWaEc9ssSXNY0ermS1gwM+wwrdOqZOR454Jp3c2HDXpcNTMR45nHn5UPhNLN9OKMhE0a1pWcxeWl30F1X2P4wz2SskoDm2jo0zA4MBtDJ8YLZstcvZ44mL+og9jzjOflAGT4K7Ms5xeCXr5Pl6zUYyEWZ6KBb8g1MXaV0dx03MeXFXiwzVrGnHDkxvx3cYtUqT3BBljEyKHA4xsgSGqicwyg+y3MZuXH5ALHBPSR3ZP4YcPI0/J/vJRROGv03qhTqLRCwd5+kyM4gD2DteipPNHWLb+C3BuvBPLa+Yhj/p3grA3BY9Us9pJqhjq59SmSWVtFnGVJBB5rAvIvHbi9yy0GHlhgrTq0O2tbR+5tVYGqUAuMzNJaDFRtUTYakeaWctoXhNYhLag3JOudywEUZOsmmtG0675WNPxf+SY9KxGr2jMZb4s7r6rwPxOzigb++sAPK8HcMuTGzCNJkNMLCnbiqllWxBXSM3yWL/lyUWt4kYXJ7X8FJgjC30RwI1Z/HvL5yjBa0Z8cTPiVjfj5rUt+FZFJ/aaFG0pIBum/lQ5Z+1K7OSxvfCdNazYqbUgtWimyTP6MRI6ibPYj9PoxpN1f4flFffB6VoApspmulKQyQoo9QTnWeJfnFkzHVmu6WojKsCqiQSMdiQTTDhe0gwEaBvx2qms7XT8jN00lToKzrNkkYmJBBwgmLqbzY7G7zVWnQ5OVV0zxK4yo3IW8mrny0o+AdnhTkWBaxFyij6D7ldX4yz2YYgDUDhkQJmYrKB87u3bbkcCclFgtkoJLgcQTaW4iMyAhjCCIYyEWOIV2AHgvqfX4w9W1SNBUvZ9+EhxMxKf3IDcgQPYDYiniwSvIeDsMKNmXSsg0xEcVZ8Hwq20ANsk+AFugsJ8jXtkBgszQMsHIgOJcusEKXWq4ypkDIXDfQ/T2/kYhrEbva+sxlPebyGv6FNYVnUX8mtvw48qEpHppp9zKvI2zRH6yNJbzk1cNORgymucarLw7GIdQZPtw3g7n+fWcsxj9PSG8tCZm7YngrJ6vigQ53uS4SQwC0XCZBi1HmA1lzUd5JgP6PHq2Xvbl/uD9Mb3LTCz7Q6Hlc5If64KU1fXYxo1zYXNmFzag7g1TLG20jjVM4uWmVVJBHBt8snbBeJz30dHuhZMLaP6owlXFzci/Vk31p2GLExKFMbRw6igeFeDKO657YHjAGa2MlkM0ooOlFUNhU9hCMfwOrajYmsBlm98AE56F1RPR0G9lhZaUp0Elhyi2TqBksCqkXIyHHQn4wKhNxFM71XTIE5LNSpWH99ZRteq4KwVRsgNK2dsF4zG3hoZHDP7vJqMkOG5BYvdH0fe5kStUsKFy7pZyPcmI9+djOXVd+Bn1d/AlldKcAYHMYIzKjCzIMbTKGsPY8H5bXe+2O+Rr1IY5NfK5eHFov0mC5AigKEwZz8hSSb69esBJK914crVtUgobUX8ulbEr6VPdzNufboSK0/6BZxfDakJl+wnmQ2bjSJEMRf7dF4lPPGYHddFP84MuD/cVdtSdLc1Wub//CfAzNZF43lJ5VZ9tQxYEhqcxenQUYziEIbxArYcKsWTtd/F0qoHkedeiPzauXDWz0Z+fTKWVN2AgsYULKm+WXwytI0YbbKbWmXywKQwDCUlA7heU00yOYdfFrqK740d3EmlkZ+mERIXEFOQWUdNtbYTqWXI3/JoRJ7lpXRuDvKrb8Pa9m8jQE0Wz+Fl/Pe+BWZeE16agwD+orEPnyhuxNR1TYhb70Mck0zW9xpgjsn2k+w/KjRUPnfh0TJB2qd1AtfUYVIlVRoNuG5VHf6ivle45iFOtQ3+snMpKFvK4sKA+dx2yOO3HZWKDXb14fCI1GY7gR1oeekXeKL2f4p/bgFLULlmoaB+Hv5z43RZNWcRzix3ikREkWhWpqkzkc3UaJHWKV9IcJZEAiYquCl90o42Fpi1JJRVVmR6Zsj3kDZx1DETLJqMQB+FrLpbkNs4U93xWIeuMgV5lfOwovLTeHrTt7BvtE6SCegOoQw7S40ZH1+GoOMBZtuATP/WG7OmwcvDC0adMB0OxXpVM063AViwciOuXu3GtPWNSNjQoo6DpMtKenDNqkak/bYQHkCcB18Pjoogh/vKRBQ6JupVI/iqFE51zXxso2QFbAXdyEU2kTRvuE/cNJomNI8FZ6o4ggiQ5478Gs1Jz4i/M4svnMZutB95Ck81/h1yi+5Dftk9yC2fh6Xe+QK6zMaTLD5ed0rs6mYLILOqCdsRZ2IyW2IWIdvJOVtEq/yWwJwuyhB1SbTAzCKzVGGQDlOaRMpo1cyGs/o2FPq+gyCHRxlBz+0Rl8/j9zUwc2GG6dDPnwJu+e16XFVYj8nlXYhb60PC+q1ahHWdrfXXIt7L6hDHSJrbuVHwO3msJaviy9sRv74d0zZ0YGrRZtz83xtRcTqki0BsJ4y6pJ/rIqeGP8qNjmfUJ5DYrMhR8WVgdw9LEgozxfxg7bijODTqw+rN38OjZV+As/w25FWnYXn9AmPzmC5ytGxme1HbavlCytRY3UKiHF2kU60pQVo9kW0GmaUydCHPRFEyXWWqLRf/1MqT0U+eKxUFnjTRI7MyBk3ef1Q1E4urpiOTNeaq74ez8CvoOFCIYYmSj0uhAC71jo6eVH5BMu4M2pyHyni7XZPnj9cl0r95x46XvOUUh/RDgBz+KE4giBcBLHvhMG5a6cEVLL5QvAlxRQ3i5c1SZlNKunF1SSc+srIO854tF4MrOggLoRUckes14mfaOBNDrKNcNO610S9/j8DLlBXuirQZ3tHRXXaOkMxj4G7zlpv+b54R/t1G/UHxNdc5AZU/HBBoQH8cw3gJLx7fhP5X1uHZhn+Fs/Tz4giX55mvaw30zK5JRIaL1BcHVi70pSLXRZN9lbnJQp/xxdD2wLWKGG450o5s++BMjVI5AnO60GtCZYjnBtsLdcu6CCh0CRf/alLhrF6AIt93RSoavXBv94p/sN73vgbmQIAJyhDrzdufKMTHixslNVs4ZEkwIYXBclItUuWEJaho8amgfBGAmRF6STOmcCFxNSPzZly7pgYPra2WNG0qR/hnJ6acWkZ6EcXJdjHPvO+d3Ciw6GSYXXHU1NyhQbwmWHAizO5N86O92HJkFf6r+uvIX38PCirvQk45DW7mIcuVBkftXElGEF0r07gl8UCd6mLBmfSERtEEZ/oXMLqhHlVLFZE3jE5ZU+HwEvBnIduVIqv3Tk5HOQhUpoqPcl71vcjeeC8Kqu/DisovoND3fRwKteI0OO0meJCmIBc0JPAWDg6LDWYwMIoAFQ/jBGbDNEXxjODHk8noVqLxEIaHz4iEkTplFmiY+99luI5+K2tbEF/eiYSN9APvwhUlPZjGYsCr1avlD56rxdc3Noi+/ZCkwRBueU04eFqOS3Wg/En9acbMjH/FtktiYoFfvdhRYBYSXAd6C8oKzDEtiIMKqRNyzrFv4oFxIBdZHwceBekAjkkVkkPYhKpBh6R455ffh7zqO5DvWYi8mvm6SFvLhVzyzcz04yxKk0VyqTfmArK0BWPbaixodTFZB3iluDjAM4FEKQ3OuoTOkNRwAjbTwRmRm2zQOq1lWFB1GwrbFJjZLKQ7jaMPxZyt37u772tgZoUHdllmAeZ27MCNz9eppI1qjA3tiBNlBo3tWyELf8X0aTbRsk0iueComd/Tinj+xupOXLlhAJPLOjF1dQ1ueaYSzt1HZSqrFuqMfkbFijIYpGWkemmMp2GxrxG4qCUYCXBSyz/+zy5OrpECLZvSexbDOIoT6Efz3t/il9V/iWXkn2sWIUMWBpmyPVvu8zFtNlnyPhZkeV8kUryVLC5TBcOVJmDLiJiva5otq5MkIYNuY8wOM3XncmlG5ElBhisZK+rvw7Kyr6LQl4EdZ8ux5+wmnAXN01/R2nGSjh47swghQJe9iN6bJunjM7HRc2bPG+kAPXs8g/S7GJWq1fTXDkpF9G93voiPr6zHlRz015LK6kTcGroZdiJuFT1aVD8/qbAFVxc24Q+fceGPNm5Gn1moHuJAKZVVzAKd0CVqfCT4yR2SRqGadrYdxtMCwfbScufMlVZ6RyFdr72+NuZ/KlXEX4ODQMxGz3BuLEIRJjgzrj+Ds0FWHKGt6DYMHN2AtU3/CWfxl5Ffdj+W1X4KWa45WMx1Cm+q1JwU2oHUg2zRWoI59HU2vho6m9KFvQgwW5rMeHZkepOQabwyOHOTtkbvFO905NRNFyAvqFiIwtZ/hR9HRS45nv4z5hz9Hj543wIz2ymn8oSf18PA5rNA4pPVmLK2FXGlLYjbQAc58n6dMtWk6VA0Wn4nlMWbvFeST9pEM31F6QDi1pBCacI15e340Govbl/jRheAY9Lk/fAHRzDKhSQCs0GE8TQsPX5GV+y2JsyTMMIsMxKYZTFIQXs0PCrRMymC4+hE5+Hf4on6b2J59YPIL78XBVWfQn7VXSjw3IkC70LkujR5gFPOsavr5P00a0xNbmh0o14K7IiaNKKuY0tcSXBQqudegOyqhXBU34Oc8k9ihecLWN39L9h1pkoqVoxKhPyacOOcA7CgJ0cvMaMnhkmxAEIPj5TxJAccPfLYqPkd9S+eQJ42uRb8ZhJA1NAoi0FgZtw6hJCUD9s8DMx8shJX0YNlTRsSSrdgUiE9WToxdV23APRUug8WcYbWKlV1rixuxfXPuPDvLQMioyMZw0QYDs7y20bcTMk1BTa85SUk6rBaD3ljznp4Kx/gvpqP8m3KMBPd9dG5xy8zNDlA2z74YZM/bsc8cwpIC/JPb1kejYkqR4XqOIYObDm2Ems6/wPLK7+C3LLPoMD1AHIr7oaj8k6Nql2LJA2cqdO5NNByaRq3WrkabwzhmxWgbbYfHQXFMjRSdNcGBFTw0M95BnK9rLqSjoLye1DY8j0pM8XybbFeGXqs556BD+7j9zUwM5Zgc6J3BovN3L+mHh9e2SALcXHrW9SrmdGM8MkE6rHyufFwzEwwoYMdswwTinuQUNyNKeu7MKlwM6YUN+L6lS78R9ugyufYH/wBKemu+0z7Uk1YYEe40EYlmKJnIIaAjMzxzMq10gHs3AHQy+EsAjgtfr4B7MWhoUZsHvwVVnr+HT8v/QYeW/8QHi3/NAoqFiGvir7H1LWqiiPTOwtLarnNRgYdv7zpyKLe1ZOMrBqCsfKRjJCYsed0L8LSyntRsP7zeHz9n2Lt5v9E5/5VOBrwSUo1ZVwEABrxqI+yURVYoDFAxO7Fu7zWgluxmHqhfc98YWhUQUt5eS6okUyg/0QI9L4ghcFkkgeeKsPHn6/HlCIW+eV11mK/kbR+62YoLoatsjCcsKEN15Q0Yfrztfhe5z5dFDbH5D9tFodDAJ0JOSDQa5wMg8VhPVoz0ArBrFG9CbQ1kpazYk6QORf2tLF32E3OoD2JesiK0WybZtNzy+PnkERunTX3aJJ0Wrw4OICexot46WQT2vetxrMtP8TS8v8F58avwVH2BTg23ofssoVYWns7uEgoHDTBtWa6JouQ7qidJTrpfFbmpna5eoZkINLTI0tmaaqlz6yegTxWYqli8d0FyKu6GyvKv4jitiU4i4NSZ5GUEPvPePrQhTaf9/pz73tglvpuQS5jAD/dP4Rbn3XjIxsJyo1gCjU7jgCwBeVIqag3iYTfJrVBjw0u9kwp6kJ8YbvwzCzqmrCOU9wmfKSoAclPleMXB2lSqFal7A/+oB+j4nWhUd/FaVS2N/P2HE6Rz8iUX6eu7Mcyo6UDWogsOFn6owhiD06iCy++XobG3Y+hpPPf8UTt/8Jj1V9G7vr7kL3hk8it+DTyXA8gu/J+ZJR9EgWez8Lpuh95Vf+fvfeAsus47rwnA2AESIqkkiUrU7SivZ+O09p7dr+we7zheFeSgywHyTkHOclJVrQt2VYkiQwM5s17kweJyJg8CDMASEWKopgkkZIoRmAw4c2r7/yq+39fz8MMIkUOgHfn3On77u2urq6urq6uru7+Cfuw7i0/6ccBfXzrf7O1/e+x3V/5qN37dI89YWM2aV+3Uli4HMwtripiDI3bWWJ7dZURCRKuspAJghka6p3inFcIEMjlZl5GHmESbnJ2yk1DiEPMZA+b2R+NfMlevX6nXZ0fCuYLjiZrZ/UoPFQ5V4GbJvMNrDodtLruUWva1G+vad5vfz/6NRfOj7FSOxZkaoqJPrPjs2EpkvMIkpoHjwOSiOKgyyNq+UUav0QMhRl9EMmhXIRuDiEB8WLeToJMKIepweAhwsEO01Z0rTTgGhVqz5llNhOlR+wZ+7o9auP2sA3a2GMttue+T1j70ffZhtH32sd6/m/72Ob/5IcZ4PHx0S0/YR/d+h/tQ70/af/Y9RP2j10/bh/f/lP20d4fs49s/mn7yOb/ZB/s+Qn7yJafso9t+Wn7QMeP2Yd7f9o+tuX/s9v7ftlaDv6J7fjCx+zYNzoNe7gfPpEI5kiNyya4OATzVDgLkCWxb72tYNfld1tNod8aCqPWwBFT3oDwN+bEbDToC/VhZiXgIatrG7PG9jGrzzPhc8B3nKvvRIMesmVtQ3bFpn571Ya97jp1z6zZU8zFuLsUewYfD5vUXMjkhRqjwoQt9cpD/qmhe4jwpmmz+AX/XPb1fdpXEM4YR1gxEfQNm7CH7Am7x75dPGLfnB61B0/22T1Pbbcj3yrY8H1rbeCrt9vgV1fawQc22t2PdtrXntpt35o+YI/bF2zC7rdJ3zf3uxZ8VNjdhHVzceN/P8iOvaYhCqfToC2zUAIEy8I3lCMtQFIWXp/vRVpIgGCOejJzFiE/syeLJRfK7d+bsbfk9tmVG/daXWHAJ3hre46UT87pGrGarjAaqysc9g206nyCedhq+MZ+LYVBu7ql3169bq/93Rcf98lqqIENe3rqGRcyJ4top2YnpuJ8gYrsnQcdlvRkhGygz9w61UvJXgRzsFVj/OE5aM9l2gaWQHjzHRszO/TBE+SHxE5ozYQh9nE3M2GDwcjzpPMKp1jjAcSpKpP2iE3bo3bCD1x90L47fZc99PSwPXR80B6e6Ld7H99uRx5stdF719iBe1fa8Fdut+GvrLPRr26y8QcK9rXHd9kjk4fsWyfH7LjdF71zvm2T9qjN+o0f1gkrnjzuGoY05vNlg4s13aIWzCeL9OyzVppkmB78Rj/6+fvtReu32LKOIWsqDLtwRpMNwhihzH1h2rKnZ+iaP2S1+YPWhOdHYcDqOoE7ak3to1bXitY+bsvbD9tPbTliv5Tf40t50XtOTtMAaGhhccR5MYcarhoPv+OlhpuFc+LS4NDIaKg0yKmwzzOLIfw0cg4jmPX9rxnQBq2LSTd8iZ+yWXvMJ4fYeHXWHvGbyaKiv+eo+Wd8GEw64MwUZ62IzRQV0cfMhMx+csdnjg2LAiHYjsvCI2h6SCdqOJpp5imzyn7WoWgCblEwz8TTZ8iNEdghM/uRlV127ZpdVkt9dgxZTS+d8qjVIJwRyJlgZnQWBDN7gWNn5tDems5Rq+0Zs5rcoF2dG7EX37HFfmf/mAtnxionS0wKT8WJTWy7szY1E/VbyumCOdRX0Jx5EUdFogOhKjt7TDXmYKcOwlnGtGDmCHQNGnmoA85N9N4qdFrMiVBX3pGHDqLEJGwxzGFMTx/3jbXC/tdmk5PTNhPxByW07mlfnMOSdm1Z+6gfqFqyb1vJjwVDGXjcpuIzU/qTxRO+namTYNbM68bbzEnzY9wi/zw7I86z5ppFE3FRC2YXLV5BrKqatSdK5hNur729YMtb9tqS/EBoID5Rx34ZYbvPIJgrh6DnKKzbEMrxhBMaaPuA1XaN+kGwHG2FeaOu85g1sANdfshevnaLfWjsqy6c0RthWq7ztS87gKzhCqA3BZ8Uomkrj5APjYvVYWUXKnxps8aYaVShwSJYaZm4q80Wp2x2ZsJKxQkzjjfyM2TYbvO4FV0QsyoPjYtz6YJ2hoD1obAm6Ryfom+JGXx4ETbRrOKCEc8A8AnD7qDdIYyD0AhhWWC4NpcWMJDznP/jcREm2AJsVkvTebKs+v/Z3G8rWnZZU2HUajsPWx2rPNGA8+xYiJaMsGbPb0Zj7M3C9wOuDDTlR60JhSA3bHVdbBFwwCcEMXG9eEOP/Uzvbt/0iP1e3EgxRb3M2uz0lAvnKH7LAtdHEtBGgpXCSzLzfCoxAg/oP/VKWlqNOrlQBxkYSBAVZbpk/qZLUzZVnPTOO/QSYBbusMVtqC+fjKP7ZNJ0NtyTxXJXgPUeF8gpYyFU8NOeLE35MvdwsAA5IrwDLwU7N3UDJ6ikKAgnbdbdJ8PoivZz3m3onLll8SRY1IKZCmMf2uDmgP5XMlYC/vldD9nLmnfZFa19buvDRQ5zRvnWcu1zFMappu3wDlmdm0ZYcRiGrOydwEx9Q9t42OuZw1u7DtrSTbvthzdstY2PnPCJyqeYiY+COWWslNHS51NYorJdesMEIg0vNtKsvUIpCTjiqB2XgaDxsCqNcNY12CCYyy5WcRofLbdYtOL0tM36rmsIYmnWas6zVvRTqoNQKAvoIBwQhOmwOqQPAj2kUGnBQXgT8jviHouomOcaOm0dFGIqCADIxiCdieQPHb3Pbly3xZb0MjIaCfbkfDjCDDfJ2g72SmHxEuYKhPJhr2c0ZLTlpvyILSkcsGWdR60md8hqteBp025b2rbPbtqw2X62d59r5QhnurvJCbZ0Rbuli+J/FLexrEFUStPlaxCQIeR3lmIBckDdIJw9jaRwktRfYfaPgtm7LVYRsltivKl3h+Omn8Bt08UZ71AESpjBbb6/CTA8VeD7CXgolkBY07EzGRzc90JpmSRnFEEuTF6XR3gI5iCUCS+3a9EKZirCfYKpHGdjliJPGfvkshDgNZ/tsKtz+6JGg3bMjR8zdmfuIKwvzKxxKPhKtw9YTSeaFAtZ2K9jzOrbOE1lyJpw3SsM2pLOEVvRut9uWdNr+y3sp0FjlI1MzEWo4ZkYbyGmC2I1lL/kIgXdaz6tEtan2+KGyaMiplZUwddA5E8iIIuvdPOEc3CMCWZnmGAMwAWjrAGRA001CmkalyKloQP25u1xQ3M9swiag0/FD9HVh+hRWEwWGXJjnDH77MOP2WvXdNvyXJ9dtfVuq8kNWV37Ybum6y5rbGHFHxtmDQbfeD/CLApmTFmsCOwYNo4dq80NWT3byrYfsRq2nO1iy9lRq2elaFu/rdi4zd60vsd2zgRffPgBekwU2TRpxrcLdQtQtPy4acjdCKMrYVYPob7mUCWlYfrstAgVz3+Eo34hbLM3bHmKmyIfE8tJEiNoqu76FyPECmQUgjmEMK1U3/0vqg2ghDB3vhd+3glPC6GQNKs7EIEPyvzLJ9VlFu0yeVjUgtkZhlMcOLbe3Xum7HtWcp/R3xn4gr2geWfYz8KFMoJ41A9RZbEJwjlbbJJpwkwKxuOmshl3CfXKMA5fge0+08PW0HnYbc40RPfaKAxaXes+a+pmYnDIG/QNuX32ps+02FEz90+IrqzeJNx7AqZ2FyBse3Ew4MwWuFdNkF9BcCLYgEKzRqtMWhGR/A0xgyNYKmxjO/J8Qsw4lKVziENI16+i7Tk04NBufOFibHYxk7QNznl2mZvI3QCHkoAvd+xMQqFCBsrMyyD8gzYpYRKKV/7PU/iVlab8JvkYtgflEFVGCGiDbC+Pz7lZ7huP2ps29NryjbvtKjx6WjBjHLKmnjFraB6yK9vHrM75JXTudPBBY6aTRjDjksn8wrA1Rn7wrWhdOCPA2dXwoNV2H7L6jkFbvmmHvXlNj/VMmntsMCnIgD0M9rE5B68IBLS0Vhd87tYRyhmKBj1Va5EKKrNCkSWKYugI9UXVUB9B+Dn4avhQAAAgAElEQVQhkzrw6YAotqUFZ/Xuq2MwS80VxIEXqVsABZxcEFfgwSdfiTiLqS2aV7C8peActhbFlNtFVTBnxFwkD9Rz3MhmtsiECcJ5Akce15r3Fs1esqrTlmMXbO63JW2HfWXWEnehG7KmroNxGCr/5rAYBTt0OBsQMwe2Y2yI2nA/DF3ZpW6um1QU2ghzeYDgOoeGXhiyJTRqVgjmBu3K9hG7qdBv/7l30I7ESSa2Lz2ByxgNyzdXn7UZnFpjwwjMHIagaIzEpHEEVqc+eBLzxwYQ34S4QS8NOcT6I1oZwLyVqigLhfMmOouX5WyTlr9QJuXIUY9HAKnEiBSJlUATL6NHiLDx+qBnkPbnAg7dEBs4u7+VJ47ZeOiH13bbTZv67crCEVuSO2L1eU7FwcOi3xo68PQZ8kk+P6aMeQbVd9a5Bzuz84f4wX2cY6efeQSN2tKuUVtS2G9X5HbbD2zYYqueLLnPtO8KEk9kQXCenAna/KR7bkz56sGil0t1iEiGEuEPDnEqRUJBCfEMz+EXb0jH//BXyUMZoWOdiu4Kz6KqzxClElL8Xfnaocz78gzwL93Pi1pjznpU5zYqLjjEo3Gw4cwff/GbduOGHbZkU79d0X3UmgqHrK5l2BrwaW7trxDMNKjoteGThIlgxifV7YnDbj9E8w7aNnHmuxHUo1ZHPnk06UN+17cfsEYEdH7Ibm7db/+nt8/GzbwjQVNycUOhkCNTjF8lb3kIw/5gjw1NixKfeoVGhu5E8wziPBughuiLhceFx/wFObVoc95QzlBCvQZMEDS8QbtCKEdt3FXPEPPkNIsnOER12jVlzF+7Z8zeur7XbmreY0tbDlh9/qg15Md9EVFtJ3MIfVbb2W/1mCnwXfeTcM7fwwf+wcWysWPUGjejje+y127YZn8xdq9xAjweG09MY5cNJ7OgLVNeHTrrZgLRzwUsgtktwrHrLg9RiIYY9k7LSZAxlkhXDS8yCixawQyz+Ww2irNvb4hNa8Kmsc/Nzrq700DJ7K13dNsNPrw8ZDXsmbvlmHtONHSyh0awOQfNOK4K9Nl1zbCjGYfJnHrMIAXuA1Yn+/S82hKCOghmfJprCnEpOJv0dxz0u44Gmeu3G3P77P/desCFM1rzScaLpRmbmqYcYSbcN0BnGOe9EMI5aDqIpWBvpcGGIWwIQ2tVm1XofMcPtcmyBHv+WHIOcueKhgqTuRFkUjlQJkxfzcwW3SvPl0G7Zhi6KkZYmGOYeOs0s1uae+3GQr8taR2xpSwewZsCIdwx6CaH+o6hMOHXERYt4RqHL/v8HfN8nXXFOz/M97DVrO+zJblRu6p12JYX+u0lG7fZ/+jZa32zwWXvmZN4IQTzgm/jyUh/esaKfoJL7MtDN+SdTejcw/usrhM6i2qLofrPtcar8csUWLSCGcaShZLVdN4qmS32vQjCqi1c0T/+xW/ZinXbrJZNjZica0c4YkcOWm/w2AgC2AUqWq4LcgR1MFGEOHh1hFO1/WTtBYVyWTDX4MvKvs34vZJ3BzBGbUnPeHgujNj1G3fb23vCRjcICVabIVIwPszMovvHobjPPEuqBv0HIR2GrcSvaH36eUqIJhXvcj1fvE+SNFIHXVEMXdak75zmosqpM42Q9o5t2pdHcNL6vpLZ65p7bHnnfqvJDViNH9J7wJZ2H3QNubazzxrah6yBzjYuUOKUdPeNPy0PVAjieUdWh+z6nV+1pc2jtnQTe2yM2rL2AXvRxjvtbas7bfeJ4CES7M5mE+wPHe252UklUTGeI2jn1HlS37yPZrC5prCLt/ovV8wXrWBWe2SEGiZFYLWoKcRZ7BNFs8+b2a25bbYkt8euQijnRsPRU50MQ6XxBA03sym7XVm252TFoJ8VGFcPnnZpd4TXirZV1pLdzpwftsausNlNQ/uIXd02aNet32o/3bXXJwRZvv1U3C2uyMx4bEyZ3HUBHQRzxpRpQ6SF6nMaessNEYPYCqI8g7GoH9IC6jnWdRRMvM1olD2Wwsw/o6tpSh2izExO+rFkHcfNXn17u93UNWA1rft9foCl1qGeMF0M+M1cAcK4pnPMarqYvGMBCd4Z1PPZCOD54nBYw5BvfLW0MG7L2o+5nz1KQ8OmPntJfshuuW27feKBGecLTHPPMDHIiIo9otnSU/UbaVCuwkCjYPygnp06ofAJe8S35WTVp4uGAotWMENBRvcMUWlyrh1hCZAaDdOW2AXC7DOPT9mLV3Xbik0MVcPS6WBuiDZlXyAQJvrwTWX/5uCfipYUZ9JplC6YCRHOEuoLNDomCNuC+SLYpEddSGPaQFhjVmGFYGNh0Bo7B21Fy532f61ts72l4DqF5uwL0Ri6quGF9lbWeNMJ7+xbYq5Qw0UiuYQPjTRYq7N2usiZUQXzQiSFq5TIQexSTEwU8uKicPhcc2H6YmINTbn1gcfs1lU9dlPbkNW39vvoqI5NqOiwW/qsiWPK2jFf4LMcPXC68FXmPeatCxfM9d2H3FuHRUg1+XCQcG3XUavtHLeG1lG7dsOgvWLdfvufW8btXYXdbvKi40aDPinbuXobkSnWJj/lIAkb+OVx+BdMXxcLBwj9alimwOIVzIG/nLcQN64FikmjUJ4ssorffIe3391z1F60frc15oMpwRtgG9oPs+5oQwjhsPlMvW+szzMaURTM7uZE/FTTnk8o8y5ozCzR9mXavjBhxO3NmDa4fSIwP2r1rYNW2zZgV3QP2XWFPfaaNZ3WE4ewOGZgycAzKhM0lJHyudlRO8cFeypTP/oLQ3YiR+ntmnZoipLXgF+cF5ildyxHZjQN+wj7Mm96L7THGRa8sOt12AzIaYf5eXImLOHlvI5S4IWPfuW79vo1O+2G3KgtYevO3Ig1YrZqG7SazhGr7TwYhLG8KZgr6IrucC6UD/hcw/weGQvxRMV7zCAF+INOftQPeKhj+1AUh/aD1tjDJln9firP8ub99gMb99ubN+yyf7n/SZ8c/I77ILE+jl0Kwx7fzhNUbuzMvZ7pv0Q+fwEz4StMZ7V4OWBx8uXiwWrxCmZoBF/5/sYJg/m7wJ04UuHh+2TR7NCk2etv77Eb2Pkrx4rAA1ZbYIew8aAB0/hoIO0j7uvMRF/wvEAzjpp1dI8KKwhpQKERzR3O6j0NfTQ2cLTlsILMYeZH3NbdmD9gjW0HovAesPqeg3ZdW5+97jN5u+2+77lfK5OCrj3TwCgbjQyh7GZ1Xga7KYI47N4bQgQ03VVIkGqXgWx8Sai2eDjOMVFBhf/c0P29fcc8JC+Cht4L/ZAlRtPuB0y9I5NPFoOHN5rmF83sV+8csVdt2GNXrB+wKzrutlrc4uJGVOwEh2uka8gsDCmMWw2dd+afzHaeaMsHrTZ/gedGsgkW/Icg7qHzH3ZtvdZHYrhnsmhpn9V09lldxyFryh+yFblRe8XaHfZrO4ZtJCoczEvgg+0HkuA+GlZ2+2iLPovbR1wZScPKzbD58+LlgEXGkIsOnUUtmGGrOaylF64iFG1qloWtCLGSa86fuu8Ze/W6HdbEAardB62xMG6NreO+Sq8mHybo/CRtzA1uR8SWqFn4g1Zf4A72RZ/Qy/yZE2Hswno+gT1XYwJuQyuCGU1s3Gq6xo1GyVLeFS0D9oMbd9o79hy0A2a+Go39B1wgn2QykA4pqNEzLOONRPCNwyNN/FVGj/Rl4LGY5HlluIXnIMGuLIx1VBbvfEEIy8c5JGEmLgPmpJHSpLuSuTfv7LRNzs74Xna4wo3Omm3mENWWO+2mlj12TdsB92tvyB+yenWOheHQQbZhT8YdLtw+0Ys27aMpTRiH3QXndshz6/dM3/CVr88fsTqEv9uvR4O/NCtIOxHKfVbX3W91Xaw6REM/ZEtaD9k1uWG7qXm3vXZdt330oe+4/ZkynoBc8D0bIuGf7X7N5QlydiGZ4PRC78jiqCsygRZpzF388byyxpzMU/wWK45zEH4OfixawaymmwkYVyf5pS9h6mN6mt2o2DbF/By+X9g8ajdu2mF1hX4XivWth31P5WXdx6wuj4kheG0ETwyEcHoH1zn2Qgh77sqbIw3PLJRptMCv47QLJo+YUOoad4GgfTauKIzaTbnd9oZ17db21IRrz2hGKEUnp6dteiYKaPd5nrHitHdBgSU0fBU50tDpoxfPAQedJotoXamIEZH3zZN8WJD1KhLK5RoOgieMFKZ9kRG1zggDE9bXzGz1g9+2N35yvb1szWa7oXPEvWPohJf0HHUPmdrCsDUyF4BgplN1NzYJZjbDZ8REnaqOVb+nm2M4CyHto6+wmCm43eENxOk7Q64t13b0W13HgNW5m144xorDGFjqD55X5fvslc3b7L+0brOep0v2ULSfH5+dsYnZk36UGSe9+EZBfpxs2AcEimIWg32q18VLgUUrmCHpXPFS1rDKwnnaptGkrGgnSmHi5+C02S0r2+269j5r6GEBCDPjI1bfyv4FHKaJ2WHMXINOG6TvIsYqQGzPutVY01AN90yNk2Fz3Pyoe8RquzgR5bA1to5ZU/6ILS0csau6jtiVm/baS/Pb7L3HvmgHfUv7UI7JUljNh2aE4YZdvUQPaaLZ70irwIbQyY2Nc94uDhYVxtjFgzkKYczmOfrC/gp8YQQxxXL86KkAHaDAUyWzB8xs25TZf9s8aD+wbpu9uH3YN7lvbB20RvzRW0f9MFVf0dc5aPVtg9bUNuSr+vDA8NWb0dRAR+nCWa5x0YVyfjPWmeo8/Y4gDitKQyeNC+eYrzplZMaWAcx11IEPcyA+ojoSNuhv59uQLWveazes22Gv3rjDfmHfMds1Y8YmXr44n90A44KrsPAkjEE4sAXNme2Akq58cVR/FYuzpsCiF8xeEle9gsAJdlXesq9w0BzCZoGBMfHS+PRDT9lLV3VYbX6X1WzFlMDky6hvel+bO2gN7eM+MeOND7szwphG5A0pCOWwLDsVyHo+S8EMXIasuGp1hdl/b5D5w7YkP2ZNbUespnnUmnqPWkPnoF29oct+rKXDmh97yr4SPQvwMDjBZutR1E6ydSRGAO2vEN/zFgEWRPdiF8zgl97UaNlaPlWxK9nEDJuPhs6KDYjQkj/94BP2hju67AXYkhmR5Fi5edAa8CPPDdlVXazoi4Kxa9gnX5s6WGo9YPVorQhDP78PzXk8zkVo0nc+7TkVuGf7TB5ox2EL0eAbT15hGbibWXwhE3jCo4f99BQ/ADZq70u6jlhDKy6XI/aC9TvtR9bfaX8/dr8dngqeJ4+7B0fJTtKJR5KWiiU7OTtltAzoWr0uTgosasGcqVE+uxGab9Cbgs6MpjDhGrOWFRTdXYolr783cLdd17rNarr2Wk1hT9gAPT9qjWzP2MJpx9j+om3RhTINiEbMsBebXzBHlIe45yGYpTHjCeDbSMaDPAsjxh7ATAwu6xqzupYhuzI/bNds3G0v27DV3jVw1HZH7ZkdbDXg10ihOMPUVxjg858myNQYemfWFLOHxcSYIFUWymxDCsa80ZpHOhnfsqlYsumZsH0Ty5fxVy+UzN6W32UvXnOn3dA8aNfkD1nNJk4YGbPaLUd9MnZJJ14YQ9bIBCzzBW6+GLL6bkZD/VbTE5bfB3fIODlMR90WNOew6vMc63oeX2cmkAMfwWMIX0ImAVlROOadgdu62w/7ZCRzGrjolVefYnJDwwbOqDW1DNr1uWH7wZZBe91tW+1PDj5sAxZGD/g/47nh9gtWkULQ0FMvpsqv4nIOFFjcgpmC0Jbj2D2I5rLECQ2aIVvJjk8846IJ/0/8QDmG6paVbXZ9xz6rZdVX16DV9B5xf9KG3Jg1tDC0ZLcwGjYTMkNW2xZORAnDWxpQqj2da2OlIaIxIQg0ww88hPOwNbQPW0PboNW2DFhT4bAt67zLatvGbEl+2G5u3mk/tLJg/3DwLrvLzO2LzM4joBBaCODJGUQ2zmNhn7IwnA1Crkyhc+CEeaKmkzLzfJ7zKo2bPs+J5JVZFszufeEjn2iuib7IzBdw2AAaIWfybf7etP1W/1320jW9dnXLXluKDbkdX2BGP2NW04PnjfYtOex7VCxjIUc+HKjr9GfURAfsx0FRl2i+iUcOq/3Ya8U75HOt61O1aAlmX0EogYxQTt0xo7+8mzpcKNOZIJw5voztZQ9YQ/e41dN5E7dl2OpzB2x56yF7+aZhe/Md2+1vxx62oZmwglAePngX+irvSPy0PtLnuXVz+l9Kd/pY4ev5xFUahUDSs8KzyftSibOoBXPQ/1wyZ03ahY40gmmzmZNhftr1yrgjF8oCk0M7njF7y+e22PLmnX54K423rvsuu7Jwl13bfncQzDTU7iEX3PUcS59nRh5tmpsGp0aq8GxMGXHiiJVfuF/hAZBHozsa/Krdnj3oEz+NaFK4ZqH95Q+5HfqKtoN2bW7AXrBhh71y3Wb7gy89an899jX34MDGiIaEZhmWc2PICRuMI94ou+/ng6cZ82zJZuPP1rOY/0zwwvab5c3Ogxscy445/Tjo96GzDQreieKsHS/iFBcW4aAR/uHdX7NXreu0F7busqvaB7xDq2kdCCMbbLG+mAcz1OFwHBQLQ1qHrKZlMFlWjUY8bg2FI9aQHzPMCLUccOArQKNpw+cbqDfdpwrbwA9n+V6mLDoDN53dZbX5Y8FswqZZbJyEFk+H4ZPF7O0SvITCZCHbhiKc8Y8nfujU/ZnVpRxl1TJg16/baa/acKe9c/9dtu7xGbs7bjdLx+Y8ktS/9gZXeKb6ey6/nw1O4rvLIVz0ghnhHERzGKF5pUgw04I5Hr7IwZHs9Vpid253K5qYDXa4dV+btFvWbbPl7f3W2HPYalpHbRludM3Rj5mGgXDuKGsrvijFVwFKMKeTgTQQNd4ogOcIb31HwGMawTtj3Oryx6ymcCw0Uh/aciTRiCFkNLyt5zSMllE/sorFCfjbLskP2Yr1u+wVq7faj6/ptfePftlGEy3aV4mx8zF7Ksd9nt3Tjvk1CBek8zkJaBLSKB2emxpYOh7uso9xXATi/saz2Xfc3LjZ9B3Ry82Yxo+iL0370VPFYtzaMk5kYUNGO8aGjPfB8PGivb//kL1xTcFesKHXrunY75sNYWpCQNV2sbpz0Jc8+7l7jGyi9hlMFJxmTt0wUjlgtR0c/XTEmgp3WUNuPByomg8nlPhRUj7ZGwTkqXV7loK40pyBYI7zCzVtR6w2f7fV549ZPb7NXo4w9+AjNtImPvQZDvkRX94fbOKcsoICEfzxa7s5CgvlYdTqW/rtupZ99ur12+ynmrfaB8bu8VWEjDYYabEPNaMtOnQ8Wmg2fmqIry6MG2hFv3HqHZZZuFMP9T7LRvlz/lIeCc/iR+ze3JnwneWMyPCu5Itn2CmQDhseZu4o3CE9+QV+vBwEssq4qAWzkFTo2jI/JKljGIQ30jp+i3ZLhPODZvbX4/fbK9ffaVfkB52Ra/ODtqSDLTqZOBryYSMnWNT4gZwHrYbDNbP9NNB4ONaeOx5BpBWFpHEhK99UhCxaMo05CobY6MJ5hJpg4jsCHGFAGOPj86zVaLh1tY1aY+uQreg8bC9oH7Fr1+2wm9dttdc1b7Gf3XPQWk6GRRX4uT4tmjD588wzQSr7csKwSflsMTC+iBQ2g5LmGkia0S8SGu17slS0qezYIBmTijbN7m2cfB2FLstgsBOHA6RCukkXzrgATtsULl5FDnzFpwAtH0+a4H+OAKGzWf1EyX5m64i9bGWH3bh+qy3P7bMr2jglhs4q0syXSseFPU470Y/vC93QNbiusWtc2Kwqwsvq4GzgLAR/vvd0FkwAUsfRruw4RL7QN/hHeGNak3eI3mVlJF56hzzpvPHJX1IYsStz/bZi0z67uXm3vWrddvuZ7iH77LemrC+a9ph7kUmMmnOjWPFkOBl7dsqKM9M2NT3jug2sw3Ngq9C5+ihnzoIn9odmlBY6YVqgd8izwZsGjR0B78M4FIX4FycVXKkq+WY4QZlCME8Vw5zKRBTQl6NQpmYuKsHsvHSO/9AoOXjz3T399pPbDtsNrfutqdBvDewuRqNkQhD/0cJh931l/wvXaNDKvFGxGiwI5uBGR4NAcKOtEKLBRMHMZB82ZRewTCxJo56v4Z7hHQtU0PpahrzzqOVUlo5RW9Y5Yktb9tjNrXvsB1d3209v2m4fufshG5wOnRD7RODNwT3BACIOaRGy3DQ2GkDauxXxhPCTruMKQl88NmvTszSSYP/1Rsem877UV9BCSAy0JxolaXhLvtwMqbmxf6K1sUKPjgRhjPfJ9qdK9v4D99iPrem1V67dZtdxlmPnsNV1o+kyaji04J0JtEyInYGml2C8lD6iB++WtY3aitU77FXrdtprb++xt3yu3X6xZ8A+c++j1jcdvFukUVMvtBO0aeYwENqsqAy1qxFPOE4qjFvDWIiDXLl9+34/LzBovD4lBJwSC4QyQLHbZrk4bkVhtOuSH6M4nXixaHjlsEjG8/YRYNCYz7HZX/TRL2nBzF69rIhCR3uoFCYE/3sPx/30haFvHAq6HZjl1a2j1uCTMwf8uCE0KyaEwirA6OPsGg4aUHCz0vewKRLmEVab4RLF8VNoyOcrLBDqh62m80iY3Oo85Fojx2Ytaxmya3NDtiI36EckvSi/z17evN1+tH2P/fFdD9o2M/uCBZ9XbO0axtLoJKinZ2B4tOlZK7FpPwtYorxGiUFz4WKoiSAvay5h/46ZmSmbZkN6PCt8P+kg62eBE9qZnSyZPVYKgvirZr6KrWvW7MMPPWNv33e33bp6m7181XZ74Zqddu2anbaibdia8sH27h0c9uOEfggc9p4gTN9frs+pUK6kCduYLmvFc2XQrm8bsetzA07jG9fusB/cuMtev+FOe/fBe+1j3zxuW2LdMLqkYw/mMQQrfMDJ53EIRRiXyE9PTlhxZiocVoB09W9R2KIAz8zYtPtZn/Q9yMPuY5gcT1hpltWsCPogP9kNMGw9ELRqmyENAjwoEWXeu+jl7VkX4JIVzNS5ToWYmXzK9T7smHunzd60YZdd3TwQXKk6Rq2+lwM1h60R80PLkPvDsmJPy3brXPNFg0Y4h6EpHhQcS9SQP+zLurMtIuNS3GdFMLvXSNyECU0+TnQtRbtvPWg1m4b8HELwqmsfsCtb99qLcnvtNWu229tW9th7t/fbp7/ydds9HdzNGDmwOANbLg0QeqDJ0hC5EeAIcmyShHxD89Z3QmnjfCc9cRkec/I02jA3DXx8wqzngaft9rsfsT+687C9Z+dRe/MdPfa6DbvsxjU77IWsbmsZtmW5A3ZF+7iv0vQRQkE0ZrOhoC1L8EoQ+e8L2pJzrsAX/IsxFE0qBTOjjaZe/PU5LHjE6rvHrZFTfrqP2NLOMVvaOmzXtw7YD+T22atWb7a3re2xX90+bJ+4+37r/NbTNvD0rG8Odn/s4BnlUMeE4gtC7NbwBbwAT4g/COEnxeH344bpquTvxGviN3gIvoSffPHRyeO+R8pcpeCs5dpFH/ESFszYuYp2sjRhk6UTdrx4wp62cErynhmzH12zzZZv6g9LeDkFu63PJ1fwkqjND1gjw2j2OSgc9Zl03J9k43OtuDDmq/iY5XeThdua8VeNEzkXegIG9sSug1bHBjjMyHPy8pZj7gtb333EbdgsTnGc2BcaN7xcnzW17Asrxlr77eaW/d7wXrJ2u7181WZ7W+s+e1ffl+2D9zxpn31owjqfMdsxYzaMIDXzMwoJcTUcM7NjUZPCZY8Ngr4cQw6aHTKzngmzNd8t2T89eNz+8t4n7B2DX7Y3bbrTXrG2x16T222vyQ3YjSt32I1r99gLmvvs+lZWs+23KwvD7haIr3FT4aA1MbLIsflUWJXZ1MPexWFnNgmeU4RmVTBno4ZKGvlvFq24HTt0dKGTYzvaYfdYaWgdtoaWAbuqMGxXt/TbNRv22I3N++xFG/bYS9busFdu2GUvX9ljb9i43f77rmP2B3c9Yh++77itfLRk3cfNdk2aDUY+wcccbxD4Bf5h/xfmDOAXRkpfit/hG/gK/joUT7vfPGNWOGn2qQe/Z//0lQds09e/4cLdlfBTRmsXvbw96wJc0oIZSxXr5hDQWEEniuEMOLTFXSfNbl2zxW7uGrV6XJpwXfJFCCzhDXbdGk4+5vZJGwQz2nJY0osJg+XVjeyzi0aNYO6KHh4c0soklU/WnK92hgsdk4lMOIbd6nyCclO0YbN/NI2MIWvvEWvAD5YTVdpGrJHJSzcDsJpszP1ilxXwfx22G5v77GXr9tgr79hmt6zcYj90R4/90MpOe8OqdnvD6jb3hHjT6ry9eXWrvbNv3P5r9z770TWd9pbPttpbP5O3/3B7l7319i675dPt9oa1d9pr1u20F6/dYTe17LPlhQFbVqBTwyY/7PiBMwslfCP61hFr6Bq3et8TedAa8c9l7xK/2buYsxqhLyOYshloXsFTNWdkG/lDn7TjkmDmpG5unzfJDzmdG9oOWlP7Ibui+4gvgGGU4qPD9kPWyLJwOrzWYavLj9iyzgM+YX5dfshemBu0l67fa69YvdNuXbPT3rhym73hs932ltt77K2ruu2NK9vt1jvyduvqgr1hfbu9dV2HvXvPEXvn5lH7z7m99sOrN9utdxTsljvy9kOrOu2Nazfb6+7osVfe1m23rL/TXrWy2964rtt+c+ewa+YzWDLcs+jy88hAel+ygpnCYZui5y2exOE52L94xeQGQ+597Ei2qt2WbtoXPDF6WLrdZ5z/t7T7aDzRAgHBbDiaRzxNG02k7aA15g+5YEZIe5y4SU1tOz60wYc5bTDn/Mz5cwznW0atqZWl3OO+zwab3TSw4TpaPZoyJzu3DtoV3WM+Q8/y87AXCLiPheOU2sD1gDVuGrKr2KS9dcRW5IZt+aYBW76x35Zv7LNrm/t8FHEtGtSm+My75j4/hM2wdb8AACAASURBVOCajfvs2ub9tryl367N9duVaL8tfba0pc+WFQZtCZvSYyPGlS0/GLxYwA3/8fYDweyC8PXJ0eiBgCDAfMGQu+OA1XdjQ8YXGQ+a4LFQFcyn79wrBTN8Bm9AQ/bjYHl6I/zKhDKLbliYw857zJ/gQ88WuCgTKAHtLIoadGUFBaUhP2gNuQFb0jpgS6nz3IBdRdjSZ1fn+l3bdo078sw1zf12bXO/rWjutxs27bPrmvf6b96zL8yVuT22LLfXluX22bVtI3Z1y6Atbx6269ftt5dv3G3v3jXuZjY/ECMK5rNWMy+hiJe0YA67z0d3BGa9wjSzz1IxIYhNaxdnwm3cYVcV4n4WvWNWyyITNFPMEnhnoP3BsL5lI2EYHrJCC+EMk7NizLVpt/cO+eo+CZZzFsia8Gpli8rDVt96yIUyqxUbMZ3kaExsxM73A67d0PiYvMTM4oKv60iY4ESzxgzjAhFBHibQXHiTD5OV2MXZ1azAEuDoccKm7jy7SWYsbq4jzQzhGkYPtZhZ2tDiy3c9gtht8dAwLEdHSLCAAo0smIXiqSEMuRmFAIc0bhMd8oUjqVfGedNQtLxEw8pOS3MdaMFNnWyWNOIbJjUUDlgdIxZMR+2HfadFX+UY9+vw+kKZcM8iOsXgJ+51idD2NkDnCe+zWjaY17yNQFuWj7ezOx4T33g5wUfRvQ8+cl6CV+KiGs7odHMUWxIctqtyB+2mXJ/9n13jbsdmItr1Ks0QXkJC92yKcmkL5jhTTN0GD1zcfGaMk6mR0WjOTGggnH94ba9d18q2keM+qQfzshOZlk43oi0X9of9FnrRLAZcoPjGRK2HjO1Fw8b80bSBILwAYRDs2Ifdjc+FrTO//GKjJuleIzFf3/Qd0wtufPFwgHhQLGaVYFqJ6X15MsIw3i5EZXpJ8ZYgZVvKaMbxMDZONdI5YQXcCNv3gcAk4+aWCnyIE/15KSsjEB+FnOLTe3rN8ULofcmlZbP/uKVt6AxVl4H2aX2KPzIekUBVXc8ZLSJY0zvlIQRvWL3ona/qlY6fORm0dUZzvPeOmPrEi4nJSEZxe+x/Dx3xCWqMj2Fp2dmIsUsvzqUtmL23xQ8TcRwszmHBL/48YT8BtgtlRzq2VLxl1TZbsXHA6jf2WxN2T06+ZvkrQ22WAaP99aLZDVhNLwzG2YHsbcCwkI1psEdzy8dZGua5C5Sw10IUUDQUmJk9PXxfDzSXaIvVKS2eb7SJu391cPMr7y2dCNM5DSs2sky4lgUwZhI2dfKQxpneHj82Mm+AUbgyhK68vYOgwcZNeuKGPalwcO3KhQm0ZEOh2MFdQOd2yQnbc6XFKR1b1GCz+irXtegfFrjAt+Jd0qTxkjoXH4l3nD/STjeMLH1U5gcBjFoTB1YAj47Y50HgcbbCHbWr83vsfw2PuzcIO6zTci/X6xIWzDjMUbFh6g8dOawpwsnWVWg3aUyXSvZM9LW9c8rsbes77UWdfW4j9mW9CF0mAFsPmZ/Zxvl+aM9xw/Ma35kOYYQgYciGUJbmKuY+d8FMQwmCC+aO+bG/ApsxEXr+CEu0FLQjBDF33CXNVw6iJakhJA0qa2ixobrgp6GE35gcdJILwjSDIU3KGxVxk3JleUuoxtPG3TsgNPSgDeOGGG7XqjLhEXFJzR3ZtySfNM/q89w6WIgeWUfJJLXupAOtTBcFZlixGDpI6kp3EN7UScI/8bmspcNvtBXmWpiU5mBilBwOQ4YnA/8EnmDu5IBd07rPfnboqLtbso40LIK6PEXzJS2Y45qlKJrDrg1BVUZmI5yD4Zm9HZ4qldy2havPf+ndZy9t3eMTHY14B7QetPquu33/ZLwcGhA22ONcUKLFMjSLwtm1VexrTLxdqGBG8GLfjtquaygI6dg5OOOnmmwYrrrgi0NZbwASpFHwamjrZ9sh/BIBGDT1cMyWbMJZA8wauBo15aPharmzfLvxBIleFUpD488atzqRaA+vpFMFTnM6gEohUv19GuEcBWdW/+ymiPulhHPoMOenr+oWZSPUby3L2X1Ju0Yz8/B3VscIZtmsEc4IZM29SDAHpQKNeWnrAVuR22/v6L/LV4WW/CCFuALlMpTNl6xgpkrLa/gxZsQOGCXaFWmWinL68kk/0pWFpSxDwZUOv8s/H/yCvWx1r13Z2mcNaJid41bXfbfV5Md8oswXQyAY3bzAZEgcnkVNFaGWCrz5mX9hTTAIyLAvNA0jLP9G4EvokzZqJRWTkiEvGl8UoHOEYpJnbES+zaSfd8j+HEEzOgVfwaID8k4I2LHxzhHOwS4etq5EUwquc9nkURzuSmMKnZfgULawE5yPPioFdlUIn0YIJ/Xq9R1MR5iyso4dE4bPK8TRUdZRh3ovj2ToMOG5ipt3uqV4uAaujjrFgTxQKBDO6Y1iEScOvc2EbU6vzI3YTc377Bf33e0eU9mywMtQKFPky0AwI5TLe0C4UHbhHHfVKk7aVPEZw6YVdjc2Oz4bJgU/eM+j9oq13bZ8005ryPcHQevbR45bbSt7ObCgRNps2FiHDWXqWWnl5waG4dopQu5sBAwC3of8aJfRRCL7tf+m0cD8NLaoRTsuylNaUWgsGoYSpvikGjLCFMGcfs+eJZgVehkQqMktjxAm8HDNco8ANKVgpy4LCJlNyCtJn4021PnwbQF8qu9PTxufhAtnWIYOnE5ct+gfR1huuoqjJN+POqG5d75JHamOVW+Vghn+yOoGXiRP5jHEo/Br1NrpJOKujlfmhuzmjXvtXfvu9gn5y9QZI+uGLlnBjMlCm056aVGZ58hntiaUD13YC2KyGNydORCVZaZsQdny3eP2xvXt9oLW7bYE5opLtXEJCnthwLRBs8CTIAg33Iui/Tdj0pRhz/Y5NohoP3ZvhfgcfIGlwSQNx/OLwlmN6JSwbFZwrT4TxqRL7wTPqEnTWUjDPsVk4h2FGr20sGC2cAHsjTh2GGrYXp7gQYCJxRvyHBt4gsMF0fIyg+P1FQRvJii9Uy3zCp0yIzvdGf0zAR4FecITMoPJLS+DXVE32I7xtsBM4SOrbKSFNh73mfG8h93Xell+wG5o2WM/13eXtzu8pi5fQ8YlrDGHaqV6cYicK5SDO3OwQGPLKrFhT5wPZLtDohOHTX/wdd5SNPtfu4ft5nWb7epcny1tY0P78XBeHNqr790c9sxwE4Y765cnS2BSF6QSRhkTB0HEJN/cCbYoRCTI6AzihFyYlKPBIVwlmEMY8iEtZhTiRKGo/LOwjNtcc0silF1IRjwqhDK+sNzeCWVHcEWBnNozsU2614hMMNAqTgqKFo4juIoGiV3dBcJlJlAz3ngWyu08ApyyMM6eY4fIyAbeCkI5dow+CosjQZ69owy8cVaC2Ud7+PfjespkOJtxybYNT8RzDwsHrMEnA1miP2DX5fbYO/vv8sm/qmDOlOdL8SFK5KRoehNC/QoR0l88Y/FgIQobqxwtmX3o8w/ba2/vsuW5Pt+Ss6nzmB9VFUwKLLAYtMbug1bPog7MArlRP5nbJ8I4oQRBimBiSbLb93C3C6c4c5JzsMdGTduHhGVBSYNgNjt4SaQNSQ24HJeG5A0ta5iKcwFhhEWHkN5zNe4K+FlHMI9gSAWQw07x13MFvDRN9TkxGZwnncQfhBk9RfvKMI1zFs8Jnzhs19aBGRQKlIbAz7hkjlpTYSgK5mM++cfc/OV8XcKmjAuvVk7tmCnSd4e9ajmhuf1pszev32o3bthtS9azt/MBF8Z13SyD3h9O1kCL9CWvB3zDGDw7Grs4mh7NFsZkiIiGGfZ6Zukrd5io4VucWHPhHBtB1GqCdiPtUtqMwtiYfOIxNoKswZ1FY6rGTQRUlV5lYX2+tJBwV3r9RkkJ+6HL5Icb3YrcXntn/zHj+DTfTuHCm/BFC6EqmBeoOmnMbuWYnbTJmWdswoquPbOb1p8N3mOvWr/DrmrZ57u6uftcftAae8atoW3MmjqPWMOWQ1bTE12G8v3u3dHUhTadCl+0yWiSIMQs0jkebpZF8zv1xMj8fCuFcxTEc7RUNYhqeOFCpkrDc6ehBLFop99VwbyA2MleVwVzRoq5DwhmdOWpmZIVp4+bzbKj7HH33sC8Qa/efNzsLeu32kvZpS63165pG/CNfNiTIOz81mc1ndyDVofJIj/k+1q41oxJwwUu7mFxxaBORcEUgrnDTR7R/OGz4zC2tOM0jAzvQll2ZwS+GkQ1rNLi+eABCWLlrd9VwTxX2pz6qyqYT6WJv0EwT8YTcKzICQsnbXrqSZstTdpM0ezEbNgc/PPTZh8f/bK97/BX7TXru+zKdb22tGPYGnrHrL6XyS627Ry2Jd349476vsMNaMTZadxHrda3FmUDobAFo++u5otH5GKkvQm0sCSZmHFbNQyPiYTJPi0CCMxfFUgSCtXwuecFCWLRXr+rgnkBsZO9rgrmjBRzH6QxT86whLtoxZPPWGl6IhyTw8Rg0WxqIpxNxikNHHTZcmLW/nffuN20tteuzu2zptYhW9qFEB72c/saOlk1GARw2B0OQcyuXIfD7m/4P7eP+MZJdYUBnxgMzvkI5CiMkxny0NBg8nDLC0OTc899Q1QDrIZV2sMDEsTiB/2uCua50ubUX1XBfCpNym9kaOaNJHU40s7PeWb/jZOlkzZh037qApshcWrDJ7/+uL11zVZ7YXOfLWMPZLRZhHPXYavtHvMJwSWdY2G7TnetwxMjbLVY1zFsTW3Dfjo2O3HhHhf8hsPmPviG+raK8VxBnsN2nXFiEcGdCXEaghpFNazS4rnmAQli5avfVcFcFjLzP1UF8/x0KQtizBmznKIQjc6cW5qdJjxtk3bCpuy4TZdOGhOFx+NWogfN7B/un7BbNuy2m9fvtOsKA1bXst8aOzmyCq34gG9wX89eGNoQqX3A6jpGbEnhgDXlRn1je/kL43LHDnZ1hXGry4RyOPQVwRx2Y6MBIJijhl31A652TM9rxyxBXBXMC4mZhd5XBfNClOE90rjECsKwm3P4HRLg4zxtJZvk8KrSSZvFDj0944f7cjo05g0Wp3BW3t+N3WtvWtlhN63dassLg7YsHqfEyR6u3XYOWf2WQ1bXddBt0MvyR21JbtwPh63vYhIvMjhudl1MBmqfCjQPNpgJC0nCohPiamKQZzWKalilxXPNA+cumN/Rd9Qn1kPzQxu6PK+qYF6w3hHKvqmGL+3Gmux7bhCf1yWWb7O7c9GKpRkrsVMd9uiZaOvApWM2LFB5OB5O+cH7HrMfye2yG1dututb9tuyXL8t4SQINFzXnIOgbcgf8SOkWPLsQlZ+zx4n7jsQN4AJQjgsOMlsy1o4UBXK1Y7peeWBqmBeULyc4UNVMC9IIBmY2aMuiOWw1CSaNGbZOTRswO9f2aaQmwUpM6zvLtnsLFboop0oFV2D5uh3Tpz+1H3ftR9d02M/sGarXd28180aNUwS4h6H50Zh1DgpeknnUT9WKhxQqh25EMz4RnNQa9i1K2xoj1+zlmnHo3x8Ke5zrSVV86tq5uKBCxPMCzbNy+BDVTCfppLRkPWHMQPB7IOroEj7D1YohRvxHUS4u2zMFq0Y93v2fZ9np13Rlg36iJnd8XjR/ueucXvF+p1246Y+u7YwbFdwICkbIPnJKWPWWBg336jfF56gUbO3LQI5nEPIdpp+yogvPImCGf9oln9XBXNVY76INebTNM1LfmVgVTAvUPsIYM5QSM9RCEI6lcrlCUHM0ejWM255DrvWnZyc8v34i8VZm50Ne0KfnJ2xp0rs/Wy+MT9udiPTZh84cK/96B099qpV2+xFrQO2rGXQ6ls5RJWVglED9s2SWHwSVwcm5+O5towtGru19kt+XhultKZqePlq0OevMZcVnsvTzlwVzKcRzGjImfkiqsqYLcJBkdgyouTGihFNy9N+uiCCGQt0PCjFPTssCGe3WxetyGShQwqeHN+JrnYdJ8zeO/hlu2V1r7184y67adM+W84R8PlBW9I66Hsc1/ihsXh3hG0V8chgAjBspoRXRryrXhlVjfl57ZyfHcF8Oe6bURXMCwjm8Dp4ZQRfubBNKIe6hoNd+VbWmHlGTiPIZZEuoj+7OSPaQFIVHGGNJu0rDEu+ix17QHOCCpOF95pZ7pHv2fuGx+0/rmqxW29rtpeuarOXtu21awv9dkVn2Eg/bP3JohWEs3agi5vTdxw0HW8/X3j5anJVLf65qfsLE8yMMn2keRnuml8VzAsK5uiVgYbrWm5wmsM3A12Y0C+CeBO4oSO62ElAewQ2evaPZfsIWxuGNME2PVOcstlol54ozbiQZrP+e8zsbjPLT5r92RcesB8v7LJXr9tqL1m3027asNduaO63FS0Ddk1uwK7KD9iy1n7f35Yjsera2cWL+1AmpLMDOedoU2pEaVgVYM+NALtU6QwvpSM4uXFSXr6xsIr7kI8EV+T22TvlLlcKQlmC+XLTmquCeUHBzIdE6lb84st8V/l9sEgHGDHmXHBzkpdKnKJSvrFXn7CiPW2zbo9+Iu4LjW80248eNbPWh562D47db2/vHLC3rOyxl9/RZS9cv81ekNtt1+b325L8oO/P0YDmjDbtJ3kfsFptkETjYANzfKU5h41GwuRix7DV8bsQPD3khlcN5+5FXaXHwvTIOjTMapyLycHF2cHCCOsRqyn0W30PJ9qMWW3+oN3YNmTv2DvuR0thCpwtzlixiNmvGCfYw0T7nIZzif6oCuZFULHpRIeeZ0uyZgf93F3xfMELKxHNjhfD8Ve44GH2OGxmvWb2iUcm7DcP32v/dcche+XqHnv52m32iuZd9tINO+zFzbvtxg077ebcfruptd+uy/X5pv/X5Pbb1dytfX5fldtnV27aa1e39Nk1Lf12bW6geldpcE48wOjtmlZGcP12ZWGvXVXYa9fm9ju/OZ/l99mKwn67atNeu2LTsC1vHrIXrdtp7+k7ZmxtMDM9YbOzRTdloDVfbldVMC+CGpcwnhsGt+jgHl2yEl4dfqQ7RhSs1zM2UZq24yW0asu0amzUCGvs1Peb2biZ7X5qxjY98B379BcetPcP3mW/vm3Yfrawy37s9jb74dva7Q2f67Bbb++2W1dtttev2WqvWbXFXnlHj71mFXe3369d3WPVu0qDs+WB163qsdev3GyvX9lrr13V47f/vmOzvW5Vr71uVbfdurLTXn9bl715zR57y6pd9kOfLNjv3TkcTjCJy7nUJhZBM31OUagK5ueU3PNnJuabG5YF8+xMmCicmZ22Ymnaijbpd8l37QgeIFacttL0NBtIZz5+zDWe8F2kwxal34vLxBHamEO+FG/s14cQ4GjdU2abZ8y2m1nPzNy7t2jGXfm++rtKk0oe2Dxttm0y3Dz3TpttnTTbMhWeebezaLZ9wqz3SbNtx822TpgdmAnbGUzNTF125otUOlQFc0qN5+l5rkDWgpU4MVgymy6WbKakHTtmfQk4QnpqZtIIg29HOT4jP8wdUywJL4VDZRHQ3PhPS8NmPw9s1whsbp51o3k/nnxTnGpYpleVFgvTAt4RL3FmJvwkevHMzfuUF/lNusmZKd9etzSPKYO2cjlcVcG8SGo5Fc6gBPthWUPrnfbFK+G3vy+VrBgXrOg3Hh5y+iAMbnusDseLBBhh5aI89ggnizM2w+y3DxsxlcQ9P7KlNSnE6vNcClfpcXb0CLzo6wGiTGViG2OcczceTzg+Tc/aZCmMAWenp604MWGlYtnGLIGsdrJImu33DY2qYP6+kfbCAKeCGRaWGAiCeC5snxOU613YpsO3Kg3CW4vKg4vfFDPdvl/eXJjEyt6UwuEAc3Op/qpS4FwpECSxeFdOTsE5FC6MzEqE6VmbnkVgh00d+RT4+vLxxEipWxXMKTUW2TNsnYjL8BwFMKieflQXU8sHmyNXIjy+FDNNOeQRxLd2BKGlEKt6VSlwIRQIPDhXMMNpQWd2LiNKwm64+7MP2Ol5+0JwujjSVgXzYq6nwNcZhuJhMTpiNDNDuK6Bbs1kYNirI6gciTQGQLwEOoRhVSP6SvkGsoR2NazS4tx5ACNG8CAK5ozwH96c8mVaMrcFHQCuxjUUu0ZVL6gKZkmqxRiKQQnjlb4Kz3oTGDtYpRHQUe3Q5zQ8BVbQlyWeZXUOb8vtJAVRfa7S5XQ8EKhTFsyI3DDbMeWCGf7MFGUA+S+OniBmSC2evxzDqmBe1LUuFpXBLVFhy2pzZhrOOFrJ/IXYXy8Jkyt9nT57lPRF9bkqis+FB8SgrgMH27ELX/RklIbylIYkNNp18NAPujVRLterKpgXdc0nDcFnQhLBnHw6RSBHjg4a7wKCeb705baUqCx6WQ3LPWCVFmdPi9DAxG5Z58YLyCh7hs+dYEhDNAfdOrLxom6h3y/kqoL5+0XZZwOuuDnh0PBKIhdtJHhblK3D4Tc8nyVL4aTPp5MvcZIRs0b1r0qBc6VA0JOjvVh8ljFkZM4KwUyTgbOjTl3m32ejLV1kMKqCeTFXWCpEE14Ok37labqwFSm6ht6FZqHkc4qol2cKs/yC8A95Vp+rdDg7HpDq4OpBhQAW6zlf6kcazmHYy/NHVTAv4npPeXXuM2wvNYRQX8uF4Y3agzSQckzFL4ehIfE/pCOsXlUKnC8F4B885tG0M0aMCjSmCg4xZnMBlArnNTFeJVufLwIXebqqYF6kFZjyKc/pPfcXXyoixFfzCeYgnMtiOH1KtcEgoueBmyJSfT61Kqo0cZpAhnAU8cKCecq34kJ4Ezvympg2MGp4fxn+P6NgrlwCWfn7MqTZc1ZktfHzzVDpK8OF4KXxFopTfV+lwNlSQJ1+hVbhP6UEhDgJxCoTOjHOKJgTklUfqxSoUqBKgSoFngMKVAXzc0DkahZVClQpUKXAuVCgKpjPhVrPU1ztrPU8ZV/NtkqBKgWeYwpUBfNzTPDzya4qmM+HatU0VQpcvBSYVzBrgi8VCHqnoqbf9O50YWX608XVt/NJo7SV4bMJqxL29+u3cCasXt8/ClTpXKbts0ELwShDfX6ehAfhxXY9K4I5JcC5PJ+OWGcD53Tp+XYmGJXpK+NXfq/8XRm/8ndl/HP9raPblS6Fr3cXEgLv+3ml+C70fL75Pxu4L4TT2cI+XfqzhXG+5f9+pDtTeSq/L4SD4i30/WzfC8584dnAmC9d+m4+GGf6nqZJ4y70nMY/l+fTCmYJBjLlufL3fMgoXhp3vni8W+haKH7l+4XS631l/MrfiqfwTN8VT2Fl/IV+K/65hjq2nXTAFm15vpCrEs+FYCneQt/P9F5Hzy8Uni/8801Xia/gLBRWxq/8vVA6va+MfyG/vx8wU3wE/1zCNL2e0/R6d75hCmu+5zPBTdvL2aY/23jkPV/c+d6dCc/5vmeCOQX46KOP2r/8y7/Yhz/8YfvXf/1Xe+ihh7K0MzMzjpBekE4XhOAaGxuzj3/841l6CWnFo6FykZZv+q30+ibY+q70uVzOvvnNb56SvjJ+Ck9pJSSURyVueq/4gilYwhk66NK3qSm2NAxXZbo0H8EgTMvGs+Ip/eHDh+3gwYM2OjrqcdP45FRZH7xLy8h34feJT3zC/vmf/9nrlnh6r3z1m1D5CA9CPfOdWzRQOsFUPGCk6RRf74mfz+ftox/9qPOZ0vE+fea3LsEjBM40B9DG+HpWPrz/yle+Yrt27bI1a9bYv//7v3t45513+nvSKy7P6aX801BxeKcyKwROGlfPwAQv4indfHyivMlDMHmuhKN4gsVvweY5xVG/BU9pwUdwRTO+8U55Ck76Xs+CI7jCRTAJ9ay8FIe0SqdnxU9DfVNe8D8yBR6GZ4AhHCvhFQoFe+SRR7Lvk5OTApPVN3kpvUJFEk0El+/E1yWe4bfi8JzC5FlwFI+4KRzBmy90wZxG5vmLX/yi/cqv/Ir98i//sv3Gb/yGfelLX8oKUQmE+EpPAWC6rVu32nve8x5773vfa7/0S7/kaUFKiFYSQumBzTPfiZ/GEwFaW1vt3e9+t/3u7/6u3X///R4/JZTSEwoucE6cOJFVCvmkDen48eNeLOIrH0LFER4pTOGq+CobcaABod4pfWUa/SYfNVbFJT3M+Au/8AteXug5PDzseBKHm7y5ictv4Ci9R4z/9J36BB6weKfypXFVbt6lsNK4POtK3wOTS6FowzvBIr6eCWlov/qrv+plJJ1uwa8M9Z1Q8AWPd1wTExPW09Njv//7v+98DA9SbkLK/q53vct//9Ef/ZErEcpDZVG98R6Ygq96VT58T2mhvJWu8luajjiV+FfygOAonfBQOr7r0jvF5X1l/rwDhuCoPOk74gALOIR6Fm7ApC3p4vvJkycz3kvzBy6/hUdlPqIzcXQDV/GFC4IVmQKfUIf/9E//pOzn4AcuGzdu9Hi//du/bSiYvNOVwtU7YKts4EccpUlD8EsF/OnwBU56CY7ezYeHvinMBHOa+N577/WGAgP/4i/+ot13330eX3EIKzMXQEI0EtLRGCAmFwVRSHpVimDyPYUJ8mnhSQsDIKx+7dd+zf7u7/4ug0E8vukSbH4LZpq/KkLxCZVGeCh+GkfvSA/egqMyECpOmjfPqgyFwos0PCutngkffvhh++M//mP7zd/8Tfu93/s9e+CBBxwd4ah8BYuPvBNevCeucFJ9Qj/FUZoUR+Gid8JZ+SkNv8kD2pFHSkPVX4ob6biIK1iMyOAVOg3eK77CmCQLiKNbsAgFD5q9733vywQwnTiwuXmmYXOjeBDu2bPHnnnmmSxfZUT+KY30XiH5gQcX8fgtHBRHZUjLBV1SuHoW7Uiblk+wFI9vPCs+uOsSPqov3iud8FMc1ZnSEuobz5VloX2pPGlcvUvjA0fvFfJdzyl84uomDs8KFZ/fjHqoM3gYzZl4KRzicCEfqGvkw1NPcSb8XH6j3IIvGMRJ6aF8CQXXASUdm/AUYexqgQAAIABJREFU/FRo612aVvUl2IK3UJiZMoigRAhiiEADhnkRCCCi7zwLMb3nGze/t2/f7gQkPY1BhCAUDPJLGShFMC0kcZROae+++25vTJVMDvOQP5dCYKUE0nviKB+Yl/eCT3ylIQ++8Vuw9E04k15lAYZupUvzTGErf1Va+k1pvvWtb7kpidFBWi6e0zz5LThpPL0DNnWKECTk4h24EpKf8uQb70UXfqvjU54OIPmnfBQSD7hcaRrgcilPTCspTv7xNP+EJ6FwV/Rjx465liwBTCNGMfizP/szW7t2re3YscM2bdpkf/u3f+s0IN62bds8uXAFpnAUXOFfSQPSqBzEVbq07NBD6dO4aXzekxZ6wxOVcFQvyk94KUzj653y1Lc0rb4JB9GS38TTd95rNMk34aH4xE0v5VXJ17ynbIKRwhG/CI5gCgeFKHvqXKUxKy5pyYPfwP7CF76QtW3FIazMizTE5+a74gqWcGIEpkv4EKocgpvCUnxC0YNnpVdeabz0uSaNoIy++tWvemORdoEGDbJcipMCSZ/5DrPD9DSKd7zjHf4ZOynDVno7zBFcNKS2trbMnv2Rj3zEWlpa7MiRI05ECqGCEB8csB8BB3shMGlsNG7slLxn+MKVlstfxH/Cn3w//elPG3kyTAK28rrrrrusvb3d8QLfj33sY4ZdG3tvSmTygOE+85nPOD4f+tCH7N/+7d9c0yW7xx57zGkBjjDW0NBQhso3vvEN27lzpw/LyGPLli32xBNP+HfhMTg46LZXvlM2fsMElAF8VRaeaUAjIyOeD+WhDujAnnzySY9HXOoTYQWDp8wkpCgPN3iDK3h3d3e7tgK+ur7+9a97PdJADh06lPEGacGdkPxoIGg64NLb2+shZeCbhBw0+53f+R3nFzVe8hENlKdC0uomH64HH3zQwA/zFkIevsNkAc2+/OUvK2lWZl58+9vftttuu83rXhGAy0XIHAZ0pO4pJ3Mu8Av1lI5clFb0VHpgqDzQs7+/3/kEePAIfA7tFEdwFIofwZE0aIJc8B88jqkGum7evNkVIcoPPUQT8k9xEly9A6d9+/bZZz/7WceHkcunPvUp57Hvfve7GRzSURcHDhxwOtBeOjs7szqEP6AN6fn2yU9+0r7zne94duJR4FHv0HPv3r2ON3UmejOHRRlpx8BO56iAB2xGQfAvvPsHf/AH3t5pF9QNNzSBltAFWcA7Rk+0O9JLZqiNiQ6kAU8uQtGP9i+cKGPK18TB3AsvwNe7d+92M6MEOHDIj/IQUt+UVbCVl2e6wL8aEY/vSojGLG0XBr/nnnsyIpKBCKpnpRMMCWaEAHZmCgWBZC/9i7/4Cyc0wpt8aEjqDUlDBfzVX/2VF14wlQcFlYChoo8ePZpVGPAGBgbmJQI4iDiEVC7xyRfCcsHc//AP/5DhwjcaOjT4uZ/7OY8P7sRTZQILnLllv4ReHR0dGRw0VGCBO/GxFWO7Jw04UP53vvOdTgsaIHHAFyYWzX7+538+wxNaiB4wFrT9wz/8QyMOsEgj+z6mEJUPPERfL3AUQioLTEsjo8zCC7xJAzwxO9o7dUBeCAbw5QJnLgTOX/7lXzocYAEjvcEPoY9wJj9oCzyVGxiC6QCTf7zXzWtwZ9jKDS+pjH19fU4j6KRGSPz0md80JpWfEIHMpDdwoIHqjhD6imdodAgU0qjcwBPevAf2hg0bvOyiqeBCD2DRKSG0uEkjQQ1MGj7xoDPPjJ5o5NCPdylNgQstv/e972U4CB9gqiPkmckz0oMTNAMesKhj6hpY5AcO4AQN1abhWwQfghDcgSOaAIO6ROiSjvv222/3dsE36pg8gc9vhC2d/Ne+9jX/DRzaSFdXl+MiWolnlY60ab6kY5KXC2GqbyiUKFOiPfnzW5fqKuUnvkEraAJtyFudIt/gq9/6rd/yMkAL4oEX8aAH1gIu0ZEQ/MSHarfK2yPP8+8UjZmEFJJCAJBM+Q2ghYCmmfAMcqTXzTuEB7AoLHC5IRgVqYLxjVvpCPfv35/lC/4wheKICNhfqSzgMUzVleKldzAblYMgJF9uenSYHoJDSPIVI1HJEJ8bxuU3+aNxQQ/yIC5Cmfx5VuOhjPwmLSFaPrQkjzQfYEqok+bxxx932PT+yo/3Ki8MT74wENoA+CI0KAvPxOUmX9JD49WrV9uv//qvO47gLxjQhY4G7YLyk440wOFW3YAfv8Gb0QPx+EaDVSNE6K1bt847HdFL6fmNrVy0IPybv/kbQ2MW7VRH89Vb+o3v3NQl2hV5pHRmJMK39KqECe3Ez4qHVggcykgo3CkrZecdtFF+0Hx8fNyTQwPlCVwEPBNQoiW8Ad2BlcIjL+IAGyHOpc5DygxpoRM0A0aKo3AFP+AwaqAuVScqGyFlRuEBBmUAruoUmOAl2MASPtAO3tN3Ol14KU2jOiQdPE75//qv/zoTyuRFnsDgWfnwDo8ZcCItnSL8jwJEXL7r5je3yqwQWHQGjCYQ7MChXCgQjCShCXHJ43Of+5zTBnpAI4XiD+qQkbjyAY404fXr12dtSp00ZeEW/rwHB36TJ3UG/roqeU7vK8PMxgxiQk6TfyI8v7lSxuO3ClYJFIZShYMgF9ot7ygEhQY2N5XHsAHNiyHD3//933tBiEs8iIxWTF7gh6YiwpMPOMFAEADmID8qNsWNODA7Ie/pxUU4NGTe8Ru45ImWCT5oH1Q2QzPyEqGJR28vIlMOvlEBpJeQpMNAcJE3cWEeGEPxeIZxmOXGBgoMYNFRUFY0XYSq6AUO0qiAB6MQH1oR0iEwZMYURc/+wQ9+0GFSNmAQjwaFeUl1jVsRowd6e/ACB+Jhi8U0wpANsw9CRoKBeDwTj8kzGjwXApF86PSgEV4RaMbgQyOhPGg0pOe7cAE/4J3NBd7p/YEPfCCjG3lTn6oXwpQP0mfySn9//vOf9/IAAz4CR5QAtCXw54a2vKPc4Ewc6I7pTXkC9+mnn/YRDN/e/va3e1wEDTyFmYzOhLqDPwSLTh8aNDc3OxngVdoMnRl1Qn7iD97RVjBVccM71A9xaF/QXUN2lRF41CNlIx/i3XHHHV4uMiQ+AgnBTT7wMPgjZLnAXeWl7sCbm1EUHTu8zQXvMulGpyt8yIvOHPphWqK9Y/cHnsovfkKocclkqE5K8gPciEO5xMPQXvTHvAHNoSeaOOWWpwZ4kCeCNk0rGukd7ZK4lH/VqlXefqEdvEGZCKETOMHXlIt8wU1lolx6BhawlQ84nenKNOY0MkNxMgcglQBTcqXAeVZBFCozhkGkAzEqmIsGCuIqHLAxO6QEJh6Ch2Ed6UkLIyE4YHYuhmvA4DuE4aLjgGAQQ3BT/MhDlUelQHBgEGJWgLGFL70rTEZ60qRwsC3KBAJuDNm5gEPewgsc/uRP/sSHaXxX/jwDn/jQgrKm3xgdwExiMsqXVi6CWeWAwUVPaIQAETOrPogL04AbeQoWz1zUOcKc7zQM3iPoZKcXHOLSgdChUTbKyU0aOh4ubNn8BhdoCSNX0k/wwB06AEM8Qhould1/LPBPdQJPAAM6qHypS6GSK75CvSfkHYJEoy5g8UyHpO+KT11x0R6kDRMfQQhfQU/wZxQjnCgXtlzy4VL5CBGGikt8CU3ljX0ePqN+VHfU13yeGNiM//Ef/zHjCQk48kF4YJ4UrYAHX/BN+Khs1COCSe0BRYiLNk0bA094AHozOuKiY1Z6aCAzHjCoZ7RnXYpH3dH5gxOwlB/tWzgpDb/hM2jAjRAU7ildecc34AFXJljmOpQPZWeUQzrhQig4KEmkp4yUlc4K+sHbwhFlhPjCU7gwL6NRKfkRX7iIN1SmM4VzNGYikyHCgQJQESAEIwpxQgqiQqUZ8A0EYCgKBWLcXAzL1dukDVpwCKUNEh8hJQJRGRKCVBzvuWEW8kQg/fmf/7m/Iw/sjbrARxcERFtBoyM9ZYRBaBDS8ugs0kvEF34IQHpjCI/GwXsqEViUVSEdkWgGPMEhDo0NGGgXuhRXwpX3aCnkQ/nBV6YMvjGygMYICDUy3qdwRFtoqU6ONOBIPDQd4Ap/tGbRSyF1IpjARyMFJ2BAN+oarYbOjXfAp8HpEtPyG5jA4qYzJT3xKR90AU6al2BUhoKBNkdabkYW0JT8pGUp3kKh6IOmD33AARpgCkjxFd4pHggbTD/wG3lT31y0FdUXIR2F6l40JeQdePEMTRndUA/g8Kd/+qfOV3TM1I/mI+g06SDT8qQ4IVQYyZEGukqhoj6oH+hNHUnYklY4CUfe0cnAV6pj2oiUBPCDzpgzSCsaghMX/EL+3MSDTsJXeamdk5bJR9GL8tO+uQSXZ3BT/sBdSDCTD9/gT254DDjcdBDUFXmRJxfx+QZ85YdwhU7EhQZcTMBSFvLG/s0lHlNZeAcM2qLKLzwIlQ/xRA8HtMC/TDDzXcyCQZ5KoRIgFr1tJTBVpELBh/g0VtILQb5JiwZJCo4AUkWlSBNXhUY7VaVhI+U9GgZEQ7jTc4kwCH4JH76hjaTwgUsZsPOSP3isXLnSh6EIZZgf4U4cLrQAPfNb5QQmGhKMT2VxAQ9aYSIgVPn4JhyUXjZy6EqDpBGk8URn4qMhkwe4Qk+0BuBhWqGs0AbbI5fgE+oZWMqfoTS4USfAguYanqme6HSID51VdoXgCVxs8eQLTsBjFp0LmlAvhNSt0gkH4eSRI77YFoEDPGgGTmdzAZObjop0pAcXhs+6FEdh5XvRiZBhNfUJLnRiXOJBnlP+5JlvpMNcJD6n3OTFkB1BDTy0VsFRGuARL6UH2i5mM9JRF5QHExP1rbpP2yEwhD/1pTrmvezkwMFkAL4Ia4Q974DHgjFwUNsRjdJ3pCUuONFRQWtwoG2BnyaUhQsheDBhTV0QDzkAnsDVBR3ASe/Q0IHLDf/QPtLyEA8YqWCWVq1vwBY8voE3ZUVu6cKbizx4D88w6lAaxSEfZILwgT/hZdoa75APulIcVceCR71TFngDXKCXvin9mcKaNIGe1esDFODqeSFo5aU06XuEMMjAnNzESScP1IAgRLqKiHiqNL5RScABBwQy37FpQSQqHy1FBEIQw0TEhSgMH4HBBQOiaVAZVAxCGGGMXRG8gEUazA/AhAnQoigH3wl5xzM38YgPblyqOCoc3LCjqhweIeIA/oxGiANdELrAQYvnSrVl4qIxgy/xyQtBTXnR6nkP3hpJkF7lJQ7pucQ0aAI0FtGOb9CSOgYX4KUXsERbweI773GLosyko/FhmoDuwEYwqcGn/CJ6AAu43AwRlT9l0aVy6HdlCAxuOmPy5AYOw3zhDAzFWygELgIQ2pIeGqQdsoQp6blUHv1Gk6Tc8BMw6DDRaqlTYGFP5hI9eAY/lQ/44n/eyYMBmPAfiofoCs2JT3qVx4EnQkn5YIqBJnT8xAcfykf9Aw8ehnYIfgQp9mrewV/if2my8DTfEcTUN/UEDDRhYCtPcKEMpKPs5EebFM0I07iUhXfclBu4wKediz4qJyHtT3ARvqqDNC448A38iAt/id6qZ/IANzowpQUX4FH3+k59YlKS9QA6qNMGJpfKxjPp9Z56J3/hkfK2JzyLf3MEs+KDEJUJQCqYhqcLZEQUvSNUIXmmwoUYBeTC3w94/JbxPk1Heu60sLJ/QizZzBiGIRQgFIJLFzhhYyNfvsk7QxopdiUmaWBObpbjUiHS7tMKQWhTeeDKzTO4A5tn4BMfGmGOkFZLx0A8GFxXSivRjsrGvU15kA5faDqOlA7QEVyJR14wJxflJh/ogDZDGjFXmq/yJhSDwSzcXKoP6AxDq+EQXwxNPH5zq25wtwIf6EGnhQ0PPoFW2PXSS2lSOODLBc7QEXxIn17kt9AlfJiLAAfSQgsmkgVb6RV3vpAyMm9A/tAZocCV4ix4vFfDS9/RuZE39GDoTF3pTjtalYUyiw/0TrCpb9KCD4KZeuY3ZWTEyEXe1FNaHt4BVxejKHiS+kAgUTZ4Fji6+a1yM5kIDakL3sP/4nvSghc3cdQO0vx4Fk2gIWmYHBMdFYIfeCuu8IWHhJfMLMRJy0j+xIEeZyuYqQ8u5UebV91ghqQ+yYMLOcFkN+Wn7Iyi+Ea+lJk2KgUVeCpzWjbgkEYKIPQFZ+ClZVGenvEC/zLBLOSJx1BHFQPwdK8MgBKXO81A6XmHYIIAVDQ3lwQzvxEEXCqU0opQ+k0lUTBw4JnvmCKADZNIAJInhKKh0kj4ThqGh1x8Z3EAN+9pRNjcuCA8OPGeSoGpMOBTfvLmm2ghuCobwh9ciQNMvUf7UNk8k4iDGjb4oMGrd1fF4w2C3VcXnQYwRQNwJS0CGpxofOSvvAj5nl4SDthjgQOe0E54Awfhws0l2vMMLGBy6z3P1KU6I3BB61L5GYWkcCiz0vqH+A84XOTPDU5clfj7y4p/xOHWpAzpKRu00uIG5am4/Natd4BFCYH+4A+PqcERh/iElIGbZ66UHuJR8kYQwEfwEDhxAY90hOkl2IRcxKF+gcPNM/wNHPhLZoFKGErPe57BDTsreHCj2RJiZoOvqbeUp4EvRQTNH9zJH5rwDdssdAYf0gKL7+QlmggH8kaB4jujRi7izBdKCeA7nRD1R96kVxrRm/Tkrzqm3ehS3oorGzNxqQ99h/6Y6igXZYAGaMjgIV7EjKHyYfrgonPkHTemEcHjm/IEDpfgEJIPdAAP6Eg64uv2BKf554JZkQkBgOO8kCcDGh/vlTHw+M3NpfR6ZmgCQhJYfEdY8Q7BCfF0AYPvqijB4J2IDBxpzBJm4AfM9EIQi3loaDJnaKYVQuk7Wh4XhIchEQy41XCJ4XhWGRXqu0eMZSctsLnBiyGoLsqhxlmZlvdMFjDJQOWRloaA3Y38pDFRfmDTOEnDcJO40FO9OO+5yC/FVXjAVDA+6ahTLoa8wGUikWEvF2mBwa1L75QHtjfyptxoO2jJwARPVnMqfQoDWCld+QY80gFLzCsclPd8oeDDM0pPucg/7awVLw0pi25ggztp0YgwQ3DxnYt0uuB9wdE7fsu/mE6dkSX0hPeAie04bTPET3/rWSE2f8oALOqeG7pwo1Qonjpb4cN7aKvvKC/kr8kr8JHSwfvKS+WFnsDkom70HrjwHG2XmzakS3nzm7R0VOSBzV348B5YCiV4BYOOnjKCJ21eOCgknuQH9JX84LviCFfkBPxEPGnMxAEX5APvwY/8MGcIb76pnREyl8KF+YL4pJPNWvCUp0eM/8gHE45gibeFZxr3dM8++Zcm4hnbGYiIwWi46UUckBJiKaF5pxldkMJgTiXT46nxSjsDTpq3KlIhNmYYinTqgUkLXsCmsoSDQhgYgQHhwRv4MmFALBogE2FcpOEbZQXefOU8Xbn5Bq7gQ37AIWTmlvfcKh/PopM6Ib7xDiYQDoTqIKQliJHUETHkIh7lSb1IyEN0AG76zCQdcCgnId8YdtLQwJ87tXem+FbCZY4ALQtYdEKYU8CFBovfp/KFPpSR9Lr4zQ1PoMUDB3yoZ9ElTa90aSgYvMNli/oGF2AwLEeDIU/FqwyBz00c8qTs0JP08iFXfoKj3ymOuNnR2ZGe8jOERSjCY8BDMdCl/PgtfPTMN+iBKYZ00IO5A9U/7/AWIZ3S+ENF5wEchuTQgltDfmiixVPwJ/wmXhQc0gr2fPVFB0w7FJ8TX/iQToIcP2zw55ZwA57yE2x+65l2B1xoKNlQCX8hwZziDz4SzOSPYKa+VDbivv/978/qW94Z4MIcDDQDD2SWcEPxET2ZEE3rDniKRx7CGc2cNJQHPHjWN9JUwlAZ0jDzykgjAwQbDI0WpqBC0CywUwqwgAgxhWh1FE6EZkgAbN4Dj/ey5QnGQiGMRf40PHpi8KK3pKAUGE1e+ZIHF+5JNBS+gzcNjQoADnnT+OTOBTwaseJCSMoJzJQewK1kLL6TnhvYwJA2QYPSd4XE06VnvulCwAhHmJM4lA98eU9Z0KC4KJNoQCejRqG8iCN8CdGw0I6BAY6MEIjLhA40QbgAD+an7OTNdz0LR5icoT9xVWbhhKaPQCIPNAbSc3MpVLml8VGn5E99IaB1Kb5+V4YpbOoLGMKHemCuQcNL8tStdIIPbXhWYwYHhrOVPEX+wBBNJZxRAqAFdUSdUQ9oWOADL0FzTFa6SC8aCBb54yvLalTqBvqRFgGL9k/diAfQ8FSGFB+e9Z76AAY4gAvfEJZMyqoDYkGWygjOlZdwBKaeJZhpi9BaF+mJx0VchBJ5QxfZxYWbYCkkDTZ+YHKj0EkB45toRHzaFPkSjz09hL/yFq7UJfQjf+SVYPCdZzo81Q90gk9QSBDYvId/NMkHDqSDt8mbUQD1mbY34nCldGT+SHVGCC66hHdKA31Lwxohrpf6zbAMgBCCAmCfoteVX6LiE4I8N6q+EIKhcHdjOMcFw1A4mINll8Q/04UtmjTkz2YmFArBDPGAQ2XpUmOB0KoY0hKH+GlZKEN60cCIy83sN7C4IR54zkfEtMGposGJvBCoXKoEYOB5AaNqqM133kuA0HGRP/SmrOTJO+HNe4aTSsdkIXlBGxqd3qeh8MaeTnroQv2QDkZCwPObWzQTbZSWkHLAFxLwCBBwBTfoSxzKTPl5R/1yiZdSnHgmfurvSd6UI2VuB7DAP+jGLfhsisWmQMBAa6esmGaY+NKl8vBbaXmHSUvCRLShTJSZeMQh5CI/wVHdUF7owQo80sAXzBWAA3wh32PhChyVk3eYDRFItC3w59b8BzQFBrQmRNAzOkn5SuXhHfMTlJ+2R/4Mz8GdtoyJSYsfwJmRIvmrbKTn5p3aErDF56lgBkfRgTSCobS0e/KHnozueM+VxoUG8BMCEY2eTp00tG9gp3QnHe0GOnDj/gfMFJ7SMGKh/OAoM58cAMABIUw+8Cp8R5uivoELXXiHxQAaCD4dGfSnnlFYuVR+ykE8LtJgjpIcII1kj/AjnurfEy3wzzcxmu8bmdHgQVbAQR5XMdxnNOwlHhoShKNQQgbkmBQCISoAAogYshHNl2/6Di0EmNzqSekRISy3BKCEG2nJDw0BvMmPSqeSVA55a0Ac4sJUDLkoIxUK/lQ8vtxcfBfjUQ6We1ORaFbKF9jc5EPlSYCmlQGz8h0aposOVF46BH1Xw4TOvJPAwBYnXNirgzyBB30QTAylqQ81LPDVaIHyAYuQ+LpUx8Ch7AyZGdZxieF4ZljIEA+6A4e4PKN1gxN5Qmvggy9mKNnKBYcGQjwaOemhN3UEzciXS7hDu4WutE6ADVwECMJY9AA+ApIR2//f3t0kSVIjYRi+I8ZBWGIYW67AhgUsOAg34CQsOEGPPTH1dnupIrOqO6N6mBnJLEp/7p+7XJJLoYyIsivLbvpdf9OBo9NX6ow1umsTnfTv/CGRLQX97804NGSQ5w5QfTL8mJWt0bhVZ7/q4Zj8+jMcfUk2x6o9HI87GDrVZ2TRmQNOH2MQrYWf49W36IydQvY3xujT8ZH5Q4/qc6D4OFRPJvSDF11gaxd8YbYnDLEjHDQubXLcNrHRGL/6iz5oLE7Gg/kdrjhcGzt2yF7NT7jR08ndUr8ZccyNJzjoXP0GBg+tnTBd5S2kc+xJ82/o6Kqf7Nhnf5OrzxxB6j/jGZZ2mQuw07H2lD8MefLn41HGVKYGmOh+3KAMpRhO5xBOMCNw1DpaWYNL3bxdItcgqLNysif6PCuycyTTYHCsQUf6cACwTIBWnzqI7nO3T5c6Hw6nU1szDl5PdDCkjhfj48Q9GmbRcW7c43hk92QJhbWfDOVigzgZxZ5thIvW7sguz62WW3G7X3Kzr1fCdSCnoYxtTToTWah/tJ+82mfSGnScpbuA2k4vA4R8af2kzXQzcDkO58bskzyLkyMf7WcHfNM+0ug5OLrCsiuDrZxsaf3GHhYzbTYBlTfJxdre52G1r8F7NPbkT+3XhoIym4Ume/1Ye9nP5FJOP3Lp0WLHDr19pw4fu3qLVLkxy0bZUPukyWvyNwbpZHOQLbOHxdn4dYQDXzkME1neNZ0Juymjs/7LbnA5WXPMZcFUBw89ndrpNj/Y1N2rMZID1z4vnthlGuPGjXGtj+CoN5eE7njpMb+1En79IOa0YNI7OxlPjuvgGG/w6wexNrEF2wj0bRzoW3MiLG3lA9jY+NMvYnTGm/6DZ0Fu/qWfPnKXBEtbJqZ8mxJtIB+m4K6KzmTjEZu35mgLtTJ9yb5oG4Pow4E10+m1xs9+/MOgIRkEsZXAoTfj5ZA1XJ4i0oykExlDeU9DwEoJHYIWjx3znFSrUuVNhjAZHJaBA0dj2zGHpb42WPkyDlo4+DpaacWjYxfn7AModNQOF4z4tVHnwTExBLzOlFwGlnpOSLnAlulnEsGGB7t2hKkj2Ukw2ZuYdHKrx670FsI3MODhRSPdRR+DRHk/SNS2A+Tp9jxbeM22wYRXmo54XGzICfjBj85sY3Goj8XOQZ3J4VPPZrAM2DDDc2egX+XV1aY5/tJzxvVzdq3P8RuvFlHOY+pPDxdZdFMnz97JtXu0+1Vf/9C78U1HttUu9WjtWDmndKF7+tMDv4u98Lfzyj5imxs264NB8Vs00tlCy6HVP9pBj9pDBp2mU85m9Y+8oxM4dEFvbIi1S/+a42TWTo/KsalxRh45xhSbwa3dsC2MLVLZkn7oYcOFQUZytduxEPuQyaHPAJ99yesOuo0ZW9R+c0VAoz3ksGd9m15o4LlDo0MY6MnX1mmv+JW5K8FTG/QdHhcc5S7HGR1Nabc67YBR304Zs72lPz4uV0GKyM+0ldPuzi5Ww3UQJaR1MuF2V7b9GTJMRnFb6NZIIzjX1xTDa9LqTAZgcDx2ZRyIDuGY07E4mXb7drh40VrVXDCiLa6tJpmO4TDc3jSQ8Bs4jCxtpex5XW3z8opbPzx2xJzVHLDpRJ4fH7ID+7Ebm2iTts1gEqFtQfS21gzsLOgXRwcGQxMRXq/ZAAAcQ0lEQVQALj42cNsodJbGJgU6zb5gU7rQzSBskhrI2mXyceT6hqwWx3SBZfHzfQFjgywxh6SdcO2e7FrQsl2OnE5ndkvXYnxT52Srb+A7cvBYnz5JLl1Ks5V+XneWcP0Y192R/o5PzKbuINCQ5ZrjKPnZ1VGAYxE20PacOz06SqGr8TrbpC2cTXwWEOPTzpa9Gpv6mY5e6GhRn/qwJ53YKNuS43hBO1pg6ZMsenLwjiI7sjSv9Xn2q92wyAt7ytYGGwK7ctjZsjS79O+fbNa0yY4Zpitb1u/mmuMC444e6KXZwI5ZMA/1rbqOO+KfeOxtzuDXXpdjv9qDJz3iFzsG4wPN82xXH9is9UgdPdx5RDNlw1ntNGVIn75gomICZXTllBUowCGIXZXPSXIQLg1s5Yo+mltxO8RZP/WpgVPfdLglIx6YpYvTT+yowaV9nkbQ0clGX5psVxjhrvLl4+Ms4VnwnBnCOqOHNcvDmPaIhkN0lul2WJxDjj/9slX6p2+Y6v1wRj87ptm/aCbfypsM5XZNMNguvfwgFUZ2k6djehUfhCd/0HZFS66y5FeuH30tz1ilA33Yu3r0pYkqL+Yw7brYE79b4+64Jk8qNu7Kp4s8x4afDrD0DYxw6C5kWzEnzJFzaHasBXX6JSztU5a8MMrHVzzr2Uf/wtJW4z3booex6hjOjNGFmy7Zgww/Kk875vCjEWeDiUt2uOnFqaYvOwhozvjDry6blK9tU6b0GR0e5TD9fmIsaRO7NS7CDS/dy+fPbsmN7tlnP4G6JlPpFI0xBRi9EG354mhT8hZd9MXJLFY+0+FGL75VtpaXn7qEXVynlscTXzJr0yyvDE346sOrPDr4ySgtxlM5ntLJEs+rerTRJD+ZYqH6p+zHaJZL07EyWMmQVl4+zOSpi09dbUc/edTN/Ex/VGpJrNhTTqThrLSzDWjjpV88YYhnGVvMvPSKX714pmFlA+mOj5J1pld3OByz3XPjJazwpw5k1KboxPVX8oqVT73O9EY7ZcWbnOoqP4unDDLPwoo36cgoHx2Mqa88murTq/yZzDDWuikvnPCjTZ/yxfVTfMlf4+jP4o8//p1VvlZG0L3rNf5/Un3tmDpVdi+e9F+aPsMPS52gk0vLz3S0xSte5Wsc3Vpevvpbsqqf9OnZoBQ3gKUrbwLdwg7zXjx5S8MvHa/8vNby8sXRnmFF89Y4rDXGryx7rHjKOWNO2W17Z6jxiVf9cghwCzlEZbMfJk60U8fKro6njKnn1XL+2/G2Y36aIHPA1Kmz7FY62kfiFTusJp76wq2JXL34Ft6keUt64tyjN+HP9MoR4J3piTvbdk/Grbru2Kb8KSu+KfNeWXUzPuOd9a+lJ//aXnpPh0r3aJzfOyvlmKWVo8/ZJre2h6M82tJhrjzlJ91KO2keTcOe16N4/6v8/9eOeQ6QL0l/yaCYcuKfZdL3gkn4Gs3n4J3Jeis/BzF1mbrlLIrJWR3K5D3T461lOSR4OeUp9xbO2s5b+qx0t/A+tzy945tOma36zcBZpvSZfsomTjSzLPzibFR+tk9Z+erfI07P98D+X8B8yDFngDqyuPJ/epy+Xxp/bvtWOfjPyiYuB2OSrU5t0lydfk2nVd50KOrwF6vThukM3uI0Vxln+Yl5Vn+vLB3R3Gpv5SvOrfKV7i15fcse6VMcr36f9eXVr3Zkj2mTFWvSr3Qrrfxalk47fn8LbMe83Fo1IN9jUE7sW+nZ5Sbhqof8nKiT/qr01O0e5tyVzYk+HQD+6tbytW33ZN2rCz8a+bWsuuIpe7b3rDye4ujLPxLDYpdpG3btCjuaVb/q0VcnXfsrn/jrIn/WnrOyZO34/S1wiWN+fzXfV0KDsPi9pIV/L56y0QnzHLWySfefSKdHDoAOa5pTEKZTwBed9LzQrvkD4I1/Vocz2SbuvfTkKb3SV/7W+BZ/dsjpwtOGyuXxzvpkRtPijW4N8VZefqWV70Jbujj+HX89C2zH/JVs3SB/LZ7qoDUBvYTh+xoe8PcgvpcbprObPJ+TTpfP4UEbnzg9PJfq5Znffvvt+N6Btza9Gedzox6290agl3eEnMrEOUu/ppeXF7yQ4PsKbOO/M0986TPcs7Jbsu7RntVV9hbZaNgve1iAveHnZSrtgTUDusqSk/3RcdIthp6Z9gq8gK/nhpMVzsQPs7ryk2anv44FtmP+Onb+IgdhYph4XjTwTGtvTvVdgEdVb+I1Ed+KFx96L2H00ShvUdGxt7F6OcKbXi5vQnmbUdCucM7i6m/phMcjZN7Y6i0wDjrHk8MKW76rsuJVRuXpIL+GaB6JYc5dPnm1xdMYAkebs01/sbLaSoe502ZjbxWyjY8Zpb83B4VwKj8Kl0VMWW2rfsdfzwLbMb+zrZt4Z4NcmUlSiGYt45Q5455p9W0BoQkrjbeJWl5ZYaYnfvWvxXMyx2/n7lVtToQT6JVlzkW+R72Uu7y66t+UxV+cbPrPNimf7apOGV4f3SHLZTGwy4xHPPHx1BezTrmXPdBKC72dJZ1O6sPLztEXo5/p6A/Q4RDjL57102ZTJlzXxCxfXTh2x74Vw+butGZIJh6hfDSVlxeze+WrrEm309dZYDvm62z5AqlBbzA3oVbngknddBr45JsMdoZeyc0xy+MJS7oJI91ta/zKokmn3jyL74XyTwX44kGb0/KtBc7QtyP6bgr93Ib7ZoPvLFhQfHPCzhmNeq//0huuULtrS7LErtpQfTFeH/nhlNuR2zEXoiOnM3p18NS50qHyZMvHn3y0paeMytTHn43Ki6esypNLVjpyzOykTQX02UnZxCJ/5tEqMwb6iE/yq0vn5M8YzcxHO9tH38oP4v3ncgtsx3y5SV8CNojXQY/ShPMdAY7XR3V8TJ9T8z0HfCaBlwtcdqEmbN/azXnAMXF8/cp3mX0kytmrM17HDL6a16RMphj+vJTNkN7K8Occ/vzzz8Mhc8rthJ3v+n5AbeSc0s8zuI48fNjItwWEsJvkPovqI1icK+fuQzFs0cei0OeA0sMCxR4tWD5KE246H8I+fDg+lsOGsNnFV8x8jMoC4+Pzk48ceW1xp2In7sxcbAeqnb7057u8zvxdvhxo0Um3MGCzjXbRT7t8A7tvPWej9PTRmz50BIMOzub7V1P08HU/5+vKs4ljitrg05V0Is8X7gRy0imZYt8xsZCyhd8H3I05nxbg+X3DZ0+13RGJsmQeRPvPu1hgO+Z3Mesn0CaBkga0wW0C+8asCduZrN2SNGfH2fh2r69ZcSh9dpEj4izCgmtn5F9M2T36IpzPLMJoJwtXPXkzwHDRp2vWK8vRSgs+IONIAiYZZPZPLdWv9O0ew2UPWOSygY/m+DKaRacLZmnt9cF7DkJID3LmXQT6jjLSQUyGr8zB5PTEHB87lfflOz9S2mWmW7I4QvTw2dV/3PCJ1/pKefXSFh9t9gEnjruFQ190d0GuL8RxrkLOXEwvdLAETtN5cYtPOqv3+Uu/P9Re9OzqTsU4Ipv+0+YH6NOY0RafR9V+eF10tXhZPCx+bAbLogrf7r5+CG/H11pgO+Zr7fkMrcFbrNLAFvxbp77ZatCbSNNBt2vi/JwX+oZuzqUdM6w+8M9RqDfJ+lwnBwrTRIdHnq+a0ceF31V+6jkb0uLCAXAE9DWJybNLz/nmIOCUhhNubQ/bGTUc+sJ0aa+2uNSVFvtfbDkx+ByQdnFa6jkTIX3t/Hw/Gg5ccbqzCdvgwy9tZzh/IIMDM91yUPTlvJTj4yzZWpnY5yz1l3L18JXTIX1hkW3HKtQuPOjRcar45NGLyeBM0VkolLs78vnS7MsusNXRP3voBzQWUvV0yw5skxx18n4/sJOW95lLi2ghzPI7vtYC2zFfa89naE0UhaVNQJ+ANCFMHJcdkX9G4Hbe7bAPbdtRmRwmhQljIjbxfReZM4SDzuRFayfnf+lxWi6f7mySwuBIOHkT1MQSz+uZ8sPBpT8eO29Y5PX/z6qPv/PSWT4dtbRvT3M+dILHafnvK44KfNLRI3aOdtiHLDEaxyg5Mbs5dTDEjim0R3DcwLHl9NnRd6DtQPtcpgVOGez04FBnsAtXx4mJ6aAvtN2div5yR8OJwdGWnLa0/qEnp+Zzn46a6OLSbz6Sn23YDYaLDDTl6WERhOMftzqq0LYcvp16Y4w+9CSf0xaSQWeY2czCZeyxiW9k+1dcxiOa5LOt8WrH3NiZNtrp6y2wHfP1Nn2B2KRol8GB2O2YVByBM9iVhuPlqHJKJoY0B2GiC555NcHg+Bi522eB45oO1xGG216TjTM0CcmbNAfjyR+T3YXWsYoJTyan0FlkDmGdtOEHK4+Wnv7NkvaY/NL9C6Now7S4+KB7ct0RdD7LAeHv6iiDnZ3j5kTJ4ZBnoAsboHW2yq76hDPzDwnIV2/HCUc9ObD679MTz1ly/zsODcfqDqVvJUerX//444+jL8hC55vC2VIZfvLEnLxjHPp2Z5Jt2vnqV7T+ISw6dzXysPpPO/EbJ+r0n3a7QwivmH3xoWuHr8+Nm2hqz47fxwLbMb+PXQ/UBrEJXtokNGEMeP+dpB9tqjeBCnZQzpk5BvQ5IBOPw4KjTmw3Jkz+cMR20vjRutW+RTd5VhoY5Ll++OGHAwNNdNpZqD1rrN7ZMMdAFztKTk1YccqzEafHBhyEH9qE7gY4L84px+yHRrQcC3p3GEI77RZIZdL0zpFrm4Wi/2zCQVn4XLDssNPrAH36o512ntqElk7OrdEmr1iZc3XOl54ctUs5ndNbm/w42UJLVHcj2dVxEJ3RegIGhgWLHsp7UgW9Y6/0y1Yw8QhhsofFcy40dOKYC9GW3/G1FtiO+Vp7vkAzgBvEJpVdiklkkvfjD6YmnHQTRdqtq0lhspvEJpaJ53ZWGSz/MDS+eHMCOUuOBi0sZ6mVo6dffAfQ059Zrt5OnXy6//TTTx9JkzUxShdHTK7jEDtFWJ2Xq5+0ZIeLx+6Q7vi8qKIux6xc2zrK4IA4Rvax+Akwwhe7lLkEP/y5q8BjAev5X0cBHFxO1Nt06YUvLDHH1eKnbd0FqCtwsmR6UiNZ/l2SxQadtsAg03FF+uFvYZFmH5dg8eiOysLfjtni5+mTMPwYaQzBtngJ1R2Zpz+VGZ9oGzc55uROnp2+1gLbMV9rz1O0JqbYGa9J67a5idZEwKysgc9ZS/v/a5xvTtHzu5ySSeZyu10Z5+mRJ09umKBitGI7IBPN5BfoM69T5cdOys7TJHWZ8LWLowpHW2pXMsTa4bITw8+50702hlWcTcrD4JDZwGWX7XgCRo6ZTnRxtpyD5NCnPnDDFLtytHa82afXuzlH+Nl+/b+LYYhXxzwfDYyudqU7XI/QtbOlt0WA0/aInEB//EL8jRF16ODQ04JtLOC3iBkbYahXZjxNLNhww1THJvKOPnLOjluiTZ8DaP+53ALbMV9u0k+ATXhx6RybZ42FOekM9ga8SVHas8h+NMoJcbztXu3yTGQTs12TPMdHVhNUfZNeDD8Zyfmk+b9T6tNRbMLDhe9WuHp1YR0MT3cAOZHKxN78I59uHNKUHUZl+F3lyeQktMXTDI5E2KQ2dp7Kydkx09W3jAX2Dwdm/ZGOFgjPTGcnstBzzMlUZ4FTHlZpMUesbehc7TDVrW3Tf3RHZ6ffHQh+O10OdD4XrQ3pWnvEcC1SjQFjwwIKm94WKUdBnnlGo8wd1wxsASc8cbLYlI76y91bdot+4uz0dRbYjvk6W76KZIKaeByGyWjwN8DFTYaA5E0EO16XXbZdj92W3bDJ0i17jthjTX50MgFzgNImqjznzSEKZNJphjWfTmLOMBxYnmnujBxGO9PalIzKYXNedOAk2iUmA700ummPjnlyzPgdE3DMbJCD40Txah87qWuXV7vShZwpg2xPLLAje+WY6QhLe8X6If3wSHdpW05Z7Ny/umwiL3DMYZLRzhZf7ekfjeKZDjGMyuDB0t7ulOAocxRjgeDktY3DX38InfZPT9jS2ZJN2DzZk+do0P5zqQW2Y77UnC/BDO4ug5rTNPHcdgsNdHHXnHBoPArlfJATxssp93KFPGchxJdzC++ofJLVhBLTK/mTprQ4RybtGIJT5ABM1F76mPQ5UWXJkiZL8EgWB8FxOJpAE12y6BR9MRo/buHzHK+30Oz86KFMzImgs/u0i+ZIOVt2yTZ0SE5yq3eubMGgn8fh1HP2OTnt5lBnyMbi1THLZ9811mccJ705ZuNBW+lMnphjphs94q8d8pWRAwePccHxwqCvDYCgX/SdMfT7778fvBN34qFPjiM02GxioaHjSjvtsdPXWGA75mvseBOlyYPAoHaEkSPpTbMmQSB40FbuGVmPidkxm8yOFJwlcsryMOOZGNImn6sAM53EpaufcXx0cQluje26tMExijasMiZGMmqLOnrnfDpq6FEwdMkqxuOZ7Xg4CS/ocG7KcvQ5IT+kkcGh9ARHWGI6cc6z7eRykDk4Th+tHScbc3rq7EjDolftE0/HjN4uNRnF8XQURX96kwNXvssr6pNv2rB2sL0nOsizGDmOoTudOWaLVQuR/kLn2eVwxWFJV05PLyPVdrH2CWROuqNw/7nUAtsxX2rOl2AN/Caz72CYMCaf88CcH7o58Rr4XrRA72qSmNR+VYdhB6TO43PJoMXqLJtM4aapfFdlM04nNCa480x6ODLhEDkUAX7yHW8ITfgjM/J2ozBcHD0Z8NMRfXKl1eHRVjx+QBU4ZjrQhcOxuyXTyyt2h8pcnr+GkX5hllfHiaYTTN8vERxptPtWT2Z84eB35ZiT+5pjRpcN2RFGTlmdBZkdZl+SPeVbGH/88ceDz27f8VJn77A9bing8Wo6fO3wo2g48AuzzCKE3viC3SOZaCdPvDu+zgLbMV9ny1OkBrpKaQ7VhDHYTb6+TzyZ2+E4H/UWFieDp91cZ4QcEQyOw0sYnffG3y60SUR+H6vvyIEzUC4+C8qjUY/Pa7o5K/IdMXhJRpiy5GG7BC+6oPMjEn67WvweF5shXeJzh6Dt7MBBeAOOw7IzlIelzkd7Ct6CVM7OnkKo3dWHLc8Jc4KcEH3sYNOhH7/oCo9jrg6vdNfqmOVbYCYPG8Gx0JDnjsdRhnJ5crSXPu34k5X+4Xo7Ei1n60digb3ktd1dAFz07K9MnWMkC1aBPdJR2p0MusaquyRn1XAaX/Hu+HoLbMd8vU1vIua0PIplMrk8wmYXLZgQTTi3pG49547FRJG3IzKJnEGa3DkUDsiZqjAnmTyHaJK3M4sGXbQH440/k4aT8yw0p2jC2rFaQNx6c3LRao+Fx7PbzjXRt4t0Zq49HJGYc/Lj4uSFhY6jQpOjsTigYwdlnCYHYqHKxmyjDD4708/dR4uXZlq43H1wUo6J0PsNoMUSLYdJbziuzphzZPSQdllw9IWLvvLpg85VHk62o3eLivbQtzaTbSHsy30wBAu8N0MtSN01oRE6ymAXvGS2ELtDabxYjPSHwNmG7c3G7KrN7IJn7pgPpv3n3SywHfO7mfYTsEnbLsNk5xD8qGLAm4QmsedF3a57A833E0wqk66JisaF3sQz2Thxn4BEa+KITSTYnL9dGWfsVhcOPLfmOZKcRRPyk8afUtUVt2PywoqdMn3IhM/RSHfkIK+8dortIjkJNogfnR/01HsTkKPqmWWOSdvgWAwsCnTRBu0jjxMjs2OV2scRq4ef/eDBt4jBhI2ffI+pOQaZTsoPifRCp61u73Ou2SRrcXL1AbnaKqCLtpjudKIbp2xhone2ytmqJ9ulffqbHfDW72T5zUHf0K0FCw3sxp7Y5feK5Gi7Nx29Deqow9iDp94l/e233x5jh2Ou7cW1fcfXWmA75mvt+QytSVih80BBuQniltmEM/g5CZNEzHnYwdmJcrJuTb388M033xy0/nNHgZOz+8KX88mJNPma2ByP72t0xEGPVcdwi6vnNEq3q3eeaQGoDfTmLEx8ToxOtQcNfXJW8Njjl19+OdqJjhMS480pKJO2oGS/dn/sUNvIzjHnNMjgaNkSroUpG7Wg4OcELYzuUvAU4DgK0C/1Ua93o1GfDcUcM3z6kjfbOjHRcsz6g738QNfjcnbs+OE4slFP1/QVswl96CXPKU995NVrWz+I0rU+dIThlXo0ruzOhvJki+nko0Z0YqOey542ql07vtYC2zFfa89naDmyJrBKaY6FYzbAPXLWLsUkMwE4ku++++5wuJygx9TsUPsEo9eYYTdBYHpq4ddffz2coglpcrWjMtHtQB0n9JowXWCk4zPFR2bKySEryznSwUdvYGsHZ6ENJjb5ZNuxezXabpNzDScMj9D1OCC+HJu0H/o8xlZbp9743WWwG7l2h+imzuz8119/HefYHDPanLnYEYfHD//++++Pes3+8tF5O8q+d+1uRYCbLkfiw4fjKIaT4+C0wcs0sARtnmmLSovOfCrDj3LsyIba4gjq559/Phw9zMaI/vUYpWOXcMmRdlembjpmdfV1dtcfjsssIjljOn3//fcftJt8/7BB/1lsfSSp0OJefsfXWmA75mvteRetyTyJmlSednAm6bKjyRGJ0ZhUrpwajMrnJEEDy24Nll1cT2w0MWGEV9nUqXS6FaOd8uNVn76ctB+OyBY7eog/3BmzSY6C0/aDJ91d8cY/nVtl+MnmjGZIz+jUofMImFtydmHn+qQ4DG2bdp31pcUw0WaL2lJeffSw0wvdLEcfL7r0xl+wgNGbXZWHpV7700Ucvzr52Ray8KajL+DpL79P9CMuvvSDFd7UMb12fL0FtmO+3qYvEA1qk0NoMilrclQWY5PIxMnhzMnWhIq+eE6aMKMlT7oYnnz1Ycy4OnF46tN9bVP5yRd9+lcHL3p4Qvnio/Bpp5fesyys+IujiUeck1nr5OObckuTMZ3e5JeOLhz02UrdxC4dhnj2WeWVpTO+KUe6fHG84uTEX6xu8srTt/rs2fgLU3mY8cx8dDu+zgLbMV9nyxdI64BuAiBcJ9SsC6iJEm159aWbxE2UyidGjqKyW7TVzxhtmGuMLmw6qg87jDUfRvW1bc3DRVv7qg8vvuSqx1P5lJOOK0ZYlYvjl17r5W9hzbZP2WfpZKib9WHPsnSbZateU9ecaljxiyubWMrlXekVvrI5LqObmDv9PhbYjvl97HoXtQmCqMkgPQf+TJ/RKWsCxVuMtzDxyY1H+aSLfsbxRlc+mrW8vHpykjXT0YhLRzfLkiGu/Ixe/dqW6CZGOGsZ2a/Rz/7Cn74rZjjirlXemg+ruPqwpmOc9k/v6Nb4lm7hn8X3dJ6yZ/oMZ5c9boHtmB+34UbYFtgW2Ba41ALbMV9qzg22LbAtsC3wuAW2Y37chhthW2BbYFvgUgtsx3ypOTfYtsC2wLbA4xbYjvlxG26EbYFtgW2BSy2wHfOl5txg2wLbAtsCj1tgO+bHbbgRtgW2BbYFLrXAdsyXmnODbQtsC2wLPG6B7Zgft+FG2BbYFtgWuNQC2zFfas4Nti2wLbAt8LgFtmN+3IYbYVtgW2Bb4FILbMd8qTk32LbAtsC2wOMW2I75cRtuhG2BbYFtgUstsB3zpebcYNsC2wLbAo9bYDvmx224EbYFtgW2BS61wHbMl5pzg20LbAtsCzxuge2YH7fhRtgW2BbYFrjUAv8CK99yUR+HOvMAAAAASUVORK5CYII=;" vertex="1" parent="1">
          <mxGeometry x="40" y="382.87" width="120" height="108.26" as="geometry" />
        </mxCell>
        <mxCell id="lHdcJobjWZD8BWbFsa10-47" style="edgeStyle=orthogonalEdgeStyle;rounded=0;orthogonalLoop=1;jettySize=auto;html=1;" edge="1" parent="1" source="lHdcJobjWZD8BWbFsa10-17" target="lHdcJobjWZD8BWbFsa10-29">
          <mxGeometry relative="1" as="geometry">
            <Array as="points">
              <mxPoint x="145" y="367" />
              <mxPoint x="170" y="367" />
            </Array>
          </mxGeometry>
        </mxCell>
        <mxCell id="lHdcJobjWZD8BWbFsa10-17" value="" style="verticalLabelPosition=bottom;shadow=0;dashed=0;align=center;html=1;verticalAlign=top;shape=mxgraph.electrical.transmission.optical_fiber;rotation=90;" vertex="1" parent="1">
          <mxGeometry x="120" y="214" width="50" height="30" as="geometry" />
        </mxCell>
        <mxCell id="lHdcJobjWZD8BWbFsa10-48" style="edgeStyle=orthogonalEdgeStyle;rounded=0;orthogonalLoop=1;jettySize=auto;html=1;" edge="1" parent="1" source="lHdcJobjWZD8BWbFsa10-20" target="lHdcJobjWZD8BWbFsa10-29">
          <mxGeometry relative="1" as="geometry">
            <Array as="points">
              <mxPoint x="237" y="366" />
              <mxPoint x="220" y="366" />
            </Array>
          </mxGeometry>
        </mxCell>
        <mxCell id="lHdcJobjWZD8BWbFsa10-20" value="" style="verticalLabelPosition=bottom;shadow=0;dashed=0;align=center;html=1;verticalAlign=top;shape=mxgraph.electrical.transmission.optical_fiber;rotation=90;" vertex="1" parent="1">
          <mxGeometry x="212" y="295" width="50" height="30" as="geometry" />
        </mxCell>
        <mxCell id="lHdcJobjWZD8BWbFsa10-35" value="" style="edgeStyle=orthogonalEdgeStyle;rounded=0;orthogonalLoop=1;jettySize=auto;html=1;" edge="1" parent="1" source="lHdcJobjWZD8BWbFsa10-25" target="lHdcJobjWZD8BWbFsa10-31">
          <mxGeometry relative="1" as="geometry" />
        </mxCell>
        <mxCell id="lHdcJobjWZD8BWbFsa10-25" value="" style="verticalLabelPosition=bottom;shadow=0;dashed=0;align=center;html=1;verticalAlign=top;shape=mxgraph.electrical.transmission.optical_fiber;rotation=90;" vertex="1" parent="1">
          <mxGeometry x="170" y="507" width="50" height="30" as="geometry" />
        </mxCell>
        <mxCell id="lHdcJobjWZD8BWbFsa10-49" style="edgeStyle=orthogonalEdgeStyle;rounded=0;orthogonalLoop=1;jettySize=auto;html=1;entryX=0;entryY=0.5;entryDx=0;entryDy=0;entryPerimeter=0;" edge="1" parent="1" source="lHdcJobjWZD8BWbFsa10-29" target="lHdcJobjWZD8BWbFsa10-25">
          <mxGeometry relative="1" as="geometry" />
        </mxCell>
        <mxCell id="lHdcJobjWZD8BWbFsa10-29" value="" style="strokeColor=#666666;html=1;verticalLabelPosition=bottom;labelBackgroundColor=#ffffff;verticalAlign=top;outlineConnect=0;shadow=0;dashed=0;shape=mxgraph.rackGeneral.container;fillColor2=#f4f4f4;container=1;collapsible=0;childLayout=rack;allowGaps=1;marginLeft=9;marginRight=9;marginTop=21;marginBottom=22;textColor=#666666;numDisp=off;" vertex="1" parent="1">
          <mxGeometry x="160" y="397" width="70" height="80" as="geometry" />
        </mxCell>
        <mxCell id="lHdcJobjWZD8BWbFsa10-30" value="" style="shape=image;html=1;verticalAlign=top;verticalLabelPosition=bottom;labelBackgroundColor=#ffffff;imageAspect=0;aspect=fixed;image=https://cdn2.iconfinder.com/data/icons/gnomeicontheme/32x32/status/gnome-netstatus-tx.png" vertex="1" parent="lHdcJobjWZD8BWbFsa10-29">
          <mxGeometry x="9" y="21" width="52" height="40" as="geometry" />
        </mxCell>
        <mxCell id="lHdcJobjWZD8BWbFsa10-27" value="" style="shape=mxgraph.cisco.misc.ups;html=1;pointerEvents=1;dashed=0;fillColor=#036897;strokeColor=#ffffff;strokeWidth=2;verticalLabelPosition=bottom;verticalAlign=top;align=center;outlineConnect=0;" vertex="1" parent="lHdcJobjWZD8BWbFsa10-29">
          <mxGeometry x="9" y="61" width="52" height="20" as="geometry" />
        </mxCell>
        <mxCell id="lHdcJobjWZD8BWbFsa10-34" value="" style="edgeStyle=orthogonalEdgeStyle;rounded=0;orthogonalLoop=1;jettySize=auto;html=1;" edge="1" parent="1" source="lHdcJobjWZD8BWbFsa10-31" target="lHdcJobjWZD8BWbFsa10-8">
          <mxGeometry relative="1" as="geometry" />
        </mxCell>
        <mxCell id="lHdcJobjWZD8BWbFsa10-57" style="edgeStyle=orthogonalEdgeStyle;rounded=0;orthogonalLoop=1;jettySize=auto;html=1;entryX=0;entryY=0.5;entryDx=0;entryDy=0;entryPerimeter=0;" edge="1" parent="1" source="lHdcJobjWZD8BWbFsa10-31" target="lHdcJobjWZD8BWbFsa10-56">
          <mxGeometry relative="1" as="geometry">
            <mxPoint x="195" y="707" as="targetPoint" />
          </mxGeometry>
        </mxCell>
        <mxCell id="lHdcJobjWZD8BWbFsa10-31" value="" style="strokeColor=#666666;html=1;verticalLabelPosition=bottom;labelBackgroundColor=#ffffff;verticalAlign=top;outlineConnect=0;shadow=0;dashed=0;shape=mxgraph.rackGeneral.container;fillColor2=#f4f4f4;container=1;collapsible=0;childLayout=rack;allowGaps=1;marginLeft=9;marginRight=9;marginTop=21;marginBottom=22;textColor=#666666;numDisp=off;" vertex="1" parent="1">
          <mxGeometry x="160" y="577" width="70" height="80" as="geometry" />
        </mxCell>
        <mxCell id="lHdcJobjWZD8BWbFsa10-33" value="" style="shape=mxgraph.cisco.misc.ups;html=1;pointerEvents=1;dashed=0;fillColor=#036897;strokeColor=#ffffff;strokeWidth=2;verticalLabelPosition=bottom;verticalAlign=top;align=center;outlineConnect=0;" vertex="1" parent="lHdcJobjWZD8BWbFsa10-31">
          <mxGeometry x="9" y="41" width="52" height="20" as="geometry" />
        </mxCell>
        <mxCell id="lHdcJobjWZD8BWbFsa10-36" value="" style="points=[];aspect=fixed;html=1;align=center;shadow=0;dashed=0;image;image=img/lib/allied_telesis/security/POE_DVS_Camera.svg;" vertex="1" parent="1">
          <mxGeometry x="90" y="776.9" width="51" height="40.2" as="geometry" />
        </mxCell>
        <mxCell id="lHdcJobjWZD8BWbFsa10-37" value="" style="edgeStyle=orthogonalEdgeStyle;rounded=0;orthogonalLoop=1;jettySize=auto;html=1;" edge="1" source="lHdcJobjWZD8BWbFsa10-38" target="lHdcJobjWZD8BWbFsa10-36" parent="1">
          <mxGeometry relative="1" as="geometry" />
        </mxCell>
        <mxCell id="lHdcJobjWZD8BWbFsa10-60" style="edgeStyle=orthogonalEdgeStyle;rounded=0;orthogonalLoop=1;jettySize=auto;html=1;entryX=0;entryY=0.5;entryDx=0;entryDy=0;entryPerimeter=0;" edge="1" parent="1" source="lHdcJobjWZD8BWbFsa10-38" target="lHdcJobjWZD8BWbFsa10-59">
          <mxGeometry relative="1" as="geometry" />
        </mxCell>
        <mxCell id="lHdcJobjWZD8BWbFsa10-38" value="" style="strokeColor=#666666;html=1;verticalLabelPosition=bottom;labelBackgroundColor=#ffffff;verticalAlign=top;outlineConnect=0;shadow=0;dashed=0;shape=mxgraph.rackGeneral.container;fillColor2=#f4f4f4;container=1;collapsible=0;childLayout=rack;allowGaps=1;marginLeft=9;marginRight=9;marginTop=21;marginBottom=22;textColor=#666666;numDisp=off;" vertex="1" parent="1">
          <mxGeometry x="160" y="757" width="70" height="80" as="geometry" />
        </mxCell>
        <mxCell id="lHdcJobjWZD8BWbFsa10-39" value="" style="shape=mxgraph.cisco.misc.ups;html=1;pointerEvents=1;dashed=0;fillColor=#036897;strokeColor=#ffffff;strokeWidth=2;verticalLabelPosition=bottom;verticalAlign=top;align=center;outlineConnect=0;" vertex="1" parent="lHdcJobjWZD8BWbFsa10-38">
          <mxGeometry x="9" y="41" width="52" height="20" as="geometry" />
        </mxCell>
        <mxCell id="lHdcJobjWZD8BWbFsa10-63" style="edgeStyle=orthogonalEdgeStyle;rounded=0;orthogonalLoop=1;jettySize=auto;html=1;entryX=1;entryY=0.5;entryDx=0;entryDy=0;entryPerimeter=0;" edge="1" parent="1" source="lHdcJobjWZD8BWbFsa10-41" target="lHdcJobjWZD8BWbFsa10-62">
          <mxGeometry relative="1" as="geometry" />
        </mxCell>
        <mxCell id="lHdcJobjWZD8BWbFsa10-41" value="" style="strokeColor=#666666;html=1;verticalLabelPosition=bottom;labelBackgroundColor=#ffffff;verticalAlign=top;outlineConnect=0;shadow=0;dashed=0;shape=mxgraph.rackGeneral.container;fillColor2=#f4f4f4;container=1;collapsible=0;childLayout=rack;allowGaps=1;marginLeft=9;marginRight=9;marginTop=21;marginBottom=22;textColor=#666666;numDisp=off;" vertex="1" parent="1">
          <mxGeometry x="430" y="756.87" width="70" height="80" as="geometry" />
        </mxCell>
        <mxCell id="lHdcJobjWZD8BWbFsa10-42" value="" style="shape=mxgraph.cisco.misc.ups;html=1;pointerEvents=1;dashed=0;fillColor=#036897;strokeColor=#ffffff;strokeWidth=2;verticalLabelPosition=bottom;verticalAlign=top;align=center;outlineConnect=0;" vertex="1" parent="lHdcJobjWZD8BWbFsa10-41">
          <mxGeometry x="9" y="41" width="52" height="20" as="geometry" />
        </mxCell>
        <mxCell id="lHdcJobjWZD8BWbFsa10-43" value="" style="strokeColor=#666666;html=1;verticalLabelPosition=bottom;labelBackgroundColor=#ffffff;verticalAlign=top;outlineConnect=0;shadow=0;dashed=0;shape=mxgraph.rackGeneral.container;fillColor2=#f4f4f4;container=1;collapsible=0;childLayout=rack;allowGaps=1;marginLeft=9;marginRight=9;marginTop=21;marginBottom=22;textColor=#666666;numDisp=off;" vertex="1" parent="1">
          <mxGeometry x="430" y="577" width="70" height="80" as="geometry" />
        </mxCell>
        <mxCell id="lHdcJobjWZD8BWbFsa10-44" value="" style="shape=mxgraph.cisco.misc.ups;html=1;pointerEvents=1;dashed=0;fillColor=#036897;strokeColor=#ffffff;strokeWidth=2;verticalLabelPosition=bottom;verticalAlign=top;align=center;outlineConnect=0;" vertex="1" parent="lHdcJobjWZD8BWbFsa10-43">
          <mxGeometry x="9" y="41" width="52" height="20" as="geometry" />
        </mxCell>
        <mxCell id="lHdcJobjWZD8BWbFsa10-45" value="office building" style="outlineConnect=0;gradientColor=none;fontColor=#545B64;strokeColor=none;fillColor=#879196;dashed=0;verticalLabelPosition=bottom;verticalAlign=top;align=center;html=1;fontSize=12;fontStyle=0;aspect=fixed;shape=mxgraph.aws4.illustration_office_building;pointerEvents=1" vertex="1" parent="1">
          <mxGeometry x="490" y="507" width="211.27" height="150" as="geometry" />
        </mxCell>
        <mxCell id="lHdcJobjWZD8BWbFsa10-54" value="" style="shape=image;html=1;verticalAlign=top;verticalLabelPosition=bottom;labelBackgroundColor=#ffffff;imageAspect=0;aspect=fixed;image=https://cdn3.iconfinder.com/data/icons/eco-flat-2/512/Energy_panel_solar-128.png" vertex="1" parent="1">
          <mxGeometry x="147" y="537" width="45.87" height="45.87" as="geometry" />
        </mxCell>
        <mxCell id="lHdcJobjWZD8BWbFsa10-55" value="" style="shape=image;html=1;verticalAlign=top;verticalLabelPosition=bottom;labelBackgroundColor=#ffffff;imageAspect=0;aspect=fixed;image=https://cdn3.iconfinder.com/data/icons/eco-flat-2/512/Energy_panel_solar-128.png" vertex="1" parent="1">
          <mxGeometry x="147" y="717" width="45.87" height="45.87" as="geometry" />
        </mxCell>
        <mxCell id="lHdcJobjWZD8BWbFsa10-58" style="edgeStyle=orthogonalEdgeStyle;rounded=0;orthogonalLoop=1;jettySize=auto;html=1;" edge="1" parent="1" source="lHdcJobjWZD8BWbFsa10-56" target="lHdcJobjWZD8BWbFsa10-38">
          <mxGeometry relative="1" as="geometry" />
        </mxCell>
        <mxCell id="lHdcJobjWZD8BWbFsa10-56" value="" style="verticalLabelPosition=bottom;shadow=0;dashed=0;align=center;html=1;verticalAlign=top;shape=mxgraph.electrical.transmission.optical_fiber;rotation=90;" vertex="1" parent="1">
          <mxGeometry x="170" y="687" width="50" height="30" as="geometry" />
        </mxCell>
        <mxCell id="lHdcJobjWZD8BWbFsa10-61" value="" style="edgeStyle=orthogonalEdgeStyle;rounded=0;orthogonalLoop=1;jettySize=auto;html=1;" edge="1" parent="1" source="lHdcJobjWZD8BWbFsa10-59" target="lHdcJobjWZD8BWbFsa10-41">
          <mxGeometry relative="1" as="geometry" />
        </mxCell>
        <mxCell id="lHdcJobjWZD8BWbFsa10-59" value="" style="verticalLabelPosition=bottom;shadow=0;dashed=0;align=center;html=1;verticalAlign=top;shape=mxgraph.electrical.transmission.optical_fiber;rotation=0;" vertex="1" parent="1">
          <mxGeometry x="300" y="782" width="50" height="30" as="geometry" />
        </mxCell>
        <mxCell id="lHdcJobjWZD8BWbFsa10-64" value="" style="edgeStyle=orthogonalEdgeStyle;rounded=0;orthogonalLoop=1;jettySize=auto;html=1;" edge="1" parent="1" source="lHdcJobjWZD8BWbFsa10-62" target="lHdcJobjWZD8BWbFsa10-43">
          <mxGeometry relative="1" as="geometry" />
        </mxCell>
        <mxCell id="lHdcJobjWZD8BWbFsa10-62" value="" style="verticalLabelPosition=bottom;shadow=0;dashed=0;align=center;html=1;verticalAlign=top;shape=mxgraph.electrical.transmission.optical_fiber;rotation=90;" vertex="1" parent="1">
          <mxGeometry x="440" y="687" width="50" height="30" as="geometry" />
        </mxCell>
        <mxCell id="lHdcJobjWZD8BWbFsa10-65" value="&lt;div style=&quot;text-align: left&quot;&gt;&lt;font color=&quot;#444444&quot; face=&quot;calibri, sans-serif, mongolian baiti, microsoft yi baiti, javanese text, yu gothic&quot;&gt;&lt;span style=&quot;font-size: 14.6667px ; background-color: rgb(255 , 255 , 255)&quot;&gt;Home Gamez&lt;/span&gt;&lt;/font&gt;&lt;/div&gt;&lt;div style=&quot;text-align: left&quot;&gt;&lt;span style=&quot;background-color: rgb(255 , 255 , 255) ; color: rgb(68 , 68 , 68) ; font-family: &amp;#34;calibri&amp;#34; , sans-serif , &amp;#34;mongolian baiti&amp;#34; , &amp;#34;microsoft yi baiti&amp;#34; , &amp;#34;javanese text&amp;#34; , &amp;#34;yu gothic&amp;#34; ; font-size: 14.6667px&quot;&gt;Latitude: 4°42&#39;24.38&quot;N&lt;/span&gt;&lt;/div&gt;&lt;span style=&quot;color: rgb(68 , 68 , 68) ; font-family: &amp;#34;calibri&amp;#34; , sans-serif , &amp;#34;mongolian baiti&amp;#34; , &amp;#34;microsoft yi baiti&amp;#34; , &amp;#34;javanese text&amp;#34; , &amp;#34;yu gothic&amp;#34; ; font-size: 14.6667px ; background-color: rgb(255 , 255 , 255)&quot;&gt;&lt;div style=&quot;text-align: left&quot;&gt;&lt;span style=&quot;font-size: 14.6667px ; text-align: center&quot;&gt;Longitude: 74°7&#39;10.81&quot;O&amp;nbsp;&lt;/span&gt;&lt;/div&gt;&lt;/span&gt;&lt;span style=&quot;color: rgb(68 , 68 , 68) ; font-family: &amp;#34;calibri&amp;#34; , sans-serif , &amp;#34;mongolian baiti&amp;#34; , &amp;#34;microsoft yi baiti&amp;#34; , &amp;#34;javanese text&amp;#34; , &amp;#34;yu gothic&amp;#34; ; font-size: 14.6667px ; background-color: rgb(255 , 255 , 255)&quot;&gt;&lt;div style=&quot;text-align: left&quot;&gt;&lt;span style=&quot;font-size: 14.6667px&quot;&gt;Height: 2548 M&lt;/span&gt;&lt;/div&gt;&lt;/span&gt;" style="text;html=1;align=center;verticalAlign=middle;resizable=0;points=[];autosize=1;strokeWidth=1;fontSize=14;" vertex="1" parent="1">
          <mxGeometry x="360" y="80" width="170" height="70" as="geometry" />
        </mxCell>
        <mxCell id="lHdcJobjWZD8BWbFsa10-66" value="&lt;div style=&quot;text-align: left&quot;&gt;&lt;span style=&quot;background-color: rgb(255 , 255 , 255) ; color: rgb(68 , 68 , 68) ; font-family: &amp;#34;calibri&amp;#34; , sans-serif , &amp;#34;mongolian baiti&amp;#34; , &amp;#34;microsoft yi baiti&amp;#34; , &amp;#34;javanese text&amp;#34; , &amp;#34;yu gothic&amp;#34; ; font-size: 14.6667px&quot;&gt;Home Peña&lt;/span&gt;&lt;/div&gt;&lt;div style=&quot;text-align: left&quot;&gt;&lt;span style=&quot;background-color: rgb(255 , 255 , 255) ; color: rgb(68 , 68 , 68) ; font-family: &amp;#34;calibri&amp;#34; , sans-serif , &amp;#34;mongolian baiti&amp;#34; , &amp;#34;microsoft yi baiti&amp;#34; , &amp;#34;javanese text&amp;#34; , &amp;#34;yu gothic&amp;#34; ; font-size: 14.6667px&quot;&gt;Latitude: 4°40&#39;56.95&quot;N&amp;nbsp;&amp;nbsp;&lt;/span&gt;&lt;/div&gt;&lt;span style=&quot;color: rgb(68 , 68 , 68) ; font-family: &amp;#34;calibri&amp;#34; , sans-serif , &amp;#34;mongolian baiti&amp;#34; , &amp;#34;microsoft yi baiti&amp;#34; , &amp;#34;javanese text&amp;#34; , &amp;#34;yu gothic&amp;#34; ; font-size: 14.6667px ; background-color: rgb(255 , 255 , 255)&quot;&gt;&lt;div style=&quot;text-align: left&quot;&gt;&lt;span style=&quot;font-size: 14.6667px ; text-align: center&quot;&gt;Longitude:&lt;/span&gt;&lt;span style=&quot;font-size: 14.6667px ; text-align: center&quot;&gt;&amp;nbsp;74° 9&#39;26.24&quot; O&lt;/span&gt;&lt;/div&gt;&lt;/span&gt;&lt;span style=&quot;color: rgb(68 , 68 , 68) ; font-family: &amp;#34;calibri&amp;#34; , sans-serif , &amp;#34;mongolian baiti&amp;#34; , &amp;#34;microsoft yi baiti&amp;#34; , &amp;#34;javanese text&amp;#34; , &amp;#34;yu gothic&amp;#34; ; font-size: 14.6667px ; background-color: rgb(255 , 255 , 255)&quot;&gt;&lt;div style=&quot;text-align: left&quot;&gt;&lt;span style=&quot;font-size: 14.6667px&quot;&gt;Height: 2545 M&lt;/span&gt;&lt;/div&gt;&lt;/span&gt;" style="text;html=1;align=center;verticalAlign=middle;resizable=0;points=[];autosize=1;strokeWidth=1;fontSize=14;" vertex="1" parent="1">
          <mxGeometry x="360" y="194" width="170" height="70" as="geometry" />
        </mxCell>
        <mxCell id="lHdcJobjWZD8BWbFsa10-67" value="&lt;div style=&quot;text-align: left&quot;&gt;&lt;span style=&quot;background-color: rgb(255 , 255 , 255) ; color: rgb(68 , 68 , 68) ; font-family: &amp;#34;calibri&amp;#34; , sans-serif , &amp;#34;mongolian baiti&amp;#34; , &amp;#34;microsoft yi baiti&amp;#34; , &amp;#34;javanese text&amp;#34; , &amp;#34;yu gothic&amp;#34; ; font-size: 14.6667px&quot;&gt;Latitude: 4°37&#39;35.48&quot;N&lt;/span&gt;&lt;/div&gt;&lt;span style=&quot;color: rgb(68 , 68 , 68) ; font-family: &amp;#34;calibri&amp;#34; , sans-serif , &amp;#34;mongolian baiti&amp;#34; , &amp;#34;microsoft yi baiti&amp;#34; , &amp;#34;javanese text&amp;#34; , &amp;#34;yu gothic&amp;#34; ; font-size: 14.6667px ; background-color: rgb(255 , 255 , 255)&quot;&gt;&lt;div style=&quot;text-align: left&quot;&gt;&lt;span style=&quot;font-size: 14.6667px ; text-align: center&quot;&gt;Longitude: 74°4&#39;8.90&quot;O&lt;/span&gt;&lt;span style=&quot;font-size: 14.6667px ; text-align: center&quot;&gt;&amp;nbsp;&lt;/span&gt;&lt;/div&gt;&lt;/span&gt;&lt;span style=&quot;color: rgb(68 , 68 , 68) ; font-family: &amp;#34;calibri&amp;#34; , sans-serif , &amp;#34;mongolian baiti&amp;#34; , &amp;#34;microsoft yi baiti&amp;#34; , &amp;#34;javanese text&amp;#34; , &amp;#34;yu gothic&amp;#34; ; font-size: 14.6667px ; background-color: rgb(255 , 255 , 255)&quot;&gt;&lt;div style=&quot;text-align: left&quot;&gt;&lt;span style=&quot;font-size: 14.6667px&quot;&gt;Height: 2579 M&lt;/span&gt;&lt;/div&gt;&lt;/span&gt;&lt;span style=&quot;color: rgb(68 , 68 , 68) ; font-family: &amp;#34;calibri&amp;#34; , sans-serif , &amp;#34;mongolian baiti&amp;#34; , &amp;#34;microsoft yi baiti&amp;#34; , &amp;#34;javanese text&amp;#34; , &amp;#34;yu gothic&amp;#34; ; font-size: 14.6667px ; background-color: rgb(255 , 255 , 255)&quot;&gt;&lt;div style=&quot;text-align: left&quot;&gt;&lt;span style=&quot;font-size: 14.6667px&quot;&gt;&lt;br&gt;&lt;/span&gt;&lt;/div&gt;&lt;/span&gt;" style="text;html=1;align=center;verticalAlign=middle;resizable=0;points=[];autosize=1;strokeWidth=1;fontSize=14;" vertex="1" parent="1">
          <mxGeometry x="458" y="387" width="160" height="70" as="geometry" />
        </mxCell>
        <mxCell id="lHdcJobjWZD8BWbFsa10-68" value="&lt;div style=&quot;text-align: left&quot;&gt;&lt;span style=&quot;background-color: rgb(255 , 255 , 255)&quot;&gt;&lt;font color=&quot;#444444&quot; face=&quot;calibri, sans-serif, mongolian baiti, microsoft yi baiti, javanese text, yu gothic&quot;&gt;&lt;span style=&quot;font-size: 14.6667px&quot;&gt;Big Save Shopping&amp;nbsp;&lt;/span&gt;&lt;/font&gt;&lt;/span&gt;&lt;span style=&quot;font-size: 14.6667px ; color: rgb(68 , 68 , 68) ; font-family: &amp;#34;calibri&amp;#34; , sans-serif , &amp;#34;mongolian baiti&amp;#34; , &amp;#34;microsoft yi baiti&amp;#34; , &amp;#34;javanese text&amp;#34; , &amp;#34;yu gothic&amp;#34; ; background-color: rgb(255 , 255 , 255)&quot;&gt;Center&lt;/span&gt;&lt;/div&gt;&lt;div style=&quot;text-align: left&quot;&gt;&lt;span style=&quot;background-color: rgb(255 , 255 , 255) ; color: rgb(68 , 68 , 68) ; font-family: &amp;#34;calibri&amp;#34; , sans-serif , &amp;#34;mongolian baiti&amp;#34; , &amp;#34;microsoft yi baiti&amp;#34; , &amp;#34;javanese text&amp;#34; , &amp;#34;yu gothic&amp;#34; ; font-size: 14.6667px&quot;&gt;Latitude: 5°31&#39;56.21&quot;N&lt;/span&gt;&lt;/div&gt;&lt;span style=&quot;color: rgb(68 , 68 , 68) ; font-family: &amp;#34;calibri&amp;#34; , sans-serif , &amp;#34;mongolian baiti&amp;#34; , &amp;#34;microsoft yi baiti&amp;#34; , &amp;#34;javanese text&amp;#34; , &amp;#34;yu gothic&amp;#34; ; font-size: 14.6667px ; background-color: rgb(255 , 255 , 255)&quot;&gt;&lt;div style=&quot;text-align: left&quot;&gt;&lt;span style=&quot;font-size: 14.6667px ; text-align: center&quot;&gt;Longitude:&lt;/span&gt;&lt;span style=&quot;font-size: 14.6667px ; text-align: center&quot;&gt;&amp;nbsp; 73°21&#39;48.52&quot;O&lt;/span&gt;&lt;/div&gt;&lt;/span&gt;&lt;span style=&quot;color: rgb(68 , 68 , 68) ; font-family: &amp;#34;calibri&amp;#34; , sans-serif , &amp;#34;mongolian baiti&amp;#34; , &amp;#34;microsoft yi baiti&amp;#34; , &amp;#34;javanese text&amp;#34; , &amp;#34;yu gothic&amp;#34; ; font-size: 14.6667px ; background-color: rgb(255 , 255 , 255)&quot;&gt;&lt;div style=&quot;text-align: left&quot;&gt;&lt;span style=&quot;font-size: 14.6667px&quot;&gt;Height: 2787 m&lt;/span&gt;&lt;/div&gt;&lt;/span&gt;&lt;span style=&quot;color: rgb(68 , 68 , 68) ; font-family: &amp;#34;calibri&amp;#34; , sans-serif , &amp;#34;mongolian baiti&amp;#34; , &amp;#34;microsoft yi baiti&amp;#34; , &amp;#34;javanese text&amp;#34; , &amp;#34;yu gothic&amp;#34; ; font-size: 14.6667px ; background-color: rgb(255 , 255 , 255)&quot;&gt;&lt;div style=&quot;text-align: left&quot;&gt;&lt;span style=&quot;font-size: 14.6667px&quot;&gt;&lt;br&gt;&lt;/span&gt;&lt;/div&gt;&lt;/span&gt;" style="text;html=1;align=center;verticalAlign=middle;resizable=0;points=[];autosize=1;strokeWidth=1;fontSize=14;" vertex="1" parent="1">
          <mxGeometry x="570" y="470" width="170" height="90" as="geometry" />
        </mxCell>
        <mxCell id="lHdcJobjWZD8BWbFsa10-69" value="&lt;div style=&quot;text-align: left&quot;&gt;&lt;span style=&quot;background-color: rgb(255 , 255 , 255) ; color: rgb(68 , 68 , 68) ; font-family: &amp;#34;calibri&amp;#34; , sans-serif , &amp;#34;mongolian baiti&amp;#34; , &amp;#34;microsoft yi baiti&amp;#34; , &amp;#34;javanese text&amp;#34; , &amp;#34;yu gothic&amp;#34; ; font-size: 14.6667px&quot;&gt;Villapinzon Town&lt;/span&gt;&lt;/div&gt;&lt;div style=&quot;text-align: left&quot;&gt;&lt;span style=&quot;background-color: rgb(255 , 255 , 255) ; color: rgb(68 , 68 , 68) ; font-family: &amp;#34;calibri&amp;#34; , sans-serif , &amp;#34;mongolian baiti&amp;#34; , &amp;#34;microsoft yi baiti&amp;#34; , &amp;#34;javanese text&amp;#34; , &amp;#34;yu gothic&amp;#34; ; font-size: 14.6667px&quot;&gt;Latitude: 4°37&#39;35.48&quot;N&lt;/span&gt;&lt;/div&gt;&lt;span style=&quot;color: rgb(68 , 68 , 68) ; font-family: &amp;#34;calibri&amp;#34; , sans-serif , &amp;#34;mongolian baiti&amp;#34; , &amp;#34;microsoft yi baiti&amp;#34; , &amp;#34;javanese text&amp;#34; , &amp;#34;yu gothic&amp;#34; ; font-size: 14.6667px ; background-color: rgb(255 , 255 , 255)&quot;&gt;&lt;div style=&quot;text-align: left&quot;&gt;&lt;span style=&quot;font-size: 14.6667px ; text-align: center&quot;&gt;Longitude: 74°4&#39;8.90&quot;O&lt;/span&gt;&lt;span style=&quot;font-size: 14.6667px ; text-align: center&quot;&gt;&amp;nbsp;&amp;nbsp;&lt;/span&gt;&lt;/div&gt;&lt;/span&gt;&lt;span style=&quot;color: rgb(68 , 68 , 68) ; font-family: &amp;#34;calibri&amp;#34; , sans-serif , &amp;#34;mongolian baiti&amp;#34; , &amp;#34;microsoft yi baiti&amp;#34; , &amp;#34;javanese text&amp;#34; , &amp;#34;yu gothic&amp;#34; ; font-size: 14.6667px ; background-color: rgb(255 , 255 , 255)&quot;&gt;&lt;div style=&quot;text-align: left&quot;&gt;&lt;span style=&quot;font-size: 14.6667px&quot;&gt;Height: 2721 M&lt;/span&gt;&lt;/div&gt;&lt;/span&gt;" style="text;html=1;align=center;verticalAlign=middle;resizable=0;points=[];autosize=1;strokeWidth=1;fontSize=14;" vertex="1" parent="1">
          <mxGeometry x="420" y="847" width="160" height="70" as="geometry" />
        </mxCell>
        <mxCell id="lHdcJobjWZD8BWbFsa10-70" value="&lt;div style=&quot;text-align: left&quot;&gt;&lt;span style=&quot;background-color: rgb(255 , 255 , 255)&quot;&gt;&lt;font color=&quot;#444444&quot; face=&quot;calibri, sans-serif, mongolian baiti, microsoft yi baiti, javanese text, yu gothic&quot;&gt;&lt;span style=&quot;font-size: 14.6667px&quot;&gt;Camera Saves Lives # 2&lt;/span&gt;&lt;/font&gt;&lt;br&gt;&lt;/span&gt;&lt;/div&gt;&lt;div style=&quot;text-align: left&quot;&gt;&lt;span style=&quot;background-color: rgb(255 , 255 , 255) ; color: rgb(68 , 68 , 68) ; font-family: &amp;#34;calibri&amp;#34; , sans-serif , &amp;#34;mongolian baiti&amp;#34; , &amp;#34;microsoft yi baiti&amp;#34; , &amp;#34;javanese text&amp;#34; , &amp;#34;yu gothic&amp;#34; ; font-size: 14.6667px&quot;&gt;Latitude: 4°37&#39;35.48&quot;N&lt;/span&gt;&lt;/div&gt;&lt;span style=&quot;color: rgb(68 , 68 , 68) ; font-family: &amp;#34;calibri&amp;#34; , sans-serif , &amp;#34;mongolian baiti&amp;#34; , &amp;#34;microsoft yi baiti&amp;#34; , &amp;#34;javanese text&amp;#34; , &amp;#34;yu gothic&amp;#34; ; font-size: 14.6667px ; background-color: rgb(255 , 255 , 255)&quot;&gt;&lt;div style=&quot;text-align: left&quot;&gt;&lt;span style=&quot;font-size: 14.6667px ; text-align: center&quot;&gt;Longitude: 74°4&#39;8.90&quot;O&lt;/span&gt;&lt;span style=&quot;font-size: 14.6667px ; text-align: center&quot;&gt;&amp;nbsp;&lt;/span&gt;&lt;/div&gt;&lt;/span&gt;&lt;span style=&quot;color: rgb(68 , 68 , 68) ; font-family: &amp;#34;calibri&amp;#34; , sans-serif , &amp;#34;mongolian baiti&amp;#34; , &amp;#34;microsoft yi baiti&amp;#34; , &amp;#34;javanese text&amp;#34; , &amp;#34;yu gothic&amp;#34; ; font-size: 14.6667px ; background-color: rgb(255 , 255 , 255)&quot;&gt;&lt;div style=&quot;text-align: left&quot;&gt;&lt;span style=&quot;font-size: 14.6667px&quot;&gt;Height: 2555 M&amp;nbsp;&lt;/span&gt;&lt;span style=&quot;font-size: 14.6667px&quot;&gt;&amp;nbsp;&lt;/span&gt;&lt;/div&gt;&lt;/span&gt;" style="text;html=1;align=center;verticalAlign=middle;resizable=0;points=[];autosize=1;strokeWidth=1;fontSize=14;" vertex="1" parent="1">
          <mxGeometry x="50" y="837" width="160" height="70" as="geometry" />
        </mxCell>
        <mxCell id="lHdcJobjWZD8BWbFsa10-71" value="&lt;div style=&quot;text-align: left&quot;&gt;&lt;span style=&quot;background-color: rgb(255 , 255 , 255)&quot;&gt;&lt;font color=&quot;#444444&quot; face=&quot;calibri, sans-serif, mongolian baiti, microsoft yi baiti, javanese text, yu gothic&quot;&gt;&lt;span style=&quot;font-size: 14.6667px&quot;&gt;Camera Saves Lives # 1&lt;/span&gt;&lt;/font&gt;&lt;br&gt;&lt;/span&gt;&lt;/div&gt;&lt;div style=&quot;text-align: left&quot;&gt;&lt;span style=&quot;background-color: rgb(255 , 255 , 255) ; color: rgb(68 , 68 , 68) ; font-family: &amp;#34;calibri&amp;#34; , sans-serif , &amp;#34;mongolian baiti&amp;#34; , &amp;#34;microsoft yi baiti&amp;#34; , &amp;#34;javanese text&amp;#34; , &amp;#34;yu gothic&amp;#34; ; font-size: 14.6667px&quot;&gt;Latitude: 4°37&#39;35.48&quot; N&lt;/span&gt;&lt;/div&gt;&lt;span style=&quot;color: rgb(68 , 68 , 68) ; font-family: &amp;#34;calibri&amp;#34; , sans-serif , &amp;#34;mongolian baiti&amp;#34; , &amp;#34;microsoft yi baiti&amp;#34; , &amp;#34;javanese text&amp;#34; , &amp;#34;yu gothic&amp;#34; ; font-size: 14.6667px ; background-color: rgb(255 , 255 , 255)&quot;&gt;&lt;div style=&quot;text-align: left&quot;&gt;&lt;span style=&quot;font-size: 14.6667px ; text-align: center&quot;&gt;Longitude: 74°4&#39;8.90&quot;O&lt;/span&gt;&lt;span style=&quot;font-size: 14.6667px ; text-align: center&quot;&gt;&amp;nbsp;&lt;/span&gt;&lt;/div&gt;&lt;/span&gt;&lt;span style=&quot;color: rgb(68 , 68 , 68) ; font-family: &amp;#34;calibri&amp;#34; , sans-serif , &amp;#34;mongolian baiti&amp;#34; , &amp;#34;microsoft yi baiti&amp;#34; , &amp;#34;javanese text&amp;#34; , &amp;#34;yu gothic&amp;#34; ; font-size: 14.6667px ; background-color: rgb(255 , 255 , 255)&quot;&gt;&lt;div style=&quot;text-align: left&quot;&gt;&lt;span style=&quot;font-size: 14.6667px&quot;&gt;Height: 2569 M&amp;nbsp;&lt;/span&gt;&lt;/div&gt;&lt;/span&gt;" style="text;html=1;align=center;verticalAlign=middle;resizable=0;points=[];autosize=1;strokeWidth=1;fontSize=14;" vertex="1" parent="1">
          <mxGeometry x="232" y="582" width="160" height="70" as="geometry" />
        </mxCell>
        <mxCell id="lHdcJobjWZD8BWbFsa10-77" value="&lt;div style=&quot;text-align: left&quot;&gt;&lt;span style=&quot;font-size: 14.6667px ; background-color: rgb(255 , 255 , 255) ; color: rgb(68 , 68 , 68) ; font-family: &amp;#34;calibri&amp;#34; , sans-serif , &amp;#34;mongolian baiti&amp;#34; , &amp;#34;microsoft yi baiti&amp;#34; , &amp;#34;javanese text&amp;#34; , &amp;#34;yu gothic&amp;#34;&quot;&gt;Line Straigt: 10.5 KM&lt;/span&gt;&lt;br&gt;&lt;/div&gt;&lt;span style=&quot;color: rgb(68 , 68 , 68) ; font-family: &amp;#34;calibri&amp;#34; , sans-serif , &amp;#34;mongolian baiti&amp;#34; , &amp;#34;microsoft yi baiti&amp;#34; , &amp;#34;javanese text&amp;#34; , &amp;#34;yu gothic&amp;#34; ; font-size: 14.6667px ; background-color: rgb(255 , 255 , 255)&quot;&gt;&lt;div style=&quot;text-align: left&quot;&gt;&lt;span style=&quot;font-size: 14.6667px&quot;&gt;Highway:&amp;nbsp; 14.1 KM&lt;/span&gt;&lt;/div&gt;&lt;/span&gt;" style="text;html=1;align=center;verticalAlign=middle;resizable=0;points=[];autosize=1;strokeWidth=1;fontSize=14;" vertex="1" parent="1">
          <mxGeometry x="7" y="244" width="140" height="40" as="geometry" />
        </mxCell>
        <mxCell id="lHdcJobjWZD8BWbFsa10-78" value="&lt;div style=&quot;text-align: left&quot;&gt;&lt;span style=&quot;font-size: 14.6667px ; background-color: rgb(255 , 255 , 255) ; color: rgb(68 , 68 , 68) ; font-family: &amp;#34;calibri&amp;#34; , sans-serif , &amp;#34;mongolian baiti&amp;#34; , &amp;#34;microsoft yi baiti&amp;#34; , &amp;#34;javanese text&amp;#34; , &amp;#34;yu gothic&amp;#34;&quot;&gt;Line Straigt: 11.57 KM&lt;/span&gt;&lt;br&gt;&lt;/div&gt;&lt;span style=&quot;color: rgb(68 , 68 , 68) ; font-family: &amp;#34;calibri&amp;#34; , sans-serif , &amp;#34;mongolian baiti&amp;#34; , &amp;#34;microsoft yi baiti&amp;#34; , &amp;#34;javanese text&amp;#34; , &amp;#34;yu gothic&amp;#34; ; font-size: 14.6667px ; background-color: rgb(255 , 255 , 255)&quot;&gt;&lt;div style=&quot;text-align: left&quot;&gt;&lt;span style=&quot;font-size: 14.6667px&quot;&gt;Highway:&amp;nbsp; 14.8 KM&lt;/span&gt;&lt;/div&gt;&lt;/span&gt;" style="text;html=1;align=center;verticalAlign=middle;resizable=0;points=[];autosize=1;strokeWidth=1;fontSize=14;" vertex="1" parent="1">
          <mxGeometry x="250" y="290" width="150" height="40" as="geometry" />
        </mxCell>
        <mxCell id="lHdcJobjWZD8BWbFsa10-79" value="&lt;div style=&quot;text-align: left&quot;&gt;&lt;span style=&quot;font-size: 14.6667px ; background-color: rgb(255 , 255 , 255) ; color: rgb(68 , 68 , 68) ; font-family: &amp;#34;calibri&amp;#34; , sans-serif , &amp;#34;mongolian baiti&amp;#34; , &amp;#34;microsoft yi baiti&amp;#34; , &amp;#34;javanese text&amp;#34; , &amp;#34;yu gothic&amp;#34;&quot;&gt;Line Straigt: 2.7 KM&lt;/span&gt;&lt;br&gt;&lt;/div&gt;&lt;span style=&quot;color: rgb(68 , 68 , 68) ; font-family: &amp;#34;calibri&amp;#34; , sans-serif , &amp;#34;mongolian baiti&amp;#34; , &amp;#34;microsoft yi baiti&amp;#34; , &amp;#34;javanese text&amp;#34; , &amp;#34;yu gothic&amp;#34; ; font-size: 14.6667px ; background-color: rgb(255 , 255 , 255)&quot;&gt;&lt;div style=&quot;text-align: left&quot;&gt;&lt;span style=&quot;font-size: 14.6667px&quot;&gt;Highway:&amp;nbsp; 3.7 KM&lt;/span&gt;&lt;/div&gt;&lt;/span&gt;" style="text;html=1;align=center;verticalAlign=middle;resizable=0;points=[];autosize=1;strokeWidth=1;fontSize=14;" vertex="1" parent="1">
          <mxGeometry x="214" y="502" width="130" height="40" as="geometry" />
        </mxCell>
        <mxCell id="lHdcJobjWZD8BWbFsa10-80" value="&lt;div style=&quot;text-align: left&quot;&gt;&lt;span style=&quot;font-size: 14.6667px ; background-color: rgb(255 , 255 , 255) ; color: rgb(68 , 68 , 68) ; font-family: &amp;#34;calibri&amp;#34; , sans-serif , &amp;#34;mongolian baiti&amp;#34; , &amp;#34;microsoft yi baiti&amp;#34; , &amp;#34;javanese text&amp;#34; , &amp;#34;yu gothic&amp;#34;&quot;&gt;Line Straigt: 12.91 KM&lt;/span&gt;&lt;br&gt;&lt;/div&gt;&lt;span style=&quot;color: rgb(68 , 68 , 68) ; font-family: &amp;#34;calibri&amp;#34; , sans-serif , &amp;#34;mongolian baiti&amp;#34; , &amp;#34;microsoft yi baiti&amp;#34; , &amp;#34;javanese text&amp;#34; , &amp;#34;yu gothic&amp;#34; ; font-size: 14.6667px ; background-color: rgb(255 , 255 , 255)&quot;&gt;&lt;div style=&quot;text-align: left&quot;&gt;&lt;span style=&quot;font-size: 14.6667px&quot;&gt;Highway:&amp;nbsp; 14.1 KM&lt;/span&gt;&lt;/div&gt;&lt;/span&gt;" style="text;html=1;align=center;verticalAlign=middle;resizable=0;points=[];autosize=1;strokeWidth=1;fontSize=14;" vertex="1" parent="1">
          <mxGeometry x="212" y="687" width="150" height="40" as="geometry" />
        </mxCell>
        <mxCell id="lHdcJobjWZD8BWbFsa10-81" value="&lt;div style=&quot;text-align: left&quot;&gt;&lt;span style=&quot;font-size: 14.6667px ; background-color: rgb(255 , 255 , 255) ; color: rgb(68 , 68 , 68) ; font-family: &amp;#34;calibri&amp;#34; , sans-serif , &amp;#34;mongolian baiti&amp;#34; , &amp;#34;microsoft yi baiti&amp;#34; , &amp;#34;javanese text&amp;#34; , &amp;#34;yu gothic&amp;#34;&quot;&gt;Line Straigt: 70.71 KM&lt;/span&gt;&lt;br&gt;&lt;/div&gt;&lt;span style=&quot;color: rgb(68 , 68 , 68) ; font-family: &amp;#34;calibri&amp;#34; , sans-serif , &amp;#34;mongolian baiti&amp;#34; , &amp;#34;microsoft yi baiti&amp;#34; , &amp;#34;javanese text&amp;#34; , &amp;#34;yu gothic&amp;#34; ; font-size: 14.6667px ; background-color: rgb(255 , 255 , 255)&quot;&gt;&lt;div style=&quot;text-align: left&quot;&gt;&lt;span style=&quot;font-size: 14.6667px&quot;&gt;Highway:&amp;nbsp; 80.7 KM&lt;/span&gt;&lt;/div&gt;&lt;/span&gt;" style="text;html=1;align=center;verticalAlign=middle;resizable=0;points=[];autosize=1;strokeWidth=1;fontSize=14;" vertex="1" parent="1">
          <mxGeometry x="250" y="812" width="150" height="40" as="geometry" />
        </mxCell>
        <mxCell id="lHdcJobjWZD8BWbFsa10-82" value="&lt;div style=&quot;text-align: left&quot;&gt;&lt;span style=&quot;font-size: 14.6667px ; background-color: rgb(255 , 255 , 255) ; color: rgb(68 , 68 , 68) ; font-family: &amp;#34;calibri&amp;#34; , sans-serif , &amp;#34;mongolian baiti&amp;#34; , &amp;#34;microsoft yi baiti&amp;#34; , &amp;#34;javanese text&amp;#34; , &amp;#34;yu gothic&amp;#34;&quot;&gt;Line Straigt: 43.47 KM&lt;/span&gt;&lt;br&gt;&lt;/div&gt;&lt;span style=&quot;color: rgb(68 , 68 , 68) ; font-family: &amp;#34;calibri&amp;#34; , sans-serif , &amp;#34;mongolian baiti&amp;#34; , &amp;#34;microsoft yi baiti&amp;#34; , &amp;#34;javanese text&amp;#34; , &amp;#34;yu gothic&amp;#34; ; font-size: 14.6667px ; background-color: rgb(255 , 255 , 255)&quot;&gt;&lt;div style=&quot;text-align: left&quot;&gt;&lt;span style=&quot;font-size: 14.6667px&quot;&gt;Highway:&amp;nbsp; 55.9 KM&lt;/span&gt;&lt;/div&gt;&lt;/span&gt;" style="text;html=1;align=center;verticalAlign=middle;resizable=0;points=[];autosize=1;strokeWidth=1;fontSize=14;" vertex="1" parent="1">
          <mxGeometry x="480" y="687" width="150" height="40" as="geometry" />
        </mxCell>
      </root>
    </mxGraphModel>
  </diagram>
</mxfile>
